<?xml version="1.0" standalone="no"?>
<!DOCTYPE svg PUBLIC "-//W3C//DTD SVG 1.1//EN" "http://www.w3.org/Graphics/SVG/1.1/DTD/svg11.dtd" >
<svg>
<metadata>
Created by FontForge 20090914 at Sun May 31 08:58:34 2020
 By www-data
&#194;&#169; 2012 by Sergiy S. Tkachenko / 4th february (info@4thfebruary.com.ua).
All rights reserved. This font software is the property of Sergiy S. Tkachenko (Kremenchuk, Ukraine). You may not reproduce, modify, adapt, translate, alter nor create derivative works of the font software. You may not reverse engineer, decompile, decrypt, disassemble, nor seek to discover the source code of the font software.
</metadata>
<defs>
<font id="Myra4FCaps" horiz-adv-x="647" >
  <font-face 
    font-family="Myra 4F Caps"
    font-weight="400"
    font-variant="small-caps"
    font-stretch="normal"
    units-per-em="1000"
    panose-1="0 0 0 0 0 0 0 0 0 0"
    ascent="750"
    descent="-250"
    x-height="700"
    cap-height="700"
    bbox="-12 -215.002 1175 867.002"
    underline-thickness="50"
    underline-position="-50"
    unicode-range="U+0020-U+2212"
  />
<missing-glyph horiz-adv-x="300" 
 />
    <glyph glyph-name=".notdef" horiz-adv-x="300" 
 />
    <glyph glyph-name="space" unicode=" " horiz-adv-x="300" 
 />
    <glyph glyph-name="space" unicode="&#xa0;" horiz-adv-x="300" 
 />
    <glyph glyph-name="exclam" unicode="!" horiz-adv-x="260" 
d="M92 190l-27 510h130l-28 -510h-75zM127 -20c-20 0 -37 7 -51 21s-21 31 -21 51c0 19.333 7 36.166 21 50.499s31 21.5 51 21.5c19.333 0 36.166 -7.16699 50.499 -21.5s21.5 -31.166 21.5 -50.499c0 -20 -7.16699 -37 -21.5 -51s-31.166 -21 -50.499 -21z" />
    <glyph glyph-name="quotedbl" unicode="&#x22;" horiz-adv-x="382" 
d="M90 440l-30 260h110l-30 -260h-50zM242 440l-30 260h110l-30 -260h-50z" />
    <glyph glyph-name="numbersign" unicode="#" horiz-adv-x="645" 
d="M253 297h111l31 116h-112zM367 0h-82l61 228h-113l-30 -113.5l-30 -114.5h-83l61 228h-106v69h125l31 116h-106v68h124l59 219h81l-57 -219h112l58 219h82l-57 -219h103v-68h-123l-30 -116h103v-69h-122z" />
    <glyph glyph-name="dollar" unicode="$" horiz-adv-x="593" 
d="M263 -150l0.00195312 125.998c-44 2.66699 -86.5 11.5 -127.5 26.5s-76.5 34.5 -106.5 58.5l57 82c21.333 -19.333 47.833 -34.666 79.5 -45.999s64.167 -18.333 97.5 -21v228c-30.667 6 -59 13.333 -85 22s-48.667 20.334 -68 35.001s-34.5 33 -45.5 55
s-16.5 49.667 -16.5 83c0 34 5.83301 64 17.5 90s27.167 48.333 46.5 67s42 33.334 68 44.001s53.667 17.667 83 21v129h66v-128c37.333 -2.66699 74.666 -10.5 111.999 -23.5s70.666 -31.167 99.999 -54.5l-58 -83c-19.333 17.333 -42.833 31.166 -70.5 41.499
s-55.5 16.833 -83.5 19.5v-229c32 -6.66699 61.833 -14.5 89.5 -23.5s51.5 -20.667 71.5 -35s35.667 -32.333 47 -54s17 -48.5 17 -80.5c0 -34 -6 -64 -18 -90s-28.333 -48.167 -49 -66.5s-44.667 -33 -72 -44s-56 -18.167 -86 -21.5v-128h-66zM329.002 78.998
c16.667 2.66699 32.167 6.83203 46.5 12.499s27 13.334 38 23.001s19.667 21 26 34s9.5 28.167 9.5 45.5c0 30.667 -10.5 52.5 -31.5 65.5s-50.5 23.833 -88.5 32.5v-213zM263.002 618.996c-30.667 -5.33301 -56.666 -17.1689 -77.999 -35.502s-32 -44.166 -32 -77.499
c0 -16.667 2.83301 -30.667 8.5 -42s13.5 -20.833 23.5 -28.5s21.667 -13.667 35 -18s27.666 -8.16602 42.999 -11.499v213z" />
    <glyph glyph-name="percent" unicode="%" horiz-adv-x="657" 
d="M170 720c18 0 34.834 -3 50.501 -9s29.334 -15.167 41.001 -27.5s21 -27.833 28 -46.5s10.5 -41 10.5 -67s-3.5 -48.333 -10.5 -67s-16.333 -34.167 -28 -46.5s-25.334 -21.5 -41.001 -27.5s-32.5 -9 -50.5 -9s-34.833 3 -50.5 9s-29.334 15.167 -41.001 27.5
s-21 27.833 -28 46.5s-10.5 41 -10.5 67s3.33301 48.333 10 67s16 34.167 28 46.5s25.833 21.5 41.5 27.5s32.5 9 50.5 9zM170.001 486c17.333 0 32.499 6.16699 45.499 18.5s19.5 34.166 19.5 65.499s-6.33301 53.166 -19 65.499s-28 18.5 -46 18.5
s-33.5 -6.16699 -46.5 -18.5s-19.5 -34.166 -19.5 -65.499s6.33301 -53.166 19 -65.499s28.334 -18.5 47.001 -18.5zM487 -20c-18 0 -34.834 3 -50.501 9s-29.5 15.167 -41.5 27.5s-21.333 27.833 -28 46.5s-10 41 -10 67s3.5 48.333 10.5 67s16.333 34.167 28 46.5
s25.334 21.5 41.001 27.5s32.5 9 50.5 9s34.833 -3 50.5 -9s29.334 -15.167 41.001 -27.5s21 -27.833 28 -46.5s10.5 -41 10.5 -67s-3.5 -48.333 -10.5 -67s-16.333 -34.167 -28 -46.5s-25.334 -21.5 -41.001 -27.5s-32.5 -9 -50.5 -9zM486.999 46
c18 0 33.332 5.99902 45.999 17.999s19 34 19 66c0 31.333 -6.16699 53.166 -18.5 65.499s-27.833 18.5 -46.5 18.5c-17.333 0 -32.666 -6.16699 -45.999 -18.5s-20 -34.166 -20 -65.499s6.5 -53.166 19.5 -65.499s28.5 -18.5 46.5 -18.5zM119.998 -0.000976562l327 700h89
l-327 -700h-89z" />
    <glyph glyph-name="ampersand" unicode="&#x26;" horiz-adv-x="738" 
d="M719 -4c-36 -10.667 -65.999 -16.001 -89.999 -16.001c-25.333 0 -51.833 4.5 -79.5 13.5s-55.5 21.5 -83.5 37.5c-23.333 -15.333 -50 -27.666 -80 -36.999s-64.333 -14 -103 -14c-42.667 0 -78.834 5.66699 -108.501 17s-53.667 26.5 -72 45.5
s-31.666 41.167 -39.999 66.5s-12.5 51.666 -12.5 78.999c0 39.333 8.5 76.5 25.5 111.5s45.833 63.167 86.5 84.5c-14.667 42.667 -22 84 -22 124c0 25.333 3.5 50.833 10.5 76.5s18.5 48.834 34.5 69.501s37.167 37.5 63.5 50.5s59.166 19.5 98.499 19.5
c35.333 0 67.666 -5 96.999 -15s55.666 -23.333 78.999 -40l-58 -81c-14.667 11.333 -32 20.166 -52 26.499s-41 9.5 -63 9.5c-18.667 0 -34.667 -3.16699 -48 -9.5s-24.166 -14.833 -32.499 -25.5s-14.5 -23 -18.5 -37s-6 -28.667 -6 -44c0 -28 5.5 -58 16.5 -90
s26 -63.5 45 -94.5s41 -60.833 66 -89.5s51.5 -54 79.5 -76c14 16.667 25.167 34.834 33.5 54.501s14.833 38.5 19.5 56.5s8 34.167 10 48.5s3.33301 25.166 4 32.499h104c-1.33301 -12 -3.33301 -27.667 -6 -47s-7 -40.166 -13 -62.499s-14.333 -45.5 -25 -69.5
s-24 -46.667 -40 -68c34 -15.333 66 -23 96 -23c10.667 0 20.834 0.833008 30.501 2.5s21.167 4.16699 34.5 7.5zM205.001 295.999c-17.333 -12 -29.999 -26.668 -37.999 -44.001s-12 -36.666 -12 -57.999c0 -36 10.333 -64 31 -84s53 -30 97 -30
c33.333 0 62.333 5.66699 87 17c-32 26.667 -62.333 57 -91 91s-53.334 70 -74.001 108z" />
    <glyph glyph-name="quotesingle" unicode="'" horiz-adv-x="230" 
d="M90 440l-30 260h110l-30 -260h-50z" />
    <glyph glyph-name="parenleft" unicode="(" horiz-adv-x="310" 
d="M265 -54c-73.333 0 -128.333 32.666 -165 97.999s-55 167.333 -55 306s18.333 240.667 55 306s91.667 98 165 98v-99c-20.667 0 -38.5 -5.66699 -53.5 -17s-27.5 -29.166 -37.5 -53.499s-17.333 -55.833 -22 -94.5s-7 -85.334 -7 -140.001
c0 -55.333 2.33301 -102.166 7 -140.499s12 -69.833 22 -94.5s22.5 -42.5 37.5 -53.5s32.833 -16.5 53.5 -16.5v-99z" />
    <glyph glyph-name="parenright" unicode=")" horiz-adv-x="310" 
d="M45 45c20.667 0 38.5 5.50098 53.5 16.501s27.5 28.833 37.5 53.5s17.333 56.167 22 94.5s7 85.166 7 140.499c0 54.667 -2.33301 101.334 -7 140.001s-12 70.167 -22 94.5s-22.5 42.166 -37.5 53.499s-32.833 17 -53.5 17v99c72.667 0 127.5 -32.667 164.5 -98
s55.5 -167.333 55.5 -306s-18.5 -240.667 -55.5 -306s-91.833 -98 -164.5 -98v99z" />
    <glyph glyph-name="asterisk" unicode="*" horiz-adv-x="436" 
d="M348 416l-28 -22l-28 -22l-75 100l-75 -101l-56 45l36 47.5l35 47.5l-113 39l24 66l112 -36v120h73v-121l57 19l57 18l24 -66l-116 -39l73 -95v0z" />
    <glyph glyph-name="plus" unicode="+" horiz-adv-x="701" 
d="M299 74v226h-224v99h224v226h101v-226h226v-99h-226v-226h-101z" />
    <glyph glyph-name="comma" unicode="," horiz-adv-x="253" 
d="M57 -108c32.667 32.667 55.666 61.999 68.999 87.999c-23.333 0.666992 -42.666 8.83398 -57.999 24.501s-23 34.5 -23 56.5s8 41.167 24 57.5s35 24.5 57 24.5c22.667 0 42 -7.83301 58 -23.5s24 -35.167 24 -58.5c0 -40 -9.16699 -77.833 -27.5 -113.5
s-42.833 -68.5 -73.5 -98.5z" />
    <glyph glyph-name="hyphen" unicode="-" horiz-adv-x="401" 
d="M75 300v99h251v-99h-251z" />
    <glyph glyph-name="period" unicode="." horiz-adv-x="253" 
d="M126 -20c-22 0 -41 8 -57 24s-24 35 -24 57s8 41.167 24 57.5s35 24.5 57 24.5c22.667 0 42 -8 58 -24s24 -35.333 24 -58c0 -22 -8 -41 -24 -57s-35.333 -24 -58 -24z" />
    <glyph glyph-name="slash" unicode="/" horiz-adv-x="395" 
d="M0 0l326 700h69l-326 -700h-69z" />
    <glyph glyph-name="zero" unicode="0" horiz-adv-x="640" 
d="M320 625c-24.667 0 -47.5 -5.16699 -68.5 -15.5s-39 -26.5 -54 -48.5s-26.667 -50.333 -35 -85s-12.5 -76.667 -12.5 -126s4.16699 -91.333 12.5 -126s20 -63 35 -85s33 -38.167 54 -48.5s43.833 -15.5 68.5 -15.5s47.334 5.16699 68.001 15.5s38.5 26.5 53.5 48.5
s26.833 50.333 35.5 85s13 76.667 13 126s-4.33301 91.333 -13 126s-20.5 63 -35.5 85s-32.833 38.167 -53.5 48.5s-43.334 15.5 -68.001 15.5zM320 724c39.333 0 75.833 -7.5 109.5 -22.5s62.667 -37.833 87 -68.5s43.5 -69.5 57.5 -116.5s21 -102.5 21 -166.5
s-7 -119.5 -21 -166.5s-33.167 -85.833 -57.5 -116.5s-53.333 -53.5 -87 -68.5s-70.167 -22.5 -109.5 -22.5s-75.833 7.5 -109.5 22.5s-62.667 37.833 -87 68.5s-43.5 69.5 -57.5 116.5s-21 102.5 -21 166.5s7 119.5 21 166.5s33.167 85.833 57.5 116.5s53.333 53.5 87 68.5
s70.167 22.5 109.5 22.5z" />
    <glyph glyph-name="one" unicode="1" horiz-adv-x="418" 
d="M208 0v447.999c0 19.333 0.166992 38.833 0.5 58.5s0.833008 39.5 1.5 59.5l-158 -83l-24 42.5c-8 13.667 -15.667 27.834 -23 42.501l252 130c0 0.666992 0.166992 1 0.5 1s0.5 0.333008 0.5 1h55v-700h-105z" />
    <glyph glyph-name="two" unicode="2" horiz-adv-x="596" 
d="M45 0l-0.00292969 69.001l140.5 106.5c45.667 35 86.334 70 122.001 105s64.334 70.833 86.001 107.5s32.5 74.667 32.5 114c0 22.667 -3.66699 42 -11 58s-17.166 28.667 -29.499 38s-26.666 16.166 -42.999 20.499s-33.5 6.5 -51.5 6.5
c-22 0 -41.667 -3.16699 -59 -9.5s-32 -17 -44 -32s-21.333 -35 -28 -60s-10 -56.167 -10 -93.5h-105c0 50 6 93.333 18 130s29 67.167 51 91.5s48.667 42.5 80 54.5s66.333 18 105 18c42.667 0 78.667 -6.5 108 -19.5s53.166 -29.833 71.499 -50.5s31.666 -44 39.999 -70
s12.5 -51.667 12.5 -77c0 -44.667 -10.667 -87.667 -32 -129s-48.666 -80 -81.999 -116s-71 -68.833 -113 -98.5s-83.333 -54.5 -124 -74.5l126 10h245v-99h-506z" />
    <glyph glyph-name="three" unicode="3" horiz-adv-x="574" 
d="M254 280l0.000976562 100.001h53c30.667 0 55.167 9.66699 73.5 29s27.5 49 27.5 89c0 22.667 -3.16699 42.167 -9.5 58.5s-15 29.5 -26 39.5s-24 17.333 -39 22s-30.833 7 -47.5 7c-42 0 -75.167 -15 -99.5 -45s-36.5 -80 -36.5 -150h-105c0 50 5.83301 93.5 17.5 130.5
s28.167 67.5 49.5 91.5s46.5 42 75.5 54s61.167 18 96.5 18c32.667 0 63 -5 91 -15s52.167 -24.667 72.5 -44s36.333 -43 48 -71s17.5 -60 17.5 -96c0 -42 -7.83301 -76.5 -23.5 -103.5s-38.5 -47.167 -68.5 -60.5c72 -22.667 108 -72.334 108 -149.001
c0 -32.667 -6 -62 -18 -88s-28.5 -48 -49.5 -66s-46 -31.667 -75 -41s-60.5 -14 -94.5 -14c-46 0 -90.333 8.66699 -133 26s-80 40.333 -112 69l62 77c24 -22.667 51.833 -40.5 83.5 -53.5s65.5 -19.5 101.5 -19.5c38 0 69.167 8.83301 93.5 26.5s36.5 45.5 36.5 83.5
c0 33.333 -10.333 57.5 -31 72.5s-50.334 22.5 -89.001 22.5h-50z" />
    <glyph glyph-name="four" unicode="4" horiz-adv-x="617" 
d="M386 0v170h-351v69l188 461h111l-175 -431h227v207l105 21v-228h91v-99h-91v-170h-105z" />
    <glyph glyph-name="five" unicode="5" horiz-adv-x="574" 
d="M189 601l-5.99902 -95.499c-2 -31.667 -3.66699 -63.5 -5 -95.5c16 9.33301 34.5 16.833 55.5 22.5s44.833 8.5 71.5 8.5c69.333 0 124 -18.5 164 -55.5s60 -91.833 60 -164.5c0 -39.333 -6.16699 -74.333 -18.5 -105s-29.166 -56.334 -50.499 -77.001
s-47 -36.334 -77 -47.001s-62.333 -16 -97 -16c-44.667 0 -88 7.83301 -130 23.5s-78.333 36.167 -109 61.5l59 79c22.667 -20 49.667 -35.667 81 -47s62.666 -17 93.999 -17c42.667 0 77.167 10.833 103.5 32.5s39.5 56.5 39.5 104.5c0 24 -3.33301 44.167 -10 60.5
s-15.834 29.5 -27.501 39.5s-25.334 17.167 -41.001 21.5s-32.5 6.5 -50.5 6.5c-30 0 -56.167 -5.16699 -78.5 -15.5s-42.166 -22.166 -59.499 -35.499l-86 20l12 195c4 64.667 8.33301 129.667 13 195h396v-99h-303v0z" />
    <glyph glyph-name="six" unicode="6" horiz-adv-x="608" 
d="M496 587c-23.333 11.333 -50.9961 20.334 -82.9961 27.001s-60.667 10 -86 10c-24.667 0 -47 -4 -67 -12s-37.5 -20.667 -52.5 -38s-27.333 -40 -37 -68s-15.834 -62.333 -18.501 -103c25.333 11.333 51.833 20.333 79.5 27s56.167 10 85.5 10
c34.667 0 67 -4.66699 97 -14s56 -23.5 78 -42.5s39.333 -43 52 -72s19 -63.167 19 -102.5c0 -72.667 -21.667 -129.667 -65 -171s-104.333 -62 -183 -62c-36.667 0 -71.334 5.5 -104.001 16.5s-61.334 30.333 -86.001 58s-44.167 64.667 -58.5 111
s-21.5 105.166 -21.5 176.499c0 68 6.83301 126.5 20.5 175.5s32.834 89 57.501 120s54.167 53.833 88.5 68.5s72.166 22 113.499 22c37.333 0 75.666 -5.16699 114.999 -15.5s73.333 -23.833 102 -40.5zM151.004 291.001c2 -44 7.83203 -80.001 17.499 -108.001
s21.667 -50 36 -66s31 -26.833 50 -32.5s39.167 -8.5 60.5 -8.5c44 0 78.833 10.5 104.5 31.5s38.5 54.5 38.5 100.5c0 46.667 -13 80.334 -39 101.001s-60.333 31 -103 31c-29.333 0 -58.166 -4.33301 -86.499 -13s-54.5 -20.667 -78.5 -36z" />
    <glyph glyph-name="seven" unicode="7" horiz-adv-x="502" 
d="M98 0l261 601h-340v99h464v-69l-272 -631h-113z" />
    <glyph glyph-name="eight" unicode="8" horiz-adv-x="614" 
d="M457 353c39.333 -16 67.833 -38.167 85.5 -66.5s26.5 -60.833 26.5 -97.5c0 -33.333 -6.83301 -63.333 -20.5 -90s-32.167 -49.167 -55.5 -67.5s-51.166 -32.166 -83.499 -41.499s-66.833 -14 -103.5 -14c-37.333 0 -71.833 4.83301 -103.5 14.5s-59.167 23.667 -82.5 42
s-41.666 40.666 -54.999 66.999s-20 56.166 -20 89.499c0 37.333 8.66699 70 26 98s46 50 86 66c-32.667 16.667 -56.834 38.334 -72.501 65.001s-23.5 58 -23.5 94c0 32 6 61 18 87s29 48.167 51 66.5s48 32.666 78 42.999s63 15.5 99 15.5c35.333 0 68 -5 98 -15
s56 -24.167 78 -42.5s39.167 -40.666 51.5 -66.999s18.5 -55.5 18.5 -87.5c0 -35.333 -7.83301 -66.333 -23.5 -93s-39.834 -48.667 -72.501 -66zM464 187c0 20 -4.16895 37.1699 -12.502 51.5029s-19.666 26.166 -33.999 35.499s-31 16.166 -50 20.499
s-39.167 6.5 -60.5 6.5c-22 0 -42.667 -2.33301 -62 -7s-36 -11.834 -50 -21.501s-25 -21.5 -33 -35.5s-12 -30.667 -12 -50c0 -20.667 4.33301 -38.167 13 -52.5s20.167 -26 34.5 -35s31 -15.667 50 -20s38.833 -6.5 59.5 -6.5c20 0 39.5 2 58.5 6s35.833 10.667 50.5 20
s26.334 21.333 35.001 36s13 32 13 52zM447.998 514.003c0 18.667 -3.66699 34.999 -11 48.999s-17.333 25.667 -30 35s-27.667 16.333 -45 21s-35.666 7 -54.999 7s-37.666 -2.33301 -54.999 -7s-32.333 -11.667 -45 -21s-22.667 -21.166 -30 -35.499
s-11 -30.833 -11 -49.5c0 -19.333 3.66699 -36 11 -50s17.333 -25.5 30 -34.5s27.667 -15.833 45 -20.5s35.666 -7 54.999 -7s37.666 2.33301 54.999 7s32.333 11.667 45 21s22.667 21 30 35s11 30.667 11 50z" />
    <glyph glyph-name="nine" unicode="9" horiz-adv-x="608" 
d="M112 113c11.333 -6 24.167 -11.1689 38.5 -15.502s29 -8.16602 44 -11.499s29.833 -5.83301 44.5 -7.5s28.334 -2.5 41.001 -2.5c24.667 0 47 3.83301 67 11.5s37.5 20.167 52.5 37.5s27.167 40 36.5 68s15.666 62.333 18.999 103
c-25.333 -11.333 -51.666 -20.166 -78.999 -26.499s-55.666 -9.5 -84.999 -9.5c-34.667 0 -67 4.66699 -97 14s-56 23.5 -78 42.5s-39.333 43 -52 72s-19 63.167 -19 102.5c0 72.667 21.667 129.667 65 171s104 62 182 62c36.667 0 71.5 -5.66699 104.5 -17
s61.833 -30.666 86.5 -57.999s44.167 -64.333 58.5 -111s21.5 -105.334 21.5 -176.001c0 -68 -6.83301 -126.5 -20.5 -175.5s-32.834 -89 -57.501 -120s-54.334 -53.833 -89.001 -68.5s-72.667 -22 -114 -22c-37.333 0 -75.5 5 -114.5 15s-72.833 23.667 -101.5 41z
M456.001 407.998c-2 44 -7.83203 80 -17.499 108s-21.667 50 -36 66s-31 27 -50 33s-39.167 9 -60.5 9c-43.333 0 -77.833 -10.5 -103.5 -31.5s-38.5 -54.5 -38.5 -100.5c0 -47.333 13 -81.166 39 -101.499s60 -30.5 102 -30.5c29.333 0 58.166 4.16699 86.499 12.5
s54.5 20.166 78.5 35.499z" />
    <glyph glyph-name="colon" unicode=":" horiz-adv-x="313" 
d="M126 280c-22 0 -41 8 -57 24s-24 35 -24 57s8 41.167 24 57.5s35 24.5 57 24.5c22.667 0 42 -8 58 -24s24 -35.333 24 -58c0 -22 -8 -41 -24 -57s-35.333 -24 -58 -24zM126 -20c-22 0 -41 8 -57 24s-24 35 -24 57s8 41.167 24 57.5s35 24.5 57 24.5
c22.667 0 42 -8 58 -24s24 -35.333 24 -58c0 -22 -8 -41 -24 -57s-35.333 -24 -58 -24z" />
    <glyph glyph-name="semicolon" unicode=";" horiz-adv-x="313" 
d="M57 -108c32.667 32.667 55.666 61.999 68.999 87.999c-23.333 0.666992 -42.666 8.83398 -57.999 24.501s-23 34.5 -23 56.5s8 41.167 24 57.5s35 24.5 57 24.5c22.667 0 42 -7.83301 58 -23.5s24 -35.167 24 -58.5c0 -40 -9.16699 -77.833 -27.5 -113.5
s-42.833 -68.5 -73.5 -98.5zM125.999 279.999c-22 0 -41 8 -57 24s-24 35 -24 57s8 41.167 24 57.5s35 24.5 57 24.5c22.667 0 42 -8 58 -24s24 -35.333 24 -58c0 -22 -8 -41 -24 -57s-35.333 -24 -58 -24z" />
    <glyph glyph-name="less" unicode="&#x3c;" horiz-adv-x="598" 
d="M50 315v70l473 262v-116l-123.5 -67l-123.5 -66l-99 -48l99 -48l247 -132v-116z" />
    <glyph glyph-name="equal" unicode="=" horiz-adv-x="601" 
d="M75 221v84h451v-84h-451zM75 395v84h451v-84h-451z" />
    <glyph glyph-name="greater" unicode="&#x3e;" horiz-adv-x="598" 
d="M75 54v116l246 132l100 48l-100 48l-123 66l-123 67v116l473 -262v-70z" />
    <glyph glyph-name="question" unicode="?" horiz-adv-x="588" 
d="M256 190l-8.99902 201.996l44 9c14.667 2.66699 30 6.33398 46 11.001s30.5 11.334 43.5 20.001s23.667 19.834 32 33.501s12.5 30.5 12.5 50.5c0 21.333 -4.83301 38.833 -14.5 52.5s-21.834 24.5 -36.501 32.5s-30.834 13.5 -48.501 16.5s-34.834 4.5 -51.501 4.5
c-34 0 -66.333 -5.5 -97 -16.5s-56.667 -25.833 -78 -44.5l-57 83c32 26 68.5 45.833 109.5 59.5s83.167 20.5 126.5 20.5c31.333 0 62 -3.83301 92 -11.5s56.833 -20 80.5 -37s42.834 -38.833 57.501 -65.5s22 -59 22 -97c0 -31.333 -5.16699 -58.333 -15.5 -81
s-24.166 -42.167 -41.499 -58.5s-38 -29.666 -62 -39.999s-49.333 -18.5 -76 -24.5l-4 -119h-75zM291.001 -20.0039c-20 0 -37 7 -51 21s-21 31 -21 51c0 19.333 7 36.166 21 50.499s31 21.5 51 21.5c19.333 0 36.166 -7.16699 50.499 -21.5s21.5 -31.166 21.5 -50.499
c0 -20 -7.16699 -37 -21.5 -51s-31.166 -21 -50.499 -21z" />
    <glyph glyph-name="at" unicode="@" horiz-adv-x="780" 
d="M707 42c-34.667 -18.667 -75.6709 -34.333 -123.004 -47s-101.666 -19 -162.999 -19c-122.667 0 -216 30.167 -280 90.5s-96 156.166 -96 287.499c0 128 30.333 221.667 91 281s149.667 89 267 89c59.333 0 110 -7 152 -21s76.333 -34.5 103 -61.5s46.167 -60 58.5 -99
s18.5 -83.5 18.5 -133.5c0 -46 -4.83301 -84.667 -14.5 -116s-22.167 -56.5 -37.5 -75.5s-33.166 -32.667 -53.499 -41s-40.833 -12.5 -61.5 -12.5c-36.667 0 -67 11.667 -91 35c-26 -23.333 -59 -35 -99 -35c-47.333 0 -85.166 15 -113.499 45s-42.5 76.667 -42.5 140
s14.167 110 42.5 140s66.166 45 113.499 45c21.333 0 40.5 -3.33301 57.5 -10s32.5 -16.667 46.5 -30l10 31h63v-274c12 -4 23.833 -4.5 35.5 -1.5s22.334 10.5 32.001 22.5s17.5 29 23.5 51s9 50 9 84c0 38 -4.33301 72 -13 102s-23 55.167 -43 75.5s-46 35.833 -78 46.5
s-71 16 -117 16c-93.333 0 -163.166 -23.167 -209.499 -69.5s-69.5 -120.5 -69.5 -222.5c0 -105.333 25 -182.166 75 -230.499s124.333 -72.5 223 -72.5c52 0 98.833 5.5 140.5 16.5s77.5 24.833 107.5 41.5zM464.996 415.001c-22.667 22.667 -49 34 -79 34
c-23.333 0 -41.5 -7.83301 -54.5 -23.5s-19.5 -41.167 -19.5 -76.5s6.5 -60.833 19.5 -76.5s31.167 -23.5 54.5 -23.5c30.667 0 57 11.333 79 34v132z" />
    <glyph glyph-name="A" unicode="A" horiz-adv-x="795" 
d="M683 0l-58.0029 140h-315l-58 -140h-111l125 300l125 301h-102c-21.333 0 -39.166 -1.83301 -53.499 -5.5s-26.166 -8.5 -35.499 -14.5c-27.333 -6 -47 -16.833 -59 -32.5s-18 -33.167 -18 -52.5c0 -25.333 8.33301 -47 25 -65s43 -27 79 -27v-99
c-35.333 0 -66.166 5 -92.499 15s-48 23.833 -65 41.5s-29.667 38 -38 61s-12.5 47.5 -12.5 73.5c0 29.333 5 56.5 15 81.5s25.833 46.5 47.5 64.5s49.5 32.167 83.5 42.5s75.333 15.5 124 15.5h214l145.5 -350l146.5 -350h-112zM536.997 354l-39 107l-30 96l-15.5 -48
l-15.5 -48l-39 -107l-47 -115h233z" />
    <glyph glyph-name="B" unicode="B" horiz-adv-x="819" 
d="M289 0l-0.00195312 601.001c-30.667 0 -56.667 -2.83301 -78 -8.5s-38.5 -13.167 -51.5 -22.5s-22.333 -20.333 -28 -33s-8.5 -26.334 -8.5 -41.001c0 -25.333 8.33301 -47 25 -65s43 -27 79 -27v-99c-35.333 0 -66.166 5 -92.499 15s-48 23.833 -65 41.5
s-29.667 38 -38 61s-12.5 47.5 -12.5 73.5c0 29.333 5 56.5 15 81.5s25.833 46.5 47.5 64.5s49.5 32.167 83.5 42.5s75.333 15.5 124 15.5h235c30.667 0 60 -4 88 -12s52.5 -20 73.5 -36s37.667 -36.167 50 -60.5s18.5 -52.833 18.5 -85.5c0 -38 -8.16699 -69.333 -24.5 -94
s-38.166 -44 -65.499 -58c33.333 -12.667 60 -32.167 80 -58.5s30 -60.5 30 -102.5c0 -33.333 -6.16699 -62 -18.5 -86s-29 -44 -50 -60s-45.5 -27.833 -73.5 -35.5s-57.333 -11.5 -88 -11.5h-255zM543.998 100.001c16.667 0 32.668 1.50195 48.001 4.50195
s28.666 8.16699 39.999 15.5s20.333 17.166 27 29.499s10 28.166 10 47.499s-3.5 35.5 -10.5 48.5s-16.167 23.5 -27.5 31.5s-24.5 13.833 -39.5 17.5s-30.833 5.5 -47.5 5.5h-150v-200h150zM523.999 399.003c16.667 0 32.499 1.83398 47.499 5.50098s28.167 9.5 39.5 17.5
s20.5 18.667 27.5 32s10.5 29.666 10.5 48.999c0 18.667 -3.33301 34.167 -10 46.5s-15.667 22.333 -27 30s-24.666 13 -39.999 16s-31.333 4.5 -48 4.5h-130v-201h130z" />
    <glyph glyph-name="C" unicode="C" horiz-adv-x="630" 
d="M591 56c-30 -23.333 -64.168 -42.502 -102.501 -57.502s-81.5 -22.5 -129.5 -22.5c-45.333 0 -87.166 7.5 -125.499 22.5s-71.5 38 -99.5 69s-49.833 70.333 -65.5 118s-23.5 104.167 -23.5 169.5c0 62.667 7.16699 117.167 21.5 163.5s34.333 84.666 60 114.999
s55.834 53 90.501 68s72.667 22.5 114 22.5c36 0 69.833 -6 101.5 -18s59.167 -30 82.5 -54s41.833 -54.5 55.5 -91.5s20.5 -80.5 20.5 -130.5h-105c0 34 -3.83301 63.333 -11.5 88s-18.5 44.834 -32.5 60.501s-30.5 27.334 -49.5 35.001s-39.5 11.5 -61.5 11.5
c-26.667 0 -51 -5.16699 -73 -15.5s-41 -26.333 -57 -48s-28.5 -49.5 -37.5 -83.5s-13.5 -74.667 -13.5 -122c0 -50.667 5 -93.834 15 -129.501s24.333 -64.667 43 -87s40.667 -38.666 66 -48.999s53.666 -15.5 84.999 -15.5c36 0 68.333 5.33301 97 16
s53.667 25.334 75 44.001z" />
    <glyph glyph-name="D" unicode="D" horiz-adv-x="863" 
d="M289 0l-0.000976562 601.001c-30.667 0 -56.667 -2.83301 -78 -8.5s-38.5 -13.167 -51.5 -22.5s-22.333 -20.333 -28 -33s-8.5 -26.334 -8.5 -41.001c0 -25.333 8.33301 -47 25 -65s43 -27 79 -27v-99c-35.333 0 -66.166 5 -92.499 15s-48 23.833 -65 41.5
s-29.667 38 -38 61s-12.5 47.5 -12.5 73.5c0 29.333 5 56.5 15 81.5s25.833 46.5 47.5 64.5s49.5 32.167 83.5 42.5s75.333 15.5 124 15.5h196c48 0 92.333 -7 133 -21s75.834 -35.333 105.501 -64s52.834 -65 69.501 -109s25 -96 25 -156s-8.33301 -112 -25 -156
s-39.834 -80.333 -69.501 -109s-64.834 -50 -105.501 -64s-85 -21 -133 -21h-196zM483.999 99.001c34 0 65 4.66699 93 14s52 24.166 72 44.499s35.667 46.333 47 78s17 69.834 17 114.501s-5.66699 82.834 -17 114.501s-27 57.667 -47 78s-44 35.166 -72 44.499
s-59 14 -93 14h-90v-502h90z" />
    <glyph glyph-name="E" unicode="E" horiz-adv-x="785" 
d="M289 0l-0.000976562 601.001c-30.667 0 -56.667 -2.83301 -78 -8.5s-38.5 -13.167 -51.5 -22.5s-22.333 -20.333 -28 -33s-8.5 -26.334 -8.5 -41.001c0 -25.333 8.33301 -47 25 -65s43 -27 79 -27v-99c-35.333 0 -66.166 5 -92.499 15s-48 23.833 -65 41.5
s-29.667 38 -38 61s-12.5 47.5 -12.5 73.5c0 29.333 5 56.5 15 81.5s25.833 46.5 47.5 64.5s49.5 32.167 83.5 42.5s75.333 15.5 124 15.5h445v-99h-340v-202h290v-99h-290v-201h340v-99h-445z" />
    <glyph glyph-name="F" unicode="F" horiz-adv-x="768" 
d="M289 0l-0.000976562 601.001c-30.667 0 -56.667 -2.83301 -78 -8.5s-38.5 -13.167 -51.5 -22.5s-22.333 -20.333 -28 -33s-8.5 -26.334 -8.5 -41.001c0 -25.333 8.33301 -47 25 -65s43 -27 79 -27v-99c-35.333 0 -66.166 5 -92.499 15s-48 23.833 -65 41.5
s-29.667 38 -38 61s-12.5 47.5 -12.5 73.5c0 29.333 5 56.5 15 81.5s25.833 46.5 47.5 64.5s49.5 32.167 83.5 42.5s75.333 15.5 124 15.5h445v-99h-340v-202h290v-99h-290v-300h-105z" />
    <glyph glyph-name="G" unicode="G" horiz-adv-x="670" 
d="M552 -1l-16 29.998c-25.333 -15.333 -53.833 -28 -85.5 -38s-66.5 -15 -104.5 -15c-43.333 0 -83.5 7.5 -120.5 22.5s-68.833 37.833 -95.5 68.5s-47.5 69.334 -62.5 116.001s-22.5 102 -22.5 166s7.66699 119.667 23 167s36.833 86.333 64.5 117s60.667 53.5 99 68.5
s80.166 22.5 125.499 22.5c48 0 91.667 -7.5 131 -22.5s74 -34.167 104 -57.5l-29.5 -40.5l-28.5 -40.5c-22 19.333 -48.333 34.333 -79 45s-64 16 -100 16c-30.667 0 -58.334 -4.66699 -83.001 -14s-45.667 -24.666 -63 -45.999s-30.666 -49.833 -39.999 -85.5
s-14 -79.5 -14 -131.5c0 -51.333 4.5 -94.333 13.5 -129s21.833 -62.5 38.5 -83.5s36.667 -36 60 -45s49.333 -13.5 78 -13.5c58.667 0 107.334 14.667 146.001 44v180h-143v100h253v-401h-49z" />
    <glyph glyph-name="H" unicode="H" horiz-adv-x="885" 
d="M705 0l-0.000976562 300.001h-311v-300h-105v601c-30.667 0 -56.667 -2.83301 -78 -8.5s-38.5 -13.167 -51.5 -22.5s-22.333 -20.333 -28 -33s-8.5 -26.334 -8.5 -41.001c0 -25.333 8.33301 -47 25 -65s43 -27 79 -27v-99c-35.333 0 -66.166 5 -92.499 15
s-48 23.833 -65 41.5s-29.667 38 -38 61s-12.5 47.5 -12.5 73.5c0 29.333 5 56.5 15 81.5s25.833 46.5 47.5 64.5s49.5 32.167 83.5 42.5s75.333 15.5 124 15.5h105v-301h311v301h105v-700h-105z" />
    <glyph glyph-name="I" unicode="I" horiz-adv-x="469" 
d="M289 0l-0.000976562 601.001c-30.667 0 -56.667 -2.83301 -78 -8.5s-38.5 -13.167 -51.5 -22.5s-22.333 -20.333 -28 -33s-8.5 -26.334 -8.5 -41.001c0 -25.333 8.33301 -47 25 -65s43 -27 79 -27v-99c-35.333 0 -66.166 5 -92.499 15s-48 23.833 -65 41.5
s-29.667 38 -38 61s-12.5 47.5 -12.5 73.5c0 29.333 5 56.5 15 81.5s25.833 46.5 47.5 64.5s49.5 32.167 83.5 42.5s75.333 15.5 124 15.5h105v-700h-105z" />
    <glyph glyph-name="J" unicode="J" horiz-adv-x="463" 
d="M289 601c-30.667 0 -56.666 -2.83105 -77.999 -8.49805s-38.5 -13.167 -51.5 -22.5s-22.333 -20.333 -28 -33s-8.5 -26.334 -8.5 -41.001c0 -25.333 8.33301 -47 25 -65s43 -27 79 -27v-99c-35.333 0 -66.166 5 -92.499 15s-48 23.833 -65 41.5s-29.667 38 -38 61
s-12.5 47.5 -12.5 73.5c0 29.333 5 56.5 15 81.5s25.833 46.5 47.5 64.5s49.5 32.167 83.5 42.5s75.333 15.5 124 15.5h105v-470c0 -41.333 -5.33301 -77.333 -16 -108s-25.334 -56 -44.001 -76s-40.834 -35 -66.501 -45s-53.5 -15 -83.5 -15c-24 0 -46.667 2.33301 -68 7
s-43.333 11 -66 19l20 93c17.333 -6 36.5 -10.667 57.5 -14s38.5 -5 52.5 -5c33.333 0 59.833 11.167 79.5 33.5s29.5 59.166 29.5 110.499v371z" />
    <glyph glyph-name="K" unicode="K" horiz-adv-x="817" 
d="M671 0l-277.001 316.001v-316h-105v601c-30.667 0 -56.667 -2.83301 -78 -8.5s-38.5 -13.167 -51.5 -22.5s-22.333 -20.333 -28 -33s-8.5 -26.334 -8.5 -41.001c0 -25.333 8.33301 -47 25 -65s43 -27 79 -27v-99c-35.333 0 -66.166 5 -92.499 15s-48 23.833 -65 41.5
s-29.667 38 -38 61s-12.5 47.5 -12.5 73.5c0 29.333 5 56.5 15 81.5s25.833 46.5 47.5 64.5s49.5 32.167 83.5 42.5s75.333 15.5 124 15.5h105v-317l277 317h128l-303 -350l303 -350h-128z" />
    <glyph glyph-name="L" unicode="L" horiz-adv-x="701" 
d="M289 0l-0.000976562 601.001c-30.667 0 -56.667 -2.83301 -78 -8.5s-38.5 -13.167 -51.5 -22.5s-22.333 -20.333 -28 -33s-8.5 -26.334 -8.5 -41.001c0 -25.333 8.33301 -47 25 -65s43 -27 79 -27v-99c-35.333 0 -66.166 5 -92.499 15s-48 23.833 -65 41.5
s-29.667 38 -38 61s-12.5 47.5 -12.5 73.5c0 29.333 5 56.5 15 81.5s25.833 46.5 47.5 64.5s49.5 32.167 83.5 42.5s75.333 15.5 124 15.5h105v-601h290v-99h-395z" />
    <glyph glyph-name="M" unicode="M" horiz-adv-x="1034" 
d="M854 0l-0.000976562 474.001l-195 -294h-70l-195 294v-474h-105v601c-30.667 0 -56.667 -2.83301 -78 -8.5s-38.5 -13.167 -51.5 -22.5s-22.333 -20.333 -28 -33s-8.5 -26.334 -8.5 -41.001c0 -25.333 8.33301 -47 25 -65s43 -27 79 -27v-99
c-35.333 0 -66.166 5 -92.499 15s-48 23.833 -65 41.5s-29.667 38 -38 61s-12.5 47.5 -12.5 73.5c0 29.333 5 56.5 15 81.5s25.833 46.5 47.5 64.5s49.5 32.167 83.5 42.5s75.333 15.5 124 15.5h70l265 -398l265 398h70v-700h-105z" />
    <glyph glyph-name="N" unicode="N" horiz-adv-x="885" 
d="M740 0l-346.001 484.001v-484h-105v601c-30.667 0 -56.667 -2.83301 -78 -8.5s-38.5 -13.167 -51.5 -22.5s-22.333 -20.333 -28 -33s-8.5 -26.334 -8.5 -41.001c0 -25.333 8.33301 -47 25 -65s43 -27 79 -27v-99c-35.333 0 -66.166 5 -92.499 15s-48 23.833 -65 41.5
s-29.667 38 -38 61s-12.5 47.5 -12.5 73.5c0 29.333 5 56.5 15 81.5s25.833 46.5 47.5 64.5s49.5 32.167 83.5 42.5s75.333 15.5 124 15.5h70l346 -484v484h105v-700h-70z" />
    <glyph glyph-name="O" unicode="O" horiz-adv-x="700" 
d="M350 625c-29.333 0 -56.166 -5.16699 -80.499 -15.5s-45.333 -26.5 -63 -48.5s-31.5 -50.333 -41.5 -85s-15 -76.667 -15 -126s5 -91.333 15 -126s23.833 -63 41.5 -85s38.667 -38.167 63 -48.5s51.166 -15.5 80.499 -15.5c28.667 0 55.334 5.16699 80.001 15.5
s45.834 26.5 63.501 48.5s31.5 50.333 41.5 85s15 76.667 15 126s-5 91.333 -15 126s-23.833 63 -41.5 85s-38.834 38.167 -63.501 48.5s-51.334 15.5 -80.001 15.5zM350 724c44 0 84.5 -7.5 121.5 -22.5s69.167 -37.833 96.5 -68.5s48.666 -69.5 63.999 -116.5
s23 -102.5 23 -166.5s-7.66699 -119.5 -23 -166.5s-36.666 -85.833 -63.999 -116.5s-59.5 -53.5 -96.5 -68.5s-77.5 -22.5 -121.5 -22.5s-84.5 7.5 -121.5 22.5s-69.167 37.833 -96.5 68.5s-48.666 69.5 -63.999 116.5s-23 102.5 -23 166.5s7.66699 119.5 23 166.5
s36.666 85.833 63.999 116.5s59.5 53.5 96.5 68.5s77.5 22.5 121.5 22.5z" />
    <glyph glyph-name="P" unicode="P" horiz-adv-x="796" 
d="M289 0l-0.000976562 601.001c-30.667 0 -56.667 -2.83301 -78 -8.5s-38.5 -13.167 -51.5 -22.5s-22.333 -20.333 -28 -33s-8.5 -26.334 -8.5 -41.001c0 -25.333 8.33301 -47 25 -65s43 -27 79 -27v-99c-35.333 0 -66.166 5 -92.499 15s-48 23.833 -65 41.5
s-29.667 38 -38 61s-12.5 47.5 -12.5 73.5c0 29.333 5 56.5 15 81.5s25.833 46.5 47.5 64.5s49.5 32.167 83.5 42.5s75.333 15.5 124 15.5h255c30.667 0 60 -4.5 88 -13.5s52.5 -23 73.5 -42s37.667 -43 50 -72s18.5 -63.5 18.5 -103.5s-6 -74.5 -18 -103.5
s-28.5 -52.667 -49.5 -71s-45.333 -32 -73 -41s-57.5 -13.5 -89.5 -13.5h-150v-240h-105zM543.999 339.001c16.667 0 32.667 2.16699 48 6.5s28.666 11.5 39.999 21.5s20.333 23.333 27 40s10 37.334 10 62.001s-3.33301 45.5 -10 62.5s-15.667 30.667 -27 41
s-24.666 17.666 -39.999 21.999s-31.333 6.5 -48 6.5h-150v-262h150z" />
    <glyph glyph-name="Q" unicode="Q" horiz-adv-x="700" 
d="M605 -170c-32 15.333 -62.332 35.832 -90.999 61.499s-53.334 58.5 -74.001 98.5c-27.333 -9.33301 -57.333 -14 -90 -14c-44 0 -84.5 7.5 -121.5 22.5s-69.167 37.833 -96.5 68.5s-48.666 69.5 -63.999 116.5s-23 102.5 -23 166.5s7.66699 119.5 23 166.5
s36.666 85.833 63.999 116.5s59.5 53.5 96.5 68.5s77.5 22.5 121.5 22.5s84.5 -7.5 121.5 -22.5s69.167 -37.833 96.5 -68.5s48.666 -69.5 63.999 -116.5s23 -102.5 23 -166.5c0 -78.667 -11.167 -144.167 -33.5 -196.5s-52.833 -93.166 -91.5 -122.499
c15.333 -28 33.333 -51.333 54 -70s43.334 -33.667 68.001 -45zM350.001 74.999c28.667 0 55.334 5.16699 80.001 15.5s45.834 26.5 63.501 48.5s31.5 50.333 41.5 85s15 76.667 15 126s-5 91.333 -15 126s-23.833 63 -41.5 85s-38.834 38.167 -63.501 48.5
s-51.334 15.5 -80.001 15.5c-29.333 0 -56.166 -5.16699 -80.499 -15.5s-45.333 -26.5 -63 -48.5s-31.5 -50.333 -41.5 -85s-15 -76.667 -15 -126s5 -91.333 15 -126s23.833 -63 41.5 -85s38.667 -38.167 63 -48.5s51.166 -15.5 80.499 -15.5z" />
    <glyph glyph-name="R" unicode="R" horiz-adv-x="814" 
d="M668 0l-151.002 239.999h-123v-240h-105v597c-30.667 0 -56.667 -2.5 -78 -7.5s-38.5 -12 -51.5 -21s-22.333 -19.667 -28 -32s-8.5 -25.833 -8.5 -40.5c0 -24 8.33301 -44.667 25 -62s43 -26 79 -26v-103c-35.333 0 -66.166 5 -92.499 15s-48 23.833 -65 41.5
s-29.667 38 -38 61s-12.5 47.5 -12.5 73.5c0 29.333 5 56.5 15 81.5s25.833 46.5 47.5 64.5s49.5 32.167 83.5 42.5s75.333 15.5 124 15.5h255c30.667 0 60 -4.5 88 -13.5s52.5 -23 73.5 -42s37.667 -43.167 50 -72.5s18.5 -64 18.5 -104
c0 -61.333 -13.667 -109.666 -41 -144.999s-62.666 -59.333 -105.999 -72l160 -251h-119zM543.998 338.999c16.667 0 32.667 2.16699 48 6.5s28.666 11.5 39.999 21.5s20.333 23.333 27 40s10 37.334 10 62.001s-3.33301 45.5 -10 62.5s-15.667 30.667 -27 41
s-24.666 17.666 -39.999 21.999s-31.333 6.5 -48 6.5h-150v-262h150z" />
    <glyph glyph-name="S" unicode="S" horiz-adv-x="593" 
d="M86 143c24 -21.333 54.3301 -37.8311 90.9971 -49.498s73 -17.5 109 -17.5c20.667 0 40.834 2.33301 60.501 7s37 11.667 52 21s27.167 21.5 36.5 36.5s14 32.833 14 53.5c0 18 -3.66699 32.833 -11 44.5s-18 21.167 -32 28.5s-30.833 13.333 -50.5 18
s-41.834 9.66699 -66.501 15c-33.333 6 -64.666 13.167 -93.999 21.5s-54.833 19.666 -76.5 33.999s-38.834 33 -51.501 56s-19 52.167 -19 87.5c0 38 7.16699 71 21.5 99s33.333 51.333 57 70s50.834 32.667 81.501 42s62.334 14 95.001 14c41.333 0 83.333 -7 126 -21
s80 -33.667 112 -59l-58 -83c-22 19.333 -49.167 34.666 -81.5 45.999s-64.5 17 -96.5 17c-19.333 0 -38.166 -2.33301 -56.499 -7s-34.5 -11.834 -48.5 -21.501s-25.333 -21.834 -34 -36.501s-13 -32.334 -13 -53.001c0 -19.333 3.66699 -35 11 -47s17.333 -21.667 30 -29
s27.167 -13.166 43.5 -17.499s33.5 -8.16602 51.5 -11.499c37.333 -7.33301 72.166 -15.166 104.499 -23.499s60.333 -19.833 84 -34.5s42.334 -33.334 56.001 -56.001s20.5 -51.667 20.5 -87c0 -38 -7.5 -71 -22.5 -99s-35 -51.167 -60 -69.5s-53.667 -32.166 -86 -41.499
s-65.833 -14 -100.5 -14c-48 0 -94.5 7.83301 -139.5 23.5s-83.833 36.167 -116.5 61.5z" />
    <glyph glyph-name="T" unicode="T" horiz-adv-x="722" 
d="M405 0l-0.000976562 601.001h-116c-30.667 0 -56.667 -2.83301 -78 -8.5s-38.5 -13.167 -51.5 -22.5s-22.333 -20.333 -28 -33s-8.5 -26.334 -8.5 -41.001c0 -25.333 8.33301 -47 25 -65s43 -27 79 -27v-99c-35.333 0 -66.166 5 -92.499 15s-48 23.833 -65 41.5
s-29.667 38 -38 61s-12.5 47.5 -12.5 73.5c0 29.333 5 56.5 15 81.5s25.833 46.5 47.5 64.5s49.5 32.167 83.5 42.5s75.333 15.5 124 15.5h414v-99h-193v-601h-105z" />
    <glyph glyph-name="U" unicode="U" horiz-adv-x="892" 
d="M718 700l105.003 0.000976562v-467c0 -43.333 -7.5 -81 -22.5 -113s-34.833 -58.667 -59.5 -80s-53 -37.333 -85 -48s-65.333 -16 -100 -16c-34 0 -67.167 5.33301 -99.5 16s-60.833 26.667 -85.5 48s-44.5 48 -59.5 80s-22.5 69.667 -22.5 113v368
c-30.667 0 -56.667 -2.83301 -78 -8.5s-38.5 -13.167 -51.5 -22.5s-22.333 -20.333 -28 -33s-8.5 -26.334 -8.5 -41.001c0 -25.333 8.33301 -47 25 -65s43 -27 79 -27v-99c-35.333 0 -66.166 5 -92.499 15s-48 23.833 -65 41.5s-29.667 38 -38 61s-12.5 47.5 -12.5 73.5
c0 29.333 5 56.5 15 81.5s25.833 46.5 47.5 64.5s49.5 32.167 83.5 42.5s75.333 15.5 124 15.5h105v-472c0 -27.333 4.66699 -50.5 14 -69.5s21.666 -34.833 36.999 -47.5s32.666 -21.834 51.999 -27.501s39 -8.5 59 -8.5s39.667 2.83301 59 8.5
s36.666 14.834 51.999 27.501s27.666 28.5 36.999 47.5s14 42.167 14 69.5v472z" />
    <glyph glyph-name="V" unicode="V" horiz-adv-x="873" 
d="M511 0l-251.003 600c-25.333 -2 -46.666 -6 -63.999 -12s-31.5 -13.667 -42.5 -23s-18.833 -19.833 -23.5 -31.5s-7 -24.167 -7 -37.5c0 -25.333 8.33301 -47 25 -65s43 -27 79 -27v-99c-35.333 0 -66.166 5 -92.499 15s-48 23.833 -65 41.5s-29.667 38 -38 61
s-12.5 47.5 -12.5 73.5c0 29.333 5.16699 56.5 15.5 81.5s26.333 46.5 48 64.5s48.834 32.167 81.501 42.5s71 15.5 115 15.5h51l175 -425l41 -133l41 133l174 425h112l-292 -700h-70z" />
    <glyph glyph-name="W" unicode="W" horiz-adv-x="1039" 
d="M770 0l-106.002 353.001l-32 148l-32 -148l-105 -353h-70l-174 599c-24 -2 -44.167 -6.16699 -60.5 -12.5s-29.5 -14 -39.5 -23s-17.167 -19.333 -21.5 -31s-6.5 -23.834 -6.5 -36.501c0 -25.333 8.33301 -47 25 -65s43 -27 79 -27v-99c-35.333 0 -66.166 5 -92.499 15
s-48 23.833 -65 41.5s-29.667 38 -38 61s-12.5 47.5 -12.5 73.5c0 29.333 5.16699 56.5 15.5 81.5s26.333 46.5 48 64.5s48.834 32.167 81.501 42.5s71 15.5 115 15.5h51l104 -378l27 -138l28 138l108 378h71l108 -378l28 -138l27 138l99 378h108l-198 -700h-70z" />
    <glyph glyph-name="X" unicode="X" horiz-adv-x="781" 
d="M654 0l-176.003 272l-176 -272h-118l235 365l-152 235c-26.667 -1.33301 -49.167 -4.83301 -67.5 -10.5s-33.166 -13.167 -44.499 -22.5s-19.5 -20 -24.5 -32s-7.5 -25 -7.5 -39c0 -25.333 8.33301 -47 25 -65s43 -27 79 -27v-99c-35.333 0 -66.166 5 -92.499 15
s-48 23.833 -65 41.5s-29.667 38 -38 61s-12.5 47.5 -12.5 73.5c0 29.333 5.16699 56.5 15.5 81.5s26.333 46.5 48 64.5s48.834 32.167 81.501 42.5s71 15.5 115 15.5h43l156 -242l156 242h118l-215 -335l235 -365h-118z" />
    <glyph glyph-name="Y" unicode="Y" horiz-adv-x="803" 
d="M454 0l-0.00292969 257l-188 343c-26 -1.33301 -48.167 -5 -66.5 -11s-33.166 -13.667 -44.499 -23s-19.5 -20 -24.5 -32s-7.5 -24.667 -7.5 -38c0 -25.333 8.33301 -47 25 -65s43 -27 79 -27v-99c-35.333 0 -66.166 5 -92.499 15s-48 23.833 -65 41.5s-29.667 38 -38 61
s-12.5 47.5 -12.5 73.5c0 29.333 5.16699 56.5 15.5 81.5s26.333 46.5 48 64.5s48.834 32.167 81.501 42.5s71 15.5 115 15.5h48l180 -337l180 337h116l-244 -443v-257h-105z" />
    <glyph glyph-name="Z" unicode="Z" horiz-adv-x="673" 
d="M24 0l0.00195312 68.998l329 532h-329v99h464v-69l-329 -532h224c30.667 0 56.667 2.66699 78 8s38.666 12.833 51.999 22.5s22.833 20.834 28.5 33.501s8.5 26.334 8.5 41.001c0 24.667 -8.5 46.167 -25.5 64.5s-43.167 27.5 -78.5 27.5v99
c35.333 0 66.166 -5 92.499 -15s48 -23.833 65 -41.5s29.667 -38 38 -61s12.5 -47.5 12.5 -73.5c0 -29.333 -5 -56.5 -15 -81.5s-25.833 -46.5 -47.5 -64.5s-49.667 -32.167 -84 -42.5s-75.833 -15.5 -124.5 -15.5h-359z" />
    <glyph glyph-name="bracketleft" unicode="[" horiz-adv-x="371" 
d="M75 -55v810h245v-99h-140v-612h140v-99h-245z" />
    <glyph glyph-name="backslash" unicode="\" horiz-adv-x="395" 
d="M326 0l-326 700h69l326 -700h-69z" />
    <glyph glyph-name="bracketright" unicode="]" horiz-adv-x="371" 
d="M51 -55v99h140v612h-140v99h245v-810h-245z" />
    <glyph glyph-name="underscore" unicode="_" horiz-adv-x="550" 
d="M0 -183v83h551v-83h-551z" />
    <glyph glyph-name="grave" unicode="`" horiz-adv-x="398" 
d="M301 745l-200 61l45 61l170 -92z" />
    <glyph glyph-name="a" unicode="a" horiz-adv-x="654" 
d="M542 0l-58 140h-315l-58 -140h-111l145.5 350l146.5 350h70l145.5 -350l146.5 -350h-112zM390 368l-33 93l-30 96l-15.5 -48l-15.5 -48l-33 -93l-53 -129h233z" />
    <glyph glyph-name="b" unicode="b" horiz-adv-x="605" 
d="M75 0l-0.000976562 700h235c30.667 0 60 -4 88 -12s52.5 -20 73.5 -36s37.667 -36.167 50 -60.5s18.5 -52.833 18.5 -85.5c0 -38 -8.16699 -69.333 -24.5 -94s-38.166 -44 -65.499 -58c33.333 -12.667 60 -32.167 80 -58.5s30 -60.5 30 -102.5
c0 -33.333 -6.16699 -62 -18.5 -86s-29 -44 -50 -60s-45.5 -27.833 -73.5 -35.5s-57.333 -11.5 -88 -11.5h-255zM329.999 100c16.667 0 32.668 1.50195 48.001 4.50195s28.666 8.16699 39.999 15.5s20.333 17.166 27 29.499s10 28.166 10 47.499s-3.5 35.5 -10.5 48.5
s-16.167 23.5 -27.5 31.5s-24.5 13.833 -39.5 17.5s-30.833 5.5 -47.5 5.5h-150v-200h150zM310 399.002c16.667 0 32.499 1.83398 47.499 5.50098s28.167 9.5 39.5 17.5s20.5 18.667 27.5 32s10.5 29.666 10.5 48.999c0 18.667 -3.33301 34.167 -10 46.5
s-15.667 22.333 -27 30s-24.666 13 -39.999 16s-31.333 4.5 -48 4.5h-130v-201h130z" />
    <glyph glyph-name="c" unicode="c" horiz-adv-x="630" 
d="M591 56c-30 -23.333 -64.168 -42.502 -102.501 -57.502s-81.5 -22.5 -129.5 -22.5c-45.333 0 -87.166 7.5 -125.499 22.5s-71.5 38 -99.5 69s-49.833 70.333 -65.5 118s-23.5 104.167 -23.5 169.5c0 62.667 7.16699 117.167 21.5 163.5s34.333 84.666 60 114.999
s55.834 53 90.501 68s72.667 22.5 114 22.5c36 0 69.833 -6 101.5 -18s59.167 -30 82.5 -54s41.833 -54.5 55.5 -91.5s20.5 -80.5 20.5 -130.5h-105c0 34 -3.83301 63.333 -11.5 88s-18.5 44.834 -32.5 60.501s-30.5 27.334 -49.5 35.001s-39.5 11.5 -61.5 11.5
c-26.667 0 -51 -5.16699 -73 -15.5s-41 -26.333 -57 -48s-28.5 -49.5 -37.5 -83.5s-13.5 -74.667 -13.5 -122c0 -50.667 5 -93.834 15 -129.501s24.333 -64.667 43 -87s40.667 -38.666 66 -48.999s53.666 -15.5 84.999 -15.5c36 0 68.333 5.33301 97 16
s53.667 25.334 75 44.001z" />
    <glyph glyph-name="d" unicode="d" horiz-adv-x="649" 
d="M75 0v700h196c48 0 92.333 -7 133 -21s75.834 -35.333 105.501 -64s52.834 -65 69.501 -109s25 -96 25 -156s-8.33301 -112 -25 -156s-39.834 -80.333 -69.501 -109s-64.834 -50 -105.501 -64s-85 -21 -133 -21h-196zM269 99c34 0 65.167 4.66699 93.5 14
s52.5 24.166 72.5 44.499s35.667 46.333 47 78s17 69.834 17 114.501s-5.66699 82.834 -17 114.501s-27 57.667 -47 78s-44.167 35.166 -72.5 44.499s-59.5 14 -93.5 14h-89v-502h89z" />
    <glyph glyph-name="e" unicode="e" horiz-adv-x="571" 
d="M75 0v700h445v-99h-340v-202h290v-99h-290v-201h340v-99h-445z" />
    <glyph glyph-name="f" unicode="f" horiz-adv-x="554" 
d="M75 0v700h445v-99h-340v-202h290v-99h-290v-300h-105z" />
    <glyph glyph-name="g" unicode="g" horiz-adv-x="670" 
d="M552 -1l-16 29.998c-25.333 -15.333 -53.833 -28 -85.5 -38s-66.5 -15 -104.5 -15c-43.333 0 -83.5 7.5 -120.5 22.5s-68.833 37.833 -95.5 68.5s-47.5 69.334 -62.5 116.001s-22.5 102 -22.5 166s7.66699 119.667 23 167s36.833 86.333 64.5 117s60.667 53.5 99 68.5
s80.166 22.5 125.499 22.5c48 0 91.667 -7.5 131 -22.5s74 -34.167 104 -57.5l-29.5 -40.5l-28.5 -40.5c-22 19.333 -48.333 34.333 -79 45s-64 16 -100 16c-30.667 0 -58.334 -4.66699 -83.001 -14s-45.667 -24.666 -63 -45.999s-30.666 -49.833 -39.999 -85.5
s-14 -79.5 -14 -131.5c0 -51.333 4.5 -94.333 13.5 -129s21.833 -62.5 38.5 -83.5s36.667 -36 60 -45s49.333 -13.5 78 -13.5c58.667 0 107.334 14.667 146.001 44v180h-143v100h253v-401h-49z" />
    <glyph glyph-name="h" unicode="h" horiz-adv-x="671" 
d="M491 0v300h-311v-300h-105v700h105v-301h311v301h105v-700h-105z" />
    <glyph glyph-name="i" unicode="i" horiz-adv-x="255" 
d="M75 0v700h105v-700h-105z" />
    <glyph glyph-name="j" unicode="j" horiz-adv-x="418" 
d="M244 700l105.002 0.000976562v-470c0 -41.333 -5.33301 -77.333 -16 -108s-25.334 -56 -44.001 -76s-40.834 -35 -66.501 -45s-53.5 -15 -83.5 -15c-24 0 -46.667 2.33301 -68 7s-43.333 11 -66 19l20 93c17.333 -6 36.5 -10.667 57.5 -14s38.5 -5 52.5 -5
c32.667 0 59 11.667 79 35s30 59.666 30 108.999v470z" />
    <glyph glyph-name="k" unicode="k" horiz-adv-x="602" 
d="M456 0l-276 316v-316h-105v700h105v-317l276 317h128l-303 -350l303 -350h-128z" />
    <glyph glyph-name="l" unicode="l" horiz-adv-x="487" 
d="M470 0h-395v700h105v-601h290v-99z" />
    <glyph glyph-name="m" unicode="m" horiz-adv-x="820" 
d="M640 0v474l-195 -294h-70l-195 294v-474h-105v700h70l265 -398l265 398h70v-700h-105z" />
    <glyph glyph-name="n" unicode="n" horiz-adv-x="671" 
d="M526 0l-346 484v-484h-105v700h70l346 -484v484h105v-700h-70z" />
    <glyph glyph-name="o" unicode="o" horiz-adv-x="700" 
d="M350 625c-29.333 0 -56.166 -5.16699 -80.499 -15.5s-45.333 -26.5 -63 -48.5s-31.5 -50.333 -41.5 -85s-15 -76.667 -15 -126s5 -91.333 15 -126s23.833 -63 41.5 -85s38.667 -38.167 63 -48.5s51.166 -15.5 80.499 -15.5c28.667 0 55.334 5.16699 80.001 15.5
s45.834 26.5 63.501 48.5s31.5 50.333 41.5 85s15 76.667 15 126s-5 91.333 -15 126s-23.833 63 -41.5 85s-38.834 38.167 -63.501 48.5s-51.334 15.5 -80.001 15.5zM350 724c44 0 84.5 -7.5 121.5 -22.5s69.167 -37.833 96.5 -68.5s48.666 -69.5 63.999 -116.5
s23 -102.5 23 -166.5s-7.66699 -119.5 -23 -166.5s-36.666 -85.833 -63.999 -116.5s-59.5 -53.5 -96.5 -68.5s-77.5 -22.5 -121.5 -22.5s-84.5 7.5 -121.5 22.5s-69.167 37.833 -96.5 68.5s-48.666 69.5 -63.999 116.5s-23 102.5 -23 166.5s7.66699 119.5 23 166.5
s36.666 85.833 63.999 116.5s59.5 53.5 96.5 68.5s77.5 22.5 121.5 22.5z" />
    <glyph glyph-name="p" unicode="p" horiz-adv-x="582" 
d="M75 0v700h255c30.667 0 60 -4.5 88 -13.5s52.5 -23 73.5 -42s37.667 -43 50 -72s18.5 -63.5 18.5 -103.5s-6 -74.5 -18 -103.5s-28.5 -52.667 -49.5 -71s-45.333 -32 -73 -41s-57.5 -13.5 -89.5 -13.5h-150v-240h-105zM330 339c16.667 0 32.5 2.16699 47.5 6.5
s28.333 11.5 40 21.5s20.834 23.333 27.501 40s10 37.334 10 62.001s-3.33301 45.5 -10 62.5s-15.834 30.667 -27.501 41s-25 17.666 -40 21.999s-30.833 6.5 -47.5 6.5h-150v-262h150z" />
    <glyph glyph-name="q" unicode="q" horiz-adv-x="700" 
d="M605 -170c-32 15.333 -62.332 35.832 -90.999 61.499s-53.334 58.5 -74.001 98.5c-27.333 -9.33301 -57.333 -14 -90 -14c-44 0 -84.5 7.5 -121.5 22.5s-69.167 37.833 -96.5 68.5s-48.666 69.5 -63.999 116.5s-23 102.5 -23 166.5s7.66699 119.5 23 166.5
s36.666 85.833 63.999 116.5s59.5 53.5 96.5 68.5s77.5 22.5 121.5 22.5s84.5 -7.5 121.5 -22.5s69.167 -37.833 96.5 -68.5s48.666 -69.5 63.999 -116.5s23 -102.5 23 -166.5c0 -78.667 -11.167 -144.167 -33.5 -196.5s-52.833 -93.166 -91.5 -122.499
c15.333 -28 33.333 -51.333 54 -70s43.334 -33.667 68.001 -45zM350.001 74.999c28.667 0 55.334 5.16699 80.001 15.5s45.834 26.5 63.501 48.5s31.5 50.333 41.5 85s15 76.667 15 126s-5 91.333 -15 126s-23.833 63 -41.5 85s-38.834 38.167 -63.501 48.5
s-51.334 15.5 -80.001 15.5c-29.333 0 -56.166 -5.16699 -80.499 -15.5s-45.333 -26.5 -63 -48.5s-31.5 -50.333 -41.5 -85s-15 -76.667 -15 -126s5 -91.333 15 -126s23.833 -63 41.5 -85s38.667 -38.167 63 -48.5s51.166 -15.5 80.499 -15.5z" />
    <glyph glyph-name="r" unicode="r" horiz-adv-x="601" 
d="M454 0l-150 240h-123v-240h-105v700h255c30.667 0 60 -4.5 88 -13.5s52.5 -23 73.5 -42s37.667 -43 50 -72s18.5 -63.5 18.5 -103.5c0 -30.667 -3.66699 -58.167 -11 -82.5s-17.5 -45.5 -30.5 -63.5s-28.5 -33 -46.5 -45s-37.667 -21 -59 -27l160 -251h-120zM331 339
c16.667 0 32.5 2.16699 47.5 6.5s28.333 11.5 40 21.5s20.834 23.333 27.501 40s10 37.334 10 62.001s-3.33301 45.5 -10 62.5s-15.834 30.667 -27.501 41s-25 17.666 -40 21.999s-30.833 6.5 -47.5 6.5h-150v-262h150z" />
    <glyph glyph-name="s" unicode="s" horiz-adv-x="593" 
d="M86 143c24 -21.333 54.3291 -37.833 90.9961 -49.5s73 -17.5 109 -17.5c20.667 0 40.834 2.16699 60.501 6.5s37 11.333 52 21s27.167 22 36.5 37s14 33.167 14 54.5c0 18.667 -3.66699 33.667 -11 45s-18 20.666 -32 27.999s-30.833 13.166 -50.5 17.499l-66.5 14.5
c-33.333 6 -64.666 13.167 -93.999 21.5s-54.833 19.666 -76.5 33.999s-38.834 32.833 -51.501 55.5s-19 51.667 -19 87c0 38 7.16699 71.167 21.5 99.5s33.333 51.833 57 70.5s50.834 32.667 81.501 42s62.334 14 95.001 14c40 0 80.833 -7 122.5 -21
s78.5 -33.667 110.5 -59l-58 -83c-21.333 19.333 -47.833 34.666 -79.5 45.999s-62.834 17 -93.501 17c-19.333 0 -38.166 -2.33301 -56.499 -7s-34.5 -11.667 -48.5 -21s-25.333 -21.666 -34 -36.999s-13 -33.333 -13 -54c0 -18.667 3.5 -34 10.5 -46
s16.667 -21.667 29 -29s26.833 -13.166 43.5 -17.499s34.334 -8.16602 53.001 -11.499c37.333 -7.33301 72.166 -15.166 104.499 -23.499s60.333 -19.833 84 -34.5s42.334 -33.334 56.001 -56.001s20.5 -51.667 20.5 -87c0 -38 -7.5 -71 -22.5 -99s-35 -51.167 -60 -69.5
s-53.667 -32.166 -86 -41.499s-65.833 -14 -100.5 -14c-48 0 -94.5 7.83301 -139.5 23.5s-83.833 36.167 -116.5 61.5z" />
    <glyph glyph-name="t" unicode="t" horiz-adv-x="528" 
d="M211 0v601h-192v99h490v-99h-193v-601h-105z" />
    <glyph glyph-name="u" unicode="u" horiz-adv-x="672" 
d="M498 700h105.004v-467c0 -43.333 -7.5 -81 -22.5 -113s-34.833 -58.667 -59.5 -80s-53.167 -37.333 -85.5 -48s-65.5 -16 -99.5 -16c-34.667 0 -68 5.33301 -100 16s-60.333 26.667 -85 48s-44.5 48 -59.5 80s-22.5 69.667 -22.5 113v467h105v-472
c0 -27.333 4.66699 -50.5 14 -69.5s21.666 -34.833 36.999 -47.5s32.666 -21.834 51.999 -27.501s39 -8.5 59 -8.5s39.667 2.83301 59 8.5s36.666 14.834 51.999 27.501s27.666 28.5 36.999 47.5s14 42.167 14 69.5v472z" />
    <glyph glyph-name="v" unicode="v" horiz-adv-x="654" 
d="M362 0h-70l-292 700h111l175 -425l41 -133l41 133l174 425h112z" />
    <glyph glyph-name="w" unicode="w" horiz-adv-x="816" 
d="M548 0l-106 353l-32 148l-32 -148l-105 -353h-70l-203 700h108l104 -378l27 -138l28 138l108 378h71l108 -378l28 -138l27 138l99 378h108l-198 -700h-70z" />
    <glyph glyph-name="x" unicode="x" horiz-adv-x="606" 
d="M479 0l-177 272l-175 -272h-118l234 365l-214 335h118l155 -242l157 242h118l-216 -335l236 -365h-118z" />
    <glyph glyph-name="y" unicode="y" horiz-adv-x="592" 
d="M243 0v257l-243 443h116l180 -337l180 337h116l-244 -443v-257h-105z" />
    <glyph glyph-name="z" unicode="z" horiz-adv-x="525" 
d="M24 0v69l329 532h-329v99h464v-69l-329 -532h329v-99h-464z" />
    <glyph glyph-name="braceleft" unicode="{" horiz-adv-x="411" 
d="M336 -55c-34 0 -62.667 5.83398 -86 17.501s-42.5 28.5 -57.5 50.5s-25.833 48.5 -32.5 79.5s-10.334 65.5 -11.001 103.5c0 14 -1.16699 27.833 -3.5 41.5s-6.16602 26 -11.499 37s-12.5 19.833 -21.5 26.5s-20.5 10 -34.5 10h-28v78h28c14 0 25.5 3.33301 34.5 10
s16.167 15.5 21.5 26.5s9.16602 23.333 11.499 37s3.5 27.5 3.5 41.5c0.666992 38 4.33398 72.5 11.001 103.5s17.5 57.5 32.5 79.5s34.167 38.833 57.5 50.5s52 17.5 86 17.5v-99c-19.333 0 -34.333 -3.33301 -45 -10s-18.667 -16.5 -24 -29.5
s-8.66602 -28.833 -9.99902 -47.5s-2.33301 -40 -3 -64c0 -16.667 -1.33301 -33 -4 -49s-7 -31 -13 -45s-14 -26.333 -24 -37s-22.667 -18.667 -38 -24c15.333 -6 28 -14.333 38 -25s18 -22.834 24 -36.501s10.333 -28.5 13 -44.5s4 -32.333 4 -49
c0.666992 -24 1.66699 -45.333 3 -64s4.66602 -34.5 9.99902 -47.5s13.333 -22.833 24 -29.5s25.667 -10 45 -10v-99z" />
    <glyph glyph-name="bar" unicode="|" horiz-adv-x="200" 
d="M65 -150v1000h70v-1000h-70z" />
    <glyph glyph-name="braceright" unicode="}" horiz-adv-x="411" 
d="M75 44c24.667 0 42.3301 6.33203 52.9971 18.999s17.834 28.667 21.501 48s5.5 41 5.5 65s1.83301 47.333 5.5 70s10.834 43.334 21.501 62.001s28.334 32.667 53.001 42c-15.333 5.33301 -28 13.333 -38 24s-17.833 23 -23.5 37s-9.83398 29 -12.501 45s-4 32.333 -4 49
l-2 31c-0.666992 20.667 -2.16699 38.5 -4.5 53.5s-6.5 27.5 -12.5 37.5s-14 17.333 -24 22s-23 7 -39 7v99c33.333 0 61.666 -5.83301 84.999 -17.5s42.5 -28.5 57.5 -50.5s26 -48.5 33 -79.5s10.833 -65.5 11.5 -103.5c0 -34 5.5 -61.667 16.5 -83s29.167 -32 54.5 -32h28
v-78h-28c-14 0 -25.5 -3.33301 -34.5 -10s-16.167 -15.5 -21.5 -26.5s-9.16602 -23.333 -11.499 -37s-3.5 -27.5 -3.5 -41.5c-0.666992 -38 -4.5 -72.5 -11.5 -103.5s-18 -57.5 -33 -79.5s-34.167 -38.833 -57.5 -50.5s-51.666 -17.5 -84.999 -17.5v99z" />
    <glyph glyph-name="exclamdown" unicode="&#xa1;" horiz-adv-x="260" 
d="M195 0h-130l27 510h75zM199 648c0 -20 -7.16699 -36.999 -21.5 -50.999s-31.166 -21 -50.499 -21c-20 0 -37 7.16699 -51 21.5s-21 31.166 -21 50.499s7 36.166 21 50.499s31 21.5 51 21.5c19.333 0 36.166 -7.16699 50.499 -21.5s21.5 -31.166 21.5 -50.499z" />
    <glyph glyph-name="yen" unicode="&#xa5;" horiz-adv-x="592" 
d="M348 106v-106h-105v106h-173v60h173v90h-173v60h140l-210 384h116l180 -337l180 337h116l-212 -384h141v-60h-173v-90h173v-60h-173z" />
    <glyph glyph-name="dieresis" unicode="&#xa8;" horiz-adv-x="390" 
d="M120 740c-13.333 0 -24.167 4.16992 -32.5 12.5029s-12.5 19.166 -12.5 32.499c0 12 4.16699 22.5 12.5 31.5s19.166 13.5 32.499 13.5c12 0 22.5 -4.33301 31.5 -13s13.5 -19.334 13.5 -32.001s-4.16699 -23.334 -12.5 -32.001s-19.166 -13 -32.499 -13z
M269.999 740.003c-13.333 0 -24.1641 4.16992 -32.4971 12.5029s-12.5 19.166 -12.5 32.499c0 12 4.16699 22.5 12.5 31.5s19.166 13.5 32.499 13.5s24.166 -4.33301 32.499 -13s12.5 -19.334 12.5 -32.001s-4.33301 -23.334 -13 -32.001s-19.334 -13 -32.001 -13z" />
    <glyph glyph-name="copyright" unicode="&#xa9;" horiz-adv-x="810" 
d="M569 174c-18 -14.667 -38.5 -26.3311 -61.5 -34.998s-48.833 -13 -77.5 -13c-27.333 0 -52.5 4.5 -75.5 13.5s-43 22.667 -60 41s-30.167 41.833 -39.5 70.5s-14 62.667 -14 102c0 38 4.33301 70.833 13 98.5s20.667 50.5 36 68.5s33.5 31.5 54.5 40.5
s43.833 13.5 68.5 13.5c21.333 0 41.5 -3.5 60.5 -10.5s35.5 -17.833 49.5 -32.5s25.167 -33 33.5 -55s12.5 -48 12.5 -78h-63c0 41.333 -8.83301 71.166 -26.5 89.499s-39.834 27.5 -66.501 27.5c-32 0 -58.167 -12.667 -78.5 -38s-30.5 -66.333 -30.5 -123
c0 -30.667 3 -56.667 9 -78s14.5 -38.833 25.5 -52.5s24.333 -23.5 40 -29.5s32.834 -9 51.501 -9c21.333 0 40.5 3.16699 57.5 9.5s32.167 15.166 45.5 26.499zM405 -19.9971c-52 0 -100 9.66699 -144 29s-82 45.833 -114 79.5s-57 72.834 -75 117.501s-27 92.667 -27 144
c0 50.667 9 98.5 27 143.5s43 84.333 75 118s70 60.167 114 79.5s92 29 144 29s100 -9.66699 144 -29s82 -45.833 114 -79.5s57 -73 75 -118s27 -92.833 27 -143.5c0 -51.333 -9 -99.333 -27 -144s-43 -83.834 -75 -117.501s-70 -60.167 -114 -79.5s-92 -29 -144 -29z
M405 662.003c-46 0 -87.5 -8.16699 -124.5 -24.5s-68.5 -38.666 -94.5 -66.999s-46 -61.5 -60 -99.5s-21 -78.333 -21 -121c0 -43.333 7 -83.833 21 -121.5s34 -70.667 60 -99s57.5 -50.666 94.5 -66.999s78.5 -24.5 124.5 -24.5s87.5 8.16699 124.5 24.5
s68.5 38.666 94.5 66.999s46 61.333 60 99s21 78.167 21 121.5c0 42.667 -7 83 -21 121s-34 71.167 -60 99.5s-57.5 50.666 -94.5 66.999s-78.5 24.5 -124.5 24.5z" />
    <glyph glyph-name="guillemotleft" unicode="&#xab;" horiz-adv-x="548" 
d="M234 602h106l-189 -252l189 -252h-106l-189 252zM411 574h92l-168 -224l168 -224h-92l-169 224z" />
    <glyph glyph-name="registered" unicode="&#xae;" horiz-adv-x="810" 
d="M405 -20c-52 0 -100 9.66699 -144 29s-82 45.833 -114 79.5s-57 72.834 -75 117.501s-27 92.667 -27 144c0 50.667 9 98.5 27 143.5s43 84.333 75 118s70 60.167 114 79.5s92 29 144 29s100 -9.66699 144 -29s82 -45.833 114 -79.5s57 -73 75 -118s27 -92.833 27 -143.5
c0 -51.333 -9 -99.333 -27 -144s-43 -83.834 -75 -117.501s-70 -60.167 -114 -79.5s-92 -29 -144 -29zM405 662c-46 0 -87.5 -8.16699 -124.5 -24.5s-68.5 -38.666 -94.5 -66.999s-46 -61.5 -60 -99.5s-21 -78.333 -21 -121c0 -43.333 7 -83.833 21 -121.5
s34 -70.667 60 -99s57.5 -50.666 94.5 -66.999s78.5 -24.5 124.5 -24.5s87.5 8.16699 124.5 24.5s68.5 38.666 94.5 66.999s46 61.333 60 99s21 78.167 21 121.5c0 42.667 -7 83 -21 121s-34 71.167 -60 99.5s-57.5 50.666 -94.5 66.999s-78.5 24.5 -124.5 24.5zM492 140
l-90.002 143.999h-73v-144h-63v420h153c18.667 0 36.334 -2.66699 53.001 -8s31.334 -13.833 44.001 -25.5s22.667 -26.167 30 -43.5s11 -38 11 -62c0 -36.667 -8.33301 -65.667 -25 -87s-38 -35.666 -64 -42.999l96 -151h-72zM418.998 342.999
c20 0 37.5 5.66797 52.5 17.001s22.5 31.666 22.5 60.999c0 30 -7.5 50.833 -22.5 62.5s-32.5 17.5 -52.5 17.5h-90v-158h90z" />
    <glyph glyph-name="macron" unicode="&#xaf;" horiz-adv-x="406" 
d="M40 755v50h326v-50h-326z" />
    <glyph glyph-name="degree" unicode="&#xb0;" horiz-adv-x="380" 
d="M190 420c-20.667 0 -40.167 3.99902 -58.5 11.999s-34.166 18.667 -47.499 32s-24 29.166 -32 47.499s-12 37.833 -12 58.5s4 40 12 58s18.667 33.833 32 47.5s29.166 24.5 47.499 32.5s37.833 12 58.5 12s40.167 -4 58.5 -12s34.166 -18.667 47.499 -32
s24 -29.166 32 -47.499s12 -37.833 12 -58.5s-4 -40.167 -12 -58.5s-18.667 -34.166 -32 -47.499s-29.166 -24 -47.499 -32s-37.833 -12 -58.5 -12zM190 482.999c12 0 23.167 2.33496 33.5 7.00195s19.333 10.834 27 18.501s13.667 16.834 18 27.501s6.5 22 6.5 34
s-2.16699 23.167 -6.5 33.5s-10.333 19.5 -18 27.5s-16.667 14.333 -27 19s-21.5 7 -33.5 7s-23.167 -2.33301 -33.5 -7s-19.333 -10.834 -27 -18.501s-13.667 -16.834 -18 -27.501s-6.5 -22 -6.5 -34s2.16699 -23.333 6.5 -34s10.333 -19.834 18 -27.501
s16.667 -13.834 27 -18.501s21.5 -7 33.5 -7z" />
    <glyph glyph-name="acute" unicode="&#xb4;" horiz-adv-x="398" 
d="M116 745l-15 30l170 92l45 -61z" />
    <glyph glyph-name="cedilla" unicode="&#xb8;" horiz-adv-x="301" 
d="M94 -134c4 -2 8.66602 -4.83008 13.999 -8.49707s12.333 -5.5 21 -5.5s15.667 2.16699 21 6.5s8 10.166 8 17.499c0 9.33301 -4.5 16 -13.5 20l-28.5 13l-11 5l29 87h47l-15 -53l10 -4c13.333 -5.33301 25 -13.5 35 -24.5s15 -25.833 15 -44.5
c0 -22.667 -7.66699 -39.834 -23 -51.501s-34.666 -17.5 -57.999 -17.5c-17.333 0 -31.333 2.66699 -42 8s-20 10.666 -28 15.999z" />
    <glyph glyph-name="guillemotright" unicode="&#xbb;" horiz-adv-x="548" 
d="M503 350l-189 -252h-106l189 252l-189 252h106zM306 350l-169 -224h-92l168 224l-168 224h92z" />
    <glyph glyph-name="questiondown" unicode="&#xbf;" horiz-adv-x="588" 
d="M353 652c0 -19.333 -7.16699 -36.167 -21.5 -50.5s-31.166 -21.5 -50.499 -21.5c-20 0 -37 7 -51 21s-21 31 -21 51c0 19.333 7 36.166 21 50.499s31 21.5 51 21.5c19.333 0 36.166 -7.16699 50.499 -21.5s21.5 -31.166 21.5 -50.499zM530 59.999
c-32 -26 -68.667 -45.832 -110 -59.499s-83.333 -20.5 -126 -20.5c-31.333 0 -62 3.83301 -92 11.5s-56.833 20 -80.5 37s-42.834 38.833 -57.501 65.5s-22 59 -22 97c0 31.333 5.16699 58.333 15.5 81s24.166 42.167 41.499 58.5s37.833 29.666 61.5 39.999
s48.834 18.5 75.501 24.5l4 119h75l10 -203l-59 -11c-14 -2.66699 -28 -6.5 -42 -11.5s-26.667 -12 -38 -21s-20.666 -20 -27.999 -33s-11 -28.833 -11 -47.5c0 -20.667 4.33301 -37.834 13 -51.501s20 -24.667 34 -33s29.667 -14.166 47 -17.499s35 -5 53 -5
c36 0 69.333 5.66699 100 17s56.667 26.333 78 45z" />
    <glyph glyph-name="Agrave" unicode="&#xc0;" horiz-adv-x="795" 
d="M683 0l-58.0029 140h-315l-58 -140h-111l125 300l125 301h-102c-21.333 0 -39.166 -1.83301 -53.499 -5.5s-26.166 -8.5 -35.499 -14.5c-27.333 -6 -47 -16.833 -59 -32.5s-18 -33.167 -18 -52.5c0 -25.333 8.33301 -47 25 -65s43 -27 79 -27v-99
c-35.333 0 -66.166 5 -92.499 15s-48 23.833 -65 41.5s-29.667 38 -38 61s-12.5 47.5 -12.5 73.5c0 29.333 5 56.5 15 81.5s25.833 46.5 47.5 64.5s49.5 32.167 83.5 42.5s75.333 15.5 124 15.5h214l145.5 -350l146.5 -350h-112zM536.997 354l-39 107l-30 96l-15.5 -48
l-15.5 -48l-39 -107l-47 -115h233zM488.997 745l-200 61l45 61l170 -92z" />
    <glyph glyph-name="Aacute" unicode="&#xc1;" horiz-adv-x="795" 
d="M683 0l-58.0029 140h-315l-58 -140h-111l125 300l125 301h-102c-21.333 0 -39.166 -1.83301 -53.499 -5.5s-26.166 -8.5 -35.499 -14.5c-27.333 -6 -47 -16.833 -59 -32.5s-18 -33.167 -18 -52.5c0 -25.333 8.33301 -47 25 -65s43 -27 79 -27v-99
c-35.333 0 -66.166 5 -92.499 15s-48 23.833 -65 41.5s-29.667 38 -38 61s-12.5 47.5 -12.5 73.5c0 29.333 5 56.5 15 81.5s25.833 46.5 47.5 64.5s49.5 32.167 83.5 42.5s75.333 15.5 124 15.5h214l145.5 -350l146.5 -350h-112zM536.997 354l-39 107l-30 96l-15.5 -48
l-15.5 -48l-39 -107l-47 -115h233zM368.997 745l-15 30l170 92l45 -61z" />
    <glyph glyph-name="Acircumflex" unicode="&#xc2;" horiz-adv-x="795" 
d="M683 0l-58.0029 140h-315l-58 -140h-111l125 300l125 301h-102c-21.333 0 -39.166 -1.83301 -53.499 -5.5s-26.166 -8.5 -35.499 -14.5c-27.333 -6 -47 -16.833 -59 -32.5s-18 -33.167 -18 -52.5c0 -25.333 8.33301 -47 25 -65s43 -27 79 -27v-99
c-35.333 0 -66.166 5 -92.499 15s-48 23.833 -65 41.5s-29.667 38 -38 61s-12.5 47.5 -12.5 73.5c0 29.333 5 56.5 15 81.5s25.833 46.5 47.5 64.5s49.5 32.167 83.5 42.5s75.333 15.5 124 15.5h214l145.5 -350l146.5 -350h-112zM536.997 354l-39 107l-30 96l-15.5 -48
l-15.5 -48l-39 -107l-47 -115h233zM524.997 750l-74 55l-74 -55h-51l85 98h82l85 -98h-53z" />
    <glyph glyph-name="Atilde" unicode="&#xc3;" horiz-adv-x="795" 
d="M683 0l-58.0029 140h-315l-58 -140h-111l125 300l125 301h-102c-21.333 0 -39.166 -1.83301 -53.499 -5.5s-26.166 -8.5 -35.499 -14.5c-27.333 -6 -47 -16.833 -59 -32.5s-18 -33.167 -18 -52.5c0 -25.333 8.33301 -47 25 -65s43 -27 79 -27v-99
c-35.333 0 -66.166 5 -92.499 15s-48 23.833 -65 41.5s-29.667 38 -38 61s-12.5 47.5 -12.5 73.5c0 29.333 5 56.5 15 81.5s25.833 46.5 47.5 64.5s49.5 32.167 83.5 42.5s75.333 15.5 124 15.5h214l145.5 -350l146.5 -350h-112zM536.997 354l-39 107l-30 96l-15.5 -48
l-15.5 -48l-39 -107l-47 -115h233zM591.997 822c-7.33301 -28 -16.499 -48.666 -27.499 -61.999s-26.167 -20 -45.5 -20c-8.66699 0 -17.667 1.5 -27 4.5s-18.333 6.33301 -27 10l-24.5 10c-7.66699 3 -14.5 4.5 -20.5 4.5c-10 0 -17.667 -2.66699 -23 -8
s-10.666 -14.333 -15.999 -27l-39 11c7.33301 28 16.5 48.667 27.5 62s26.167 20 45.5 20c8.66699 0 17.5 -1.5 26.5 -4.5s17.833 -6.33301 26.5 -10s17 -7 25 -10s15 -4.5 21 -4.5c9.33301 0 16.666 2.66699 21.999 8s10.666 14.666 15.999 27.999z" />
    <glyph glyph-name="Adieresis" unicode="&#xc4;" horiz-adv-x="795" 
d="M683 0l-58.0029 140h-315l-58 -140h-111l125 300l125 301h-102c-21.333 0 -39.166 -1.83301 -53.499 -5.5s-26.166 -8.5 -35.499 -14.5c-27.333 -6 -47 -16.833 -59 -32.5s-18 -33.167 -18 -52.5c0 -25.333 8.33301 -47 25 -65s43 -27 79 -27v-99
c-35.333 0 -66.166 5 -92.499 15s-48 23.833 -65 41.5s-29.667 38 -38 61s-12.5 47.5 -12.5 73.5c0 29.333 5 56.5 15 81.5s25.833 46.5 47.5 64.5s49.5 32.167 83.5 42.5s75.333 15.5 124 15.5h214l145.5 -350l146.5 -350h-112zM536.997 354l-39 107l-30 96l-15.5 -48
l-15.5 -48l-39 -107l-47 -115h233zM380.997 740c-13.333 0 -24.167 4.16992 -32.5 12.5029s-12.5 19.166 -12.5 32.499c0 12 4.16699 22.5 12.5 31.5s19.166 13.5 32.499 13.5c12 0 22.5 -4.33301 31.5 -13s13.5 -19.334 13.5 -32.001s-4.16699 -23.334 -12.5 -32.001
s-19.166 -13 -32.499 -13zM530.996 740.003c-13.333 0 -24.1641 4.16992 -32.4971 12.5029s-12.5 19.166 -12.5 32.499c0 12 4.16699 22.5 12.5 31.5s19.166 13.5 32.499 13.5s24.166 -4.33301 32.499 -13s12.5 -19.334 12.5 -32.001s-4.33301 -23.334 -13 -32.001
s-19.334 -13 -32.001 -13z" />
    <glyph glyph-name="Aring" unicode="&#xc5;" horiz-adv-x="795" 
d="M683 0l-58.002 140h-315l-58 -140h-111l125 300l125 301h-102c-21.333 0 -39.166 -1.83301 -53.499 -5.5s-26.166 -8.5 -35.499 -14.5c-27.333 -6 -47 -16.833 -59 -32.5s-18 -33.167 -18 -52.5c0 -25.333 8.33301 -47 25 -65s43 -27 79 -27v-99
c-35.333 0 -66.166 5 -92.499 15s-48 23.833 -65 41.5s-29.667 38 -38 61s-12.5 47.5 -12.5 73.5c0 29.333 5 56.5 15 81.5s25.667 46.5 47 64.5s49.166 32.167 83.499 42.5s75.833 15.5 124.5 15.5h126c-20 16 -30 37.667 -30 65c0 23.333 8 43 24 59s36 24 60 24
c23.333 0 43 -8 59 -24s24 -35.667 24 -59c0 -17.333 -4.16699 -32.5 -12.5 -45.5s-19.5 -22.5 -33.5 -28.5l144.5 -345.5l144.5 -345.5h-112zM536.998 354l-39 107l-30 96l-15.5 -48l-15.5 -48l-39 -107l-47 -115h233zM508.998 765c0 11.333 -3.83301 20.833 -11.5 28.5
s-17.167 11.5 -28.5 11.5s-20.833 -3.83301 -28.5 -11.5s-11.5 -17.167 -11.5 -28.5s3.83301 -20.833 11.5 -28.5s17.167 -11.5 28.5 -11.5s20.833 3.83301 28.5 11.5s11.5 17.167 11.5 28.5z" />
    <glyph glyph-name="AE" unicode="&#xc6;" horiz-adv-x="1025" 
d="M569 0l-0.000976562 140.001h-260l-57 -140h-112l250 601h-101c-30.667 0 -56.667 -2.83301 -78 -8.5s-38.5 -13.167 -51.5 -22.5s-22.333 -20.333 -28 -33s-8.5 -26.334 -8.5 -41.001c0 -25.333 8.33301 -47 25 -65s43 -27 79 -27v-99c-35.333 0 -66.166 5 -92.499 15
s-48 23.833 -65 41.5s-29.667 38 -38 61s-12.5 47.5 -12.5 73.5c0 29.333 5 56.5 15 81.5s25.833 46.5 47.5 64.5s49.5 32.167 83.5 42.5s75.333 15.5 124 15.5h685v-99h-300v-202h250v-99h-250v-201h300v-99h-405zM568.999 601.001h-70l-149 -362h219v362z" />
    <glyph glyph-name="Ccedilla" unicode="&#xc7;" horiz-adv-x="630" 
d="M591 56c-30 -23.333 -64.167 -42.501 -102.5 -57.501s-81.5 -22.5 -129.5 -22.5c-2.66699 0 -5.33398 0.166992 -8.00098 0.5s-5.33398 0.5 -8.00098 0.5l-8 -29l10 -4c13.333 -5.33301 25 -13.5 35 -24.5s15 -25.833 15 -44.5c0 -22.667 -7.66699 -39.834 -23 -51.501
s-34.666 -17.5 -57.999 -17.5c-17.333 0 -31.166 2.66699 -41.499 8s-19.833 10.666 -28.5 15.999l19 36c4 -2 8.66699 -4.83301 14 -8.5s12.333 -5.5 21 -5.5s15.667 2.16699 21 6.5s8 10.166 8 17.499c0 9.33301 -4.5 16 -13.5 20l-28.5 13l-11 5l22 68
c-37.333 6 -71.333 18 -102 36s-57 42.333 -79 73s-39.167 68 -51.5 112s-18.5 95 -18.5 153c0 62.667 7.16699 117 21.5 163s34.333 84.167 60 114.5s56 53 91 68s73.167 22.5 114.5 22.5c35.333 0 68.666 -6 99.999 -18s58.833 -30 82.5 -54s42.334 -54.5 56.001 -91.5
s20.5 -80.5 20.5 -130.5h-105c0 34 -4 63.333 -12 88s-18.833 44.834 -32.5 60.501s-29.834 27.334 -48.501 35.001s-39 11.5 -61 11.5c-27.333 0 -52.166 -5.16699 -74.499 -15.5s-41.5 -26.333 -57.5 -48s-28.333 -49.5 -37 -83.5s-13 -74.667 -13 -122
c0 -51.333 5.16699 -94.666 15.5 -129.999s24.666 -64.333 42.999 -87s40.333 -39 66 -49s53.834 -15 84.501 -15c36 0 68.333 5.33301 97 16s53.667 25.334 75 44.001z" />
    <glyph glyph-name="Egrave" unicode="&#xc8;" horiz-adv-x="785" 
d="M289 0l-0.000976562 601.001c-30.667 0 -56.667 -2.83301 -78 -8.5s-38.5 -13.167 -51.5 -22.5s-22.333 -20.333 -28 -33s-8.5 -26.334 -8.5 -41.001c0 -25.333 8.33301 -47 25 -65s43 -27 79 -27v-99c-35.333 0 -66.166 5 -92.499 15s-48 23.833 -65 41.5
s-29.667 38 -38 61s-12.5 47.5 -12.5 73.5c0 29.333 5 56.5 15 81.5s25.833 46.5 47.5 64.5s49.5 32.167 83.5 42.5s75.333 15.5 124 15.5h445v-99h-340v-202h290v-99h-290v-201h340v-99h-445zM572.999 745.001l-200 61l45 61l170 -92z" />
    <glyph glyph-name="Eacute" unicode="&#xc9;" horiz-adv-x="785" 
d="M289 0l-0.000976562 601.001c-30.667 0 -56.667 -2.83301 -78 -8.5s-38.5 -13.167 -51.5 -22.5s-22.333 -20.333 -28 -33s-8.5 -26.334 -8.5 -41.001c0 -25.333 8.33301 -47 25 -65s43 -27 79 -27v-99c-35.333 0 -66.166 5 -92.499 15s-48 23.833 -65 41.5
s-29.667 38 -38 61s-12.5 47.5 -12.5 73.5c0 29.333 5 56.5 15 81.5s25.833 46.5 47.5 64.5s49.5 32.167 83.5 42.5s75.333 15.5 124 15.5h445v-99h-340v-202h290v-99h-290v-201h340v-99h-445zM423.999 745.001l-15 30l170 92l45 -61z" />
    <glyph glyph-name="Ecircumflex" unicode="&#xca;" horiz-adv-x="785" 
d="M289 0l-0.000976562 601.001c-30.667 0 -56.667 -2.83301 -78 -8.5s-38.5 -13.167 -51.5 -22.5s-22.333 -20.333 -28 -33s-8.5 -26.334 -8.5 -41.001c0 -25.333 8.33301 -47 25 -65s43 -27 79 -27v-99c-35.333 0 -66.166 5 -92.499 15s-48 23.833 -65 41.5
s-29.667 38 -38 61s-12.5 47.5 -12.5 73.5c0 29.333 5 56.5 15 81.5s25.833 46.5 47.5 64.5s49.5 32.167 83.5 42.5s75.333 15.5 124 15.5h445v-99h-340v-202h290v-99h-290v-201h340v-99h-445zM573.999 750.001l-74 55l-74 -55h-51l85 98h82l85 -98h-53z" />
    <glyph glyph-name="Edieresis" unicode="&#xcb;" horiz-adv-x="785" 
d="M289 0l-0.000976562 601.001c-30.667 0 -56.667 -2.83301 -78 -8.5s-38.5 -13.167 -51.5 -22.5s-22.333 -20.333 -28 -33s-8.5 -26.334 -8.5 -41.001c0 -25.333 8.33301 -47 25 -65s43 -27 79 -27v-99c-35.333 0 -66.166 5 -92.499 15s-48 23.833 -65 41.5
s-29.667 38 -38 61s-12.5 47.5 -12.5 73.5c0 29.333 5 56.5 15 81.5s25.833 46.5 47.5 64.5s49.5 32.167 83.5 42.5s75.333 15.5 124 15.5h445v-99h-340v-202h290v-99h-290v-201h340v-99h-445zM456.999 740.001c-13.333 0 -24.167 4.16992 -32.5 12.5029
s-12.5 19.166 -12.5 32.499c0 12 4.16699 22.5 12.5 31.5s19.166 13.5 32.499 13.5c12 0 22.5 -4.33301 31.5 -13s13.5 -19.334 13.5 -32.001s-4.16699 -23.334 -12.5 -32.001s-19.166 -13 -32.499 -13zM606.998 740.004c-13.333 0 -24.1641 4.16992 -32.4971 12.5029
s-12.5 19.166 -12.5 32.499c0 12 4.16699 22.5 12.5 31.5s19.166 13.5 32.499 13.5s24.166 -4.33301 32.499 -13s12.5 -19.334 12.5 -32.001s-4.33301 -23.334 -13 -32.001s-19.334 -13 -32.001 -13z" />
    <glyph glyph-name="Igrave" unicode="&#xcc;" horiz-adv-x="471" 
d="M289 0l-0.000976562 601.001c-30.667 0 -56.667 -2.83301 -78 -8.5s-38.5 -13.167 -51.5 -22.5s-22.333 -20.333 -28 -33s-8.5 -26.334 -8.5 -41.001c0 -25.333 8.33301 -47 25 -65s43 -27 79 -27v-99c-35.333 0 -66.166 5 -92.499 15s-48 23.833 -65 41.5
s-29.667 38 -38 61s-12.5 47.5 -12.5 73.5c0 29.333 5 56.5 15 81.5s25.833 46.5 47.5 64.5s49.5 32.167 83.5 42.5s75.333 15.5 124 15.5h105v-700h-105zM379.999 745.001l-200 61l45 61l170 -92z" />
    <glyph glyph-name="Iacute" unicode="&#xcd;" horiz-adv-x="488" 
d="M289 0l-0.000976562 601.001c-30.667 0 -56.667 -2.83301 -78 -8.5s-38.5 -13.167 -51.5 -22.5s-22.333 -20.333 -28 -33s-8.5 -26.334 -8.5 -41.001c0 -25.333 8.33301 -47 25 -65s43 -27 79 -27v-99c-35.333 0 -66.166 5 -92.499 15s-48 23.833 -65 41.5
s-29.667 38 -38 61s-12.5 47.5 -12.5 73.5c0 29.333 5 56.5 15 81.5s25.833 46.5 47.5 64.5s49.5 32.167 83.5 42.5s75.333 15.5 124 15.5h105v-700h-105zM250.999 745.001l-15 30l170 92l45 -61z" />
    <glyph glyph-name="Icircumflex" unicode="&#xce;" horiz-adv-x="471" 
d="M289 0l-0.000976562 601.001c-30.667 0 -56.667 -2.83301 -78 -8.5s-38.5 -13.167 -51.5 -22.5s-22.333 -20.333 -28 -33s-8.5 -26.334 -8.5 -41.001c0 -25.333 8.33301 -47 25 -65s43 -27 79 -27v-99c-35.333 0 -66.166 5 -92.499 15s-48 23.833 -65 41.5
s-29.667 38 -38 61s-12.5 47.5 -12.5 73.5c0 29.333 5 56.5 15 81.5s25.833 46.5 47.5 64.5s49.5 32.167 83.5 42.5s75.333 15.5 124 15.5h105v-700h-105zM400.999 750.001l-74 55l-74 -55h-51l85 98h82l85 -98h-53z" />
    <glyph glyph-name="Idieresis" unicode="&#xcf;" horiz-adv-x="484" 
d="M289 0l-0.000976562 601.001c-30.667 0 -56.667 -2.83301 -78 -8.5s-38.5 -13.167 -51.5 -22.5s-22.333 -20.333 -28 -33s-8.5 -26.334 -8.5 -41.001c0 -25.333 8.33301 -47 25 -65s43 -27 79 -27v-99c-35.333 0 -66.166 5 -92.499 15s-48 23.833 -65 41.5
s-29.667 38 -38 61s-12.5 47.5 -12.5 73.5c0 29.333 5 56.5 15 81.5s25.833 46.5 47.5 64.5s49.5 32.167 83.5 42.5s75.333 15.5 124 15.5h105v-700h-105zM266.999 740.001c-13.333 0 -24.167 4.16992 -32.5 12.5029s-12.5 19.166 -12.5 32.499c0 12 4.16699 22.5 12.5 31.5
s19.166 13.5 32.499 13.5c12 0 22.5 -4.33301 31.5 -13s13.5 -19.334 13.5 -32.001s-4.16699 -23.334 -12.5 -32.001s-19.166 -13 -32.499 -13zM416.998 740.004c-13.333 0 -24.1641 4.16992 -32.4971 12.5029s-12.5 19.166 -12.5 32.499c0 12 4.16699 22.5 12.5 31.5
s19.166 13.5 32.499 13.5s24.166 -4.33301 32.499 -13s12.5 -19.334 12.5 -32.001s-4.33301 -23.334 -13 -32.001s-19.334 -13 -32.001 -13z" />
    <glyph glyph-name="Eth" unicode="&#xd0;" horiz-adv-x="863" 
d="M289 0l-0.000976562 305h-62c-35.333 0 -66.166 5 -92.499 15s-48 23.833 -65 41.5s-29.667 38 -38 61s-12.5 47.5 -12.5 73.5c0 29.333 5 56.5 15 81.5s25.833 46.5 47.5 64.5s49.5 32.167 83.5 42.5s75.333 15.5 124 15.5h196c48 0 92.333 -7 133 -21
s75.834 -35.333 105.501 -64s52.834 -65 69.501 -109s25 -96 25 -156s-8.33301 -112 -25 -156s-39.834 -80.333 -69.501 -109s-64.834 -50 -105.501 -64s-85 -21 -133 -21h-196zM483.999 99c34 0 65 4.66699 93 14s52 24.166 72 44.499s35.667 46.333 47 78
s17 69.834 17 114.501s-5.66699 82.834 -17 114.501s-27 57.667 -47 78s-44 35.166 -72 44.499s-59 14 -93 14h-90v-197h166v-99h-166v-206h90zM288.999 601c-30.667 0 -56.667 -2.83203 -78 -8.49902s-38.5 -13.167 -51.5 -22.5s-22.333 -20.333 -28 -33
s-8.5 -26.334 -8.5 -41.001c0 -25.333 8.33301 -47 25 -65s43 -27 79 -27h62v197z" />
    <glyph glyph-name="Ntilde" unicode="&#xd1;" horiz-adv-x="885" 
d="M740 0l-346.001 484.001v-484h-105v601c-30.667 0 -56.667 -2.83301 -78 -8.5s-38.5 -13.167 -51.5 -22.5s-22.333 -20.333 -28 -33s-8.5 -26.334 -8.5 -41.001c0 -25.333 8.33301 -47 25 -65s43 -27 79 -27v-99c-35.333 0 -66.166 5 -92.499 15s-48 23.833 -65 41.5
s-29.667 38 -38 61s-12.5 47.5 -12.5 73.5c0 29.333 5 56.5 15 81.5s25.833 46.5 47.5 64.5s49.5 32.167 83.5 42.5s75.333 15.5 124 15.5h70l346 -484v484h105v-700h-70zM676.999 822.001c-7.33301 -28 -16.499 -48.666 -27.499 -61.999s-26.167 -20 -45.5 -20
c-8.66699 0 -17.667 1.5 -27 4.5s-18.333 6.33301 -27 10l-24.5 10c-7.66699 3 -14.5 4.5 -20.5 4.5c-10 0 -17.667 -2.66699 -23 -8s-10.666 -14.333 -15.999 -27l-39 11c7.33301 28 16.5 48.667 27.5 62s26.167 20 45.5 20c8.66699 0 17.5 -1.5 26.5 -4.5
s17.833 -6.33301 26.5 -10s17 -7 25 -10s15 -4.5 21 -4.5c9.33301 0 16.666 2.66699 21.999 8s10.666 14.666 15.999 27.999z" />
    <glyph glyph-name="Ograve" unicode="&#xd2;" horiz-adv-x="700" 
d="M350 625c-29.333 0 -56.166 -5.16699 -80.499 -15.5s-45.333 -26.5 -63 -48.5s-31.5 -50.333 -41.5 -85s-15 -76.667 -15 -126s5 -91.333 15 -126s23.833 -63 41.5 -85s38.667 -38.167 63 -48.5s51.166 -15.5 80.499 -15.5c28.667 0 55.334 5.16699 80.001 15.5
s45.834 26.5 63.501 48.5s31.5 50.333 41.5 85s15 76.667 15 126s-5 91.333 -15 126s-23.833 63 -41.5 85s-38.834 38.167 -63.501 48.5s-51.334 15.5 -80.001 15.5zM350 724c44 0 84.5 -7.5 121.5 -22.5s69.167 -37.833 96.5 -68.5s48.666 -69.5 63.999 -116.5
s23 -102.5 23 -166.5s-7.66699 -119.5 -23 -166.5s-36.666 -85.833 -63.999 -116.5s-59.5 -53.5 -96.5 -68.5s-77.5 -22.5 -121.5 -22.5s-84.5 7.5 -121.5 22.5s-69.167 37.833 -96.5 68.5s-48.666 69.5 -63.999 116.5s-23 102.5 -23 166.5s7.66699 119.5 23 166.5
s36.666 85.833 63.999 116.5s59.5 53.5 96.5 68.5s77.5 22.5 121.5 22.5zM442 745l-200 61l45 61l170 -92z" />
    <glyph glyph-name="Oacute" unicode="&#xd3;" horiz-adv-x="700" 
d="M350 625c-29.333 0 -56.166 -5.16699 -80.499 -15.5s-45.333 -26.5 -63 -48.5s-31.5 -50.333 -41.5 -85s-15 -76.667 -15 -126s5 -91.333 15 -126s23.833 -63 41.5 -85s38.667 -38.167 63 -48.5s51.166 -15.5 80.499 -15.5c28.667 0 55.334 5.16699 80.001 15.5
s45.834 26.5 63.501 48.5s31.5 50.333 41.5 85s15 76.667 15 126s-5 91.333 -15 126s-23.833 63 -41.5 85s-38.834 38.167 -63.501 48.5s-51.334 15.5 -80.001 15.5zM350 724c44 0 84.5 -7.5 121.5 -22.5s69.167 -37.833 96.5 -68.5s48.666 -69.5 63.999 -116.5
s23 -102.5 23 -166.5s-7.66699 -119.5 -23 -166.5s-36.666 -85.833 -63.999 -116.5s-59.5 -53.5 -96.5 -68.5s-77.5 -22.5 -121.5 -22.5s-84.5 7.5 -121.5 22.5s-69.167 37.833 -96.5 68.5s-48.666 69.5 -63.999 116.5s-23 102.5 -23 166.5s7.66699 119.5 23 166.5
s36.666 85.833 63.999 116.5s59.5 53.5 96.5 68.5s77.5 22.5 121.5 22.5zM257 745l-15 30l170 92l45 -61z" />
    <glyph glyph-name="Ocircumflex" unicode="&#xd4;" horiz-adv-x="700" 
d="M350 625c-29.333 0 -56.166 -5.16699 -80.499 -15.5s-45.333 -26.5 -63 -48.5s-31.5 -50.333 -41.5 -85s-15 -76.667 -15 -126s5 -91.333 15 -126s23.833 -63 41.5 -85s38.667 -38.167 63 -48.5s51.166 -15.5 80.499 -15.5c28.667 0 55.334 5.16699 80.001 15.5
s45.834 26.5 63.501 48.5s31.5 50.333 41.5 85s15 76.667 15 126s-5 91.333 -15 126s-23.833 63 -41.5 85s-38.834 38.167 -63.501 48.5s-51.334 15.5 -80.001 15.5zM350 724c44 0 84.5 -7.5 121.5 -22.5s69.167 -37.833 96.5 -68.5s48.666 -69.5 63.999 -116.5
s23 -102.5 23 -166.5s-7.66699 -119.5 -23 -166.5s-36.666 -85.833 -63.999 -116.5s-59.5 -53.5 -96.5 -68.5s-77.5 -22.5 -121.5 -22.5s-84.5 7.5 -121.5 22.5s-69.167 37.833 -96.5 68.5s-48.666 69.5 -63.999 116.5s-23 102.5 -23 166.5s7.66699 119.5 23 166.5
s36.666 85.833 63.999 116.5s59.5 53.5 96.5 68.5s77.5 22.5 121.5 22.5zM408 750l-74 55l-74 -55h-51l85 98h82l85 -98h-53z" />
    <glyph glyph-name="Otilde" unicode="&#xd5;" horiz-adv-x="700" 
d="M350 625c-29.333 0 -56.166 -5.16699 -80.499 -15.5s-45.333 -26.5 -63 -48.5s-31.5 -50.333 -41.5 -85s-15 -76.667 -15 -126s5 -91.333 15 -126s23.833 -63 41.5 -85s38.667 -38.167 63 -48.5s51.166 -15.5 80.499 -15.5c28.667 0 55.334 5.16699 80.001 15.5
s45.834 26.5 63.501 48.5s31.5 50.333 41.5 85s15 76.667 15 126s-5 91.333 -15 126s-23.833 63 -41.5 85s-38.834 38.167 -63.501 48.5s-51.334 15.5 -80.001 15.5zM350 724c44 0 84.5 -7.5 121.5 -22.5s69.167 -37.833 96.5 -68.5s48.666 -69.5 63.999 -116.5
s23 -102.5 23 -166.5s-7.66699 -119.5 -23 -166.5s-36.666 -85.833 -63.999 -116.5s-59.5 -53.5 -96.5 -68.5s-77.5 -22.5 -121.5 -22.5s-84.5 7.5 -121.5 22.5s-69.167 37.833 -96.5 68.5s-48.666 69.5 -63.999 116.5s-23 102.5 -23 166.5s7.66699 119.5 23 166.5
s36.666 85.833 63.999 116.5s59.5 53.5 96.5 68.5s77.5 22.5 121.5 22.5zM475 822c-7.33301 -28 -16.499 -48.666 -27.499 -61.999s-26.167 -20 -45.5 -20c-8.66699 0 -17.667 1.5 -27 4.5s-18.333 6.33301 -27 10l-24.5 10c-7.66699 3 -14.5 4.5 -20.5 4.5
c-10 0 -17.667 -2.66699 -23 -8s-10.666 -14.333 -15.999 -27l-39 11c7.33301 28 16.5 48.667 27.5 62s26.167 20 45.5 20c8.66699 0 17.5 -1.5 26.5 -4.5s17.833 -6.33301 26.5 -10s17 -7 25 -10s15 -4.5 21 -4.5c9.33301 0 16.666 2.66699 21.999 8
s10.666 14.666 15.999 27.999z" />
    <glyph glyph-name="Odieresis" unicode="&#xd6;" horiz-adv-x="700" 
d="M350 625c-29.333 0 -56.166 -5.16699 -80.499 -15.5s-45.333 -26.5 -63 -48.5s-31.5 -50.333 -41.5 -85s-15 -76.667 -15 -126s5 -91.333 15 -126s23.833 -63 41.5 -85s38.667 -38.167 63 -48.5s51.166 -15.5 80.499 -15.5c28.667 0 55.334 5.16699 80.001 15.5
s45.834 26.5 63.501 48.5s31.5 50.333 41.5 85s15 76.667 15 126s-5 91.333 -15 126s-23.833 63 -41.5 85s-38.834 38.167 -63.501 48.5s-51.334 15.5 -80.001 15.5zM350 724c44 0 84.5 -7.5 121.5 -22.5s69.167 -37.833 96.5 -68.5s48.666 -69.5 63.999 -116.5
s23 -102.5 23 -166.5s-7.66699 -119.5 -23 -166.5s-36.666 -85.833 -63.999 -116.5s-59.5 -53.5 -96.5 -68.5s-77.5 -22.5 -121.5 -22.5s-84.5 7.5 -121.5 22.5s-69.167 37.833 -96.5 68.5s-48.666 69.5 -63.999 116.5s-23 102.5 -23 166.5s7.66699 119.5 23 166.5
s36.666 85.833 63.999 116.5s59.5 53.5 96.5 68.5s77.5 22.5 121.5 22.5zM275 740c-13.333 0 -24.167 4.16992 -32.5 12.5029s-12.5 19.166 -12.5 32.499c0 12 4.16699 22.5 12.5 31.5s19.166 13.5 32.499 13.5c12 0 22.5 -4.33301 31.5 -13s13.5 -19.334 13.5 -32.001
s-4.16699 -23.334 -12.5 -32.001s-19.166 -13 -32.499 -13zM424.999 740.003c-13.333 0 -24.1641 4.16992 -32.4971 12.5029s-12.5 19.166 -12.5 32.499c0 12 4.16699 22.5 12.5 31.5s19.166 13.5 32.499 13.5s24.166 -4.33301 32.499 -13s12.5 -19.334 12.5 -32.001
s-4.33301 -23.334 -13 -32.001s-19.334 -13 -32.001 -13z" />
    <glyph glyph-name="multiply" unicode="&#xd7;" horiz-adv-x="669" 
d="M332 280l-159 -159l-68 68l159 159l-160 161l70 70l160 -161l160 161l69 -69l-161 -160l162 -161l-70 -70z" />
    <glyph glyph-name="Oslash" unicode="&#xd8;" horiz-adv-x="695" 
d="M18 39l71 84.999c-15.333 29.333 -27 62.5 -35 99.5s-12 79.167 -12 126.5c0 64 7.66699 119.5 23 166.5s36.666 85.833 63.999 116.5s59.5 53.5 96.5 68.5s77.5 22.5 121.5 22.5c36.667 0 71 -5.5 103 -16.5s60.667 -27.833 86 -50.5l60 71l81 -67l-72 -86
c15.333 -29.333 27 -62.666 35 -99.999s12 -79 12 -125c0 -64 -7.66699 -119.5 -23 -166.5s-36.666 -85.833 -63.999 -116.5s-59.5 -53.5 -96.5 -68.5s-77.5 -22.5 -121.5 -22.5c-37.333 0 -72 5.5 -104 16.5s-60.667 27.5 -86 49.5l-59 -71zM347 74.999
c29.333 0 56.166 5.16699 80.499 15.5s45.333 26.5 63 48.5s31.5 50.333 41.5 85s15 76.667 15 126s-5 91.333 -15 126s-23.833 63 -41.5 85s-38.667 38.167 -63 48.5s-51.166 15.5 -80.499 15.5s-56.166 -5.16699 -80.499 -15.5s-45.333 -26.5 -63 -48.5
s-31.5 -50.333 -41.5 -85s-15 -76.667 -15 -126s5 -91.333 15 -126s23.833 -63 41.5 -85s38.667 -38.167 63 -48.5s51.166 -15.5 80.499 -15.5z" />
    <glyph glyph-name="Ugrave" unicode="&#xd9;" horiz-adv-x="892" 
d="M718 700l105.003 0.000976562v-467c0 -43.333 -7.5 -81 -22.5 -113s-34.833 -58.667 -59.5 -80s-53 -37.333 -85 -48s-65.333 -16 -100 -16c-34 0 -67.167 5.33301 -99.5 16s-60.833 26.667 -85.5 48s-44.5 48 -59.5 80s-22.5 69.667 -22.5 113v368
c-30.667 0 -56.667 -2.83301 -78 -8.5s-38.5 -13.167 -51.5 -22.5s-22.333 -20.333 -28 -33s-8.5 -26.334 -8.5 -41.001c0 -25.333 8.33301 -47 25 -65s43 -27 79 -27v-99c-35.333 0 -66.166 5 -92.499 15s-48 23.833 -65 41.5s-29.667 38 -38 61s-12.5 47.5 -12.5 73.5
c0 29.333 5 56.5 15 81.5s25.833 46.5 47.5 64.5s49.5 32.167 83.5 42.5s75.333 15.5 124 15.5h105v-472c0 -27.333 4.66699 -50.5 14 -69.5s21.666 -34.833 36.999 -47.5s32.666 -21.834 51.999 -27.501s39 -8.5 59 -8.5s39.667 2.83301 59 8.5
s36.666 14.834 51.999 27.501s27.666 28.5 36.999 47.5s14 42.167 14 69.5v472zM585.003 745.001l-200 61l45 61l170 -92z" />
    <glyph glyph-name="Uacute" unicode="&#xda;" horiz-adv-x="892" 
d="M718 700l105.003 0.000976562v-467c0 -43.333 -7.5 -81 -22.5 -113s-34.833 -58.667 -59.5 -80s-53 -37.333 -85 -48s-65.333 -16 -100 -16c-34 0 -67.167 5.33301 -99.5 16s-60.833 26.667 -85.5 48s-44.5 48 -59.5 80s-22.5 69.667 -22.5 113v368
c-30.667 0 -56.667 -2.83301 -78 -8.5s-38.5 -13.167 -51.5 -22.5s-22.333 -20.333 -28 -33s-8.5 -26.334 -8.5 -41.001c0 -25.333 8.33301 -47 25 -65s43 -27 79 -27v-99c-35.333 0 -66.166 5 -92.499 15s-48 23.833 -65 41.5s-29.667 38 -38 61s-12.5 47.5 -12.5 73.5
c0 29.333 5 56.5 15 81.5s25.833 46.5 47.5 64.5s49.5 32.167 83.5 42.5s75.333 15.5 124 15.5h105v-472c0 -27.333 4.66699 -50.5 14 -69.5s21.666 -34.833 36.999 -47.5s32.666 -21.834 51.999 -27.501s39 -8.5 59 -8.5s39.667 2.83301 59 8.5
s36.666 14.834 51.999 27.501s27.666 28.5 36.999 47.5s14 42.167 14 69.5v472zM485.003 745.001l-15 30l170 92l45 -61z" />
    <glyph glyph-name="Ucircumflex" unicode="&#xdb;" horiz-adv-x="892" 
d="M718 700l105.003 0.000976562v-467c0 -43.333 -7.5 -81 -22.5 -113s-34.833 -58.667 -59.5 -80s-53 -37.333 -85 -48s-65.333 -16 -100 -16c-34 0 -67.167 5.33301 -99.5 16s-60.833 26.667 -85.5 48s-44.5 48 -59.5 80s-22.5 69.667 -22.5 113v368
c-30.667 0 -56.667 -2.83301 -78 -8.5s-38.5 -13.167 -51.5 -22.5s-22.333 -20.333 -28 -33s-8.5 -26.334 -8.5 -41.001c0 -25.333 8.33301 -47 25 -65s43 -27 79 -27v-99c-35.333 0 -66.166 5 -92.499 15s-48 23.833 -65 41.5s-29.667 38 -38 61s-12.5 47.5 -12.5 73.5
c0 29.333 5 56.5 15 81.5s25.833 46.5 47.5 64.5s49.5 32.167 83.5 42.5s75.333 15.5 124 15.5h105v-472c0 -27.333 4.66699 -50.5 14 -69.5s21.666 -34.833 36.999 -47.5s32.666 -21.834 51.999 -27.501s39 -8.5 59 -8.5s39.667 2.83301 59 8.5
s36.666 14.834 51.999 27.501s27.666 28.5 36.999 47.5s14 42.167 14 69.5v472zM617.003 750.001l-74 55l-74 -55h-51l85 98h82l85 -98h-53z" />
    <glyph glyph-name="Udieresis" unicode="&#xdc;" horiz-adv-x="892" 
d="M718 700l105.003 0.000976562v-467c0 -43.333 -7.5 -81 -22.5 -113s-34.833 -58.667 -59.5 -80s-53 -37.333 -85 -48s-65.333 -16 -100 -16c-34 0 -67.167 5.33301 -99.5 16s-60.833 26.667 -85.5 48s-44.5 48 -59.5 80s-22.5 69.667 -22.5 113v368
c-30.667 0 -56.667 -2.83301 -78 -8.5s-38.5 -13.167 -51.5 -22.5s-22.333 -20.333 -28 -33s-8.5 -26.334 -8.5 -41.001c0 -25.333 8.33301 -47 25 -65s43 -27 79 -27v-99c-35.333 0 -66.166 5 -92.499 15s-48 23.833 -65 41.5s-29.667 38 -38 61s-12.5 47.5 -12.5 73.5
c0 29.333 5 56.5 15 81.5s25.833 46.5 47.5 64.5s49.5 32.167 83.5 42.5s75.333 15.5 124 15.5h105v-472c0 -27.333 4.66699 -50.5 14 -69.5s21.666 -34.833 36.999 -47.5s32.666 -21.834 51.999 -27.501s39 -8.5 59 -8.5s39.667 2.83301 59 8.5
s36.666 14.834 51.999 27.501s27.666 28.5 36.999 47.5s14 42.167 14 69.5v472zM486.003 740.001c-13.333 0 -24.167 4.16992 -32.5 12.5029s-12.5 19.166 -12.5 32.499c0 12 4.16699 22.5 12.5 31.5s19.166 13.5 32.499 13.5c12 0 22.5 -4.33301 31.5 -13
s13.5 -19.334 13.5 -32.001s-4.16699 -23.334 -12.5 -32.001s-19.166 -13 -32.499 -13zM636.002 740.004c-13.333 0 -24.1641 4.16992 -32.4971 12.5029s-12.5 19.166 -12.5 32.499c0 12 4.16699 22.5 12.5 31.5s19.166 13.5 32.499 13.5s24.166 -4.33301 32.499 -13
s12.5 -19.334 12.5 -32.001s-4.33301 -23.334 -13 -32.001s-19.334 -13 -32.001 -13z" />
    <glyph glyph-name="Yacute" unicode="&#xdd;" horiz-adv-x="803" 
d="M454 0l-0.00292969 257l-188 343c-26 -1.33301 -48.167 -5 -66.5 -11s-33.166 -13.667 -44.499 -23s-19.5 -20 -24.5 -32s-7.5 -24.667 -7.5 -38c0 -25.333 8.33301 -47 25 -65s43 -27 79 -27v-99c-35.333 0 -66.166 5 -92.499 15s-48 23.833 -65 41.5s-29.667 38 -38 61
s-12.5 47.5 -12.5 73.5c0 29.333 5.16699 56.5 15.5 81.5s26.333 46.5 48 64.5s48.834 32.167 81.501 42.5s71 15.5 115 15.5h48l180 -337l180 337h116l-244 -443v-257h-105zM413.997 745l-15 30l170 92l45 -61z" />
    <glyph glyph-name="Thorn" unicode="&#xde;" horiz-adv-x="582" 
d="M180 120v-120h-105v700h105v-120h150c30.667 0 60 -4.5 88 -13.5s52.5 -23 73.5 -42s37.667 -43 50 -72s18.5 -63.5 18.5 -103.5s-6 -74.5 -18 -103.5s-28.5 -52.667 -49.5 -71s-45.333 -32 -73 -41s-57.5 -13.5 -89.5 -13.5h-150zM330 219
c16.667 0 32.5 2.16699 47.5 6.5s28.333 11.5 40 21.5s20.834 23.333 27.501 40s10 37.334 10 62.001s-3.33301 45.5 -10 62.5s-15.834 30.667 -27.501 41s-25 17.666 -40 21.999s-30.833 6.5 -47.5 6.5h-150v-262h150z" />
    <glyph glyph-name="germandbls" unicode="&#xdf;" horiz-adv-x="604" 
d="M284 0v100.002h39c39.333 0 71 9.66699 95 29s36 50 36 92c0 38.667 -10.5 66.5 -31.5 83.5s-50.5 25.5 -88.5 25.5h-50v100h33c27.333 0 49.333 7.5 66 22.5s25 38.167 25 69.5c0 18.667 -3 34.5 -9 47.5s-14 23.5 -24 31.5s-21.667 13.833 -35 17.5
s-27.333 5.5 -42 5.5c-37.333 0 -66.333 -12.833 -87 -38.5s-31 -69.167 -31 -130.5v-455h-105v455c0 46 5.33301 85.833 16 119.5s25.834 61.5 45.501 83.5s43 38.5 70 49.5s57.167 16.5 90.5 16.5c30.667 0 59.167 -4.5 85.5 -13.5s49.166 -22.167 68.499 -39.5
s34.5 -38.5 45.5 -63.5s16.5 -53.5 16.5 -85.5s-5.5 -59 -16.5 -81s-26.5 -39.667 -46.5 -53c37.333 -13.333 64.833 -34 82.5 -62s26.5 -63 26.5 -105c0 -35.333 -6 -66.833 -18 -94.5s-28.5 -50.834 -49.5 -69.501s-46.167 -32.834 -75.5 -42.501s-61 -14.5 -95 -14.5h-37
z" />
    <glyph glyph-name="agrave" unicode="&#xe0;" horiz-adv-x="654" 
d="M542 0l-58 140h-315l-58 -140h-111l145.5 350l146.5 350h70l145.5 -350l146.5 -350h-112zM390 368l-33 93l-30 96l-15.5 -48l-15.5 -48l-33 -93l-53 -129h233zM435 745l-200 61l45 61l170 -92z" />
    <glyph glyph-name="aacute" unicode="&#xe1;" horiz-adv-x="654" 
d="M542 0l-58 140h-315l-58 -140h-111l145.5 350l146.5 350h70l145.5 -350l146.5 -350h-112zM390 368l-33 93l-30 96l-15.5 -48l-15.5 -48l-33 -93l-53 -129h233zM250 745l-15 30l170 92l45 -61z" />
    <glyph glyph-name="acircumflex" unicode="&#xe2;" horiz-adv-x="654" 
d="M542 0l-58 140h-315l-58 -140h-111l145.5 350l146.5 350h70l145.5 -350l146.5 -350h-112zM390 368l-33 93l-30 96l-15.5 -48l-15.5 -48l-33 -93l-53 -129h233zM385 750l-74 55l-74 -55h-51l85 98h82l85 -98h-53z" />
    <glyph glyph-name="atilde" unicode="&#xe3;" horiz-adv-x="654" 
d="M542 0l-58 140h-315l-58 -140h-111l145.5 350l146.5 350h70l145.5 -350l146.5 -350h-112zM390 368l-33 93l-30 96l-15.5 -48l-15.5 -48l-33 -93l-53 -129h233zM452 822c-7.33301 -28 -16.499 -48.666 -27.499 -61.999s-26.167 -20 -45.5 -20
c-8.66699 0 -17.667 1.5 -27 4.5s-18.333 6.33301 -27 10l-24.5 10c-7.66699 3 -14.5 4.5 -20.5 4.5c-10 0 -17.667 -2.66699 -23 -8s-10.666 -14.333 -15.999 -27l-39 11c7.33301 28 16.5 48.667 27.5 62s26.167 20 45.5 20c8.66699 0 17.5 -1.5 26.5 -4.5
s17.833 -6.33301 26.5 -10s17 -7 25 -10s15 -4.5 21 -4.5c9.33301 0 16.666 2.66699 21.999 8s10.666 14.666 15.999 27.999z" />
    <glyph glyph-name="adieresis" unicode="&#xe4;" horiz-adv-x="654" 
d="M542 0l-58 140h-315l-58 -140h-111l145.5 350l146.5 350h70l145.5 -350l146.5 -350h-112zM390 368l-33 93l-30 96l-15.5 -48l-15.5 -48l-33 -93l-53 -129h233zM264 740c-13.333 0 -24.167 4.16992 -32.5 12.5029s-12.5 19.166 -12.5 32.499c0 12 4.16699 22.5 12.5 31.5
s19.166 13.5 32.499 13.5c12 0 22.5 -4.33301 31.5 -13s13.5 -19.334 13.5 -32.001s-4.16699 -23.334 -12.5 -32.001s-19.166 -13 -32.499 -13zM413.999 740.003c-13.333 0 -24.1641 4.16992 -32.4971 12.5029s-12.5 19.166 -12.5 32.499c0 12 4.16699 22.5 12.5 31.5
s19.166 13.5 32.499 13.5s24.166 -4.33301 32.499 -13s12.5 -19.334 12.5 -32.001s-4.33301 -23.334 -13 -32.001s-19.334 -13 -32.001 -13z" />
    <glyph glyph-name="aring" unicode="&#xe5;" horiz-adv-x="654" 
d="M542 0l-58 140.003h-315l-58 -140h-111l287 689c-14 6.66699 -25.167 16.667 -33.5 30s-12.5 28.666 -12.5 45.999c0 23.333 8 43 24 59s35.667 24 59 24c24 0 44 -8 60 -24s24 -35.667 24 -59c0 -16.667 -4 -31.334 -12 -44.001s-18.667 -22.334 -32 -29.001l290 -692
h-112zM390 368.003l-33 93l-30 96l-15.5 -48l-15.5 -48l-33 -93l-53 -129h233zM364 765.003c0 11.333 -3.83301 20.833 -11.5 28.5s-17.167 11.5 -28.5 11.5s-20.833 -3.83301 -28.5 -11.5s-11.5 -17.167 -11.5 -28.5s3.83301 -20.833 11.5 -28.5s17.167 -11.5 28.5 -11.5
s20.833 3.83301 28.5 11.5s11.5 17.167 11.5 28.5z" />
    <glyph glyph-name="ae" unicode="&#xe6;" horiz-adv-x="884" 
d="M428 0v140h-259l-58 -140h-111l292 700h541v-99h-300v-202h250v-99h-250v-201h300v-99h-405zM428 601h-69l-149 -362h218v362z" />
    <glyph glyph-name="ccedilla" unicode="&#xe7;" horiz-adv-x="630" 
d="M591 56c-30 -23.333 -64.167 -42.501 -102.5 -57.501s-81.5 -22.5 -129.5 -22.5c-2.66699 0 -5.33398 0.166992 -8.00098 0.5s-5.33398 0.5 -8.00098 0.5l-8 -29l10 -4c13.333 -5.33301 25 -13.5 35 -24.5s15 -25.833 15 -44.5c0 -22.667 -7.66699 -39.834 -23 -51.501
s-34.666 -17.5 -57.999 -17.5c-17.333 0 -31.166 2.66699 -41.499 8s-19.833 10.666 -28.5 15.999l19 36c4 -2 8.66699 -4.83301 14 -8.5s12.333 -5.5 21 -5.5s15.667 2.16699 21 6.5s8 10.166 8 17.499c0 9.33301 -4.5 16 -13.5 20l-28.5 13l-11 5l22 68
c-37.333 6 -71.333 18 -102 36s-57 42.333 -79 73s-39.167 68 -51.5 112s-18.5 95 -18.5 153c0 62.667 7.16699 117 21.5 163s34.333 84.167 60 114.5s56 53 91 68s73.167 22.5 114.5 22.5c35.333 0 68.666 -6 99.999 -18s58.833 -30 82.5 -54s42.334 -54.5 56.001 -91.5
s20.5 -80.5 20.5 -130.5h-105c0 34 -4 63.333 -12 88s-18.833 44.834 -32.5 60.501s-29.834 27.334 -48.501 35.001s-39 11.5 -61 11.5c-27.333 0 -52.166 -5.16699 -74.499 -15.5s-41.5 -26.333 -57.5 -48s-28.333 -49.5 -37 -83.5s-13 -74.667 -13 -122
c0 -51.333 5.16699 -94.666 15.5 -129.999s24.666 -64.333 42.999 -87s40.333 -39 66 -49s53.834 -15 84.501 -15c36 0 68.333 5.33301 97 16s53.667 25.334 75 44.001z" />
    <glyph glyph-name="egrave" unicode="&#xe8;" horiz-adv-x="571" 
d="M75 0v700h445v-99h-340v-202h290v-99h-290v-201h340v-99h-445zM377 745l-200 61l45 61l170 -92z" />
    <glyph glyph-name="eacute" unicode="&#xe9;" horiz-adv-x="571" 
d="M75 0v700h445v-99h-340v-202h290v-99h-290v-201h340v-99h-445zM204 745l-15 30l170 92l45 -61z" />
    <glyph glyph-name="ecircumflex" unicode="&#xea;" horiz-adv-x="571" 
d="M75 0v700h445v-99h-340v-202h290v-99h-290v-201h340v-99h-445zM343 750l-74 55l-74 -55h-51l85 98h82l85 -98h-53z" />
    <glyph glyph-name="edieresis" unicode="&#xeb;" horiz-adv-x="571" 
d="M75 0v700h445v-99h-340v-202h290v-99h-290v-201h340v-99h-445zM217 740c-13.333 0 -24.167 4.16992 -32.5 12.5029s-12.5 19.166 -12.5 32.499c0 12 4.16699 22.5 12.5 31.5s19.166 13.5 32.499 13.5c12 0 22.5 -4.33301 31.5 -13s13.5 -19.334 13.5 -32.001
s-4.16699 -23.334 -12.5 -32.001s-19.166 -13 -32.499 -13zM366.999 740.003c-13.333 0 -24.1641 4.16992 -32.4971 12.5029s-12.5 19.166 -12.5 32.499c0 12 4.16699 22.5 12.5 31.5s19.166 13.5 32.499 13.5s24.166 -4.33301 32.499 -13s12.5 -19.334 12.5 -32.001
s-4.33301 -23.334 -13 -32.001s-19.334 -13 -32.001 -13z" />
    <glyph glyph-name="igrave" unicode="&#xec;" horiz-adv-x="292" 
d="M94 0v700h105v-700h-105zM239 745l-200 61l45 61l170 -92z" />
    <glyph glyph-name="iacute" unicode="&#xed;" horiz-adv-x="292" 
d="M94 0v700h105v-700h-105zM55 745l-15 30l170 92l45 -61z" />
    <glyph glyph-name="icircumflex" unicode="&#xee;" horiz-adv-x="260" 
d="M77 0v700h105v-700h-105zM189 750l-74 55l-74 -55h-51l85 98h82l85 -98h-53z" />
    <glyph glyph-name="idieresis" unicode="&#xef;" horiz-adv-x="284" 
d="M89 0v700h105v-700h-105zM67 740c-13.333 0 -24.167 4.16992 -32.5 12.5029s-12.5 19.166 -12.5 32.499c0 12 4.16699 22.5 12.5 31.5s19.166 13.5 32.499 13.5c12 0 22.5 -4.33301 31.5 -13s13.5 -19.334 13.5 -32.001s-4.16699 -23.334 -12.5 -32.001
s-19.166 -13 -32.499 -13zM216.999 740.003c-13.333 0 -24.1641 4.16992 -32.4971 12.5029s-12.5 19.166 -12.5 32.499c0 12 4.16699 22.5 12.5 31.5s19.166 13.5 32.499 13.5s24.166 -4.33301 32.499 -13s12.5 -19.334 12.5 -32.001s-4.33301 -23.334 -13 -32.001
s-19.334 -13 -32.001 -13z" />
    <glyph glyph-name="eth" unicode="&#xf0;" horiz-adv-x="685" 
d="M111 0v305h-92v99h92v296h196c48 0 92.333 -7 133 -21s75.834 -35.333 105.501 -64s52.834 -65 69.501 -109s25 -96 25 -156s-8.33301 -112 -25 -156s-39.834 -80.333 -69.501 -109s-64.834 -50 -105.501 -64s-85 -21 -133 -21h-196zM306 99c34 0 65 4.66699 93 14
s52 24.166 72 44.499s35.667 46.333 47 78s17 69.834 17 114.501s-5.66699 82.834 -17 114.501s-27 57.667 -47 78s-44 35.166 -72 44.499s-59 14 -93 14h-90v-197h166v-99h-166v-206h90z" />
    <glyph glyph-name="ntilde" unicode="&#xf1;" horiz-adv-x="671" 
d="M526 0l-346 484v-484h-105v700h70l346 -484v484h105v-700h-70zM460 822c-7.33301 -28 -16.499 -48.666 -27.499 -61.999s-26.167 -20 -45.5 -20c-8.66699 0 -17.667 1.5 -27 4.5s-18.333 6.33301 -27 10l-24.5 10c-7.66699 3 -14.5 4.5 -20.5 4.5
c-10 0 -17.667 -2.66699 -23 -8s-10.666 -14.333 -15.999 -27l-39 11c7.33301 28 16.5 48.667 27.5 62s26.167 20 45.5 20c8.66699 0 17.5 -1.5 26.5 -4.5s17.833 -6.33301 26.5 -10s17 -7 25 -10s15 -4.5 21 -4.5c9.33301 0 16.666 2.66699 21.999 8
s10.666 14.666 15.999 27.999z" />
    <glyph glyph-name="ograve" unicode="&#xf2;" horiz-adv-x="700" 
d="M350 625c-29.333 0 -56.166 -5.16699 -80.499 -15.5s-45.333 -26.5 -63 -48.5s-31.5 -50.333 -41.5 -85s-15 -76.667 -15 -126s5 -91.333 15 -126s23.833 -63 41.5 -85s38.667 -38.167 63 -48.5s51.166 -15.5 80.499 -15.5c28.667 0 55.334 5.16699 80.001 15.5
s45.834 26.5 63.501 48.5s31.5 50.333 41.5 85s15 76.667 15 126s-5 91.333 -15 126s-23.833 63 -41.5 85s-38.834 38.167 -63.501 48.5s-51.334 15.5 -80.001 15.5zM350 724c44 0 84.5 -7.5 121.5 -22.5s69.167 -37.833 96.5 -68.5s48.666 -69.5 63.999 -116.5
s23 -102.5 23 -166.5s-7.66699 -119.5 -23 -166.5s-36.666 -85.833 -63.999 -116.5s-59.5 -53.5 -96.5 -68.5s-77.5 -22.5 -121.5 -22.5s-84.5 7.5 -121.5 22.5s-69.167 37.833 -96.5 68.5s-48.666 69.5 -63.999 116.5s-23 102.5 -23 166.5s7.66699 119.5 23 166.5
s36.666 85.833 63.999 116.5s59.5 53.5 96.5 68.5s77.5 22.5 121.5 22.5zM442 745l-200 61l45 61l170 -92z" />
    <glyph glyph-name="oacute" unicode="&#xf3;" horiz-adv-x="700" 
d="M350 625c-29.333 0 -56.166 -5.16699 -80.499 -15.5s-45.333 -26.5 -63 -48.5s-31.5 -50.333 -41.5 -85s-15 -76.667 -15 -126s5 -91.333 15 -126s23.833 -63 41.5 -85s38.667 -38.167 63 -48.5s51.166 -15.5 80.499 -15.5c28.667 0 55.334 5.16699 80.001 15.5
s45.834 26.5 63.501 48.5s31.5 50.333 41.5 85s15 76.667 15 126s-5 91.333 -15 126s-23.833 63 -41.5 85s-38.834 38.167 -63.501 48.5s-51.334 15.5 -80.001 15.5zM350 724c44 0 84.5 -7.5 121.5 -22.5s69.167 -37.833 96.5 -68.5s48.666 -69.5 63.999 -116.5
s23 -102.5 23 -166.5s-7.66699 -119.5 -23 -166.5s-36.666 -85.833 -63.999 -116.5s-59.5 -53.5 -96.5 -68.5s-77.5 -22.5 -121.5 -22.5s-84.5 7.5 -121.5 22.5s-69.167 37.833 -96.5 68.5s-48.666 69.5 -63.999 116.5s-23 102.5 -23 166.5s7.66699 119.5 23 166.5
s36.666 85.833 63.999 116.5s59.5 53.5 96.5 68.5s77.5 22.5 121.5 22.5zM257 745l-15 30l170 92l45 -61z" />
    <glyph glyph-name="ocircumflex" unicode="&#xf4;" horiz-adv-x="700" 
d="M350 625c-29.333 0 -56.166 -5.16699 -80.499 -15.5s-45.333 -26.5 -63 -48.5s-31.5 -50.333 -41.5 -85s-15 -76.667 -15 -126s5 -91.333 15 -126s23.833 -63 41.5 -85s38.667 -38.167 63 -48.5s51.166 -15.5 80.499 -15.5c28.667 0 55.334 5.16699 80.001 15.5
s45.834 26.5 63.501 48.5s31.5 50.333 41.5 85s15 76.667 15 126s-5 91.333 -15 126s-23.833 63 -41.5 85s-38.834 38.167 -63.501 48.5s-51.334 15.5 -80.001 15.5zM350 724c44 0 84.5 -7.5 121.5 -22.5s69.167 -37.833 96.5 -68.5s48.666 -69.5 63.999 -116.5
s23 -102.5 23 -166.5s-7.66699 -119.5 -23 -166.5s-36.666 -85.833 -63.999 -116.5s-59.5 -53.5 -96.5 -68.5s-77.5 -22.5 -121.5 -22.5s-84.5 7.5 -121.5 22.5s-69.167 37.833 -96.5 68.5s-48.666 69.5 -63.999 116.5s-23 102.5 -23 166.5s7.66699 119.5 23 166.5
s36.666 85.833 63.999 116.5s59.5 53.5 96.5 68.5s77.5 22.5 121.5 22.5zM408 750l-74 55l-74 -55h-51l85 98h82l85 -98h-53z" />
    <glyph glyph-name="otilde" unicode="&#xf5;" horiz-adv-x="700" 
d="M350 625c-29.333 0 -56.166 -5.16699 -80.499 -15.5s-45.333 -26.5 -63 -48.5s-31.5 -50.333 -41.5 -85s-15 -76.667 -15 -126s5 -91.333 15 -126s23.833 -63 41.5 -85s38.667 -38.167 63 -48.5s51.166 -15.5 80.499 -15.5c28.667 0 55.334 5.16699 80.001 15.5
s45.834 26.5 63.501 48.5s31.5 50.333 41.5 85s15 76.667 15 126s-5 91.333 -15 126s-23.833 63 -41.5 85s-38.834 38.167 -63.501 48.5s-51.334 15.5 -80.001 15.5zM350 724c44 0 84.5 -7.5 121.5 -22.5s69.167 -37.833 96.5 -68.5s48.666 -69.5 63.999 -116.5
s23 -102.5 23 -166.5s-7.66699 -119.5 -23 -166.5s-36.666 -85.833 -63.999 -116.5s-59.5 -53.5 -96.5 -68.5s-77.5 -22.5 -121.5 -22.5s-84.5 7.5 -121.5 22.5s-69.167 37.833 -96.5 68.5s-48.666 69.5 -63.999 116.5s-23 102.5 -23 166.5s7.66699 119.5 23 166.5
s36.666 85.833 63.999 116.5s59.5 53.5 96.5 68.5s77.5 22.5 121.5 22.5zM475 822c-7.33301 -28 -16.499 -48.666 -27.499 -61.999s-26.167 -20 -45.5 -20c-8.66699 0 -17.667 1.5 -27 4.5s-18.333 6.33301 -27 10l-24.5 10c-7.66699 3 -14.5 4.5 -20.5 4.5
c-10 0 -17.667 -2.66699 -23 -8s-10.666 -14.333 -15.999 -27l-39 11c7.33301 28 16.5 48.667 27.5 62s26.167 20 45.5 20c8.66699 0 17.5 -1.5 26.5 -4.5s17.833 -6.33301 26.5 -10s17 -7 25 -10s15 -4.5 21 -4.5c9.33301 0 16.666 2.66699 21.999 8
s10.666 14.666 15.999 27.999z" />
    <glyph glyph-name="odieresis" unicode="&#xf6;" horiz-adv-x="700" 
d="M350 625c-29.333 0 -56.166 -5.16699 -80.499 -15.5s-45.333 -26.5 -63 -48.5s-31.5 -50.333 -41.5 -85s-15 -76.667 -15 -126s5 -91.333 15 -126s23.833 -63 41.5 -85s38.667 -38.167 63 -48.5s51.166 -15.5 80.499 -15.5c28.667 0 55.334 5.16699 80.001 15.5
s45.834 26.5 63.501 48.5s31.5 50.333 41.5 85s15 76.667 15 126s-5 91.333 -15 126s-23.833 63 -41.5 85s-38.834 38.167 -63.501 48.5s-51.334 15.5 -80.001 15.5zM350 724c44 0 84.5 -7.5 121.5 -22.5s69.167 -37.833 96.5 -68.5s48.666 -69.5 63.999 -116.5
s23 -102.5 23 -166.5s-7.66699 -119.5 -23 -166.5s-36.666 -85.833 -63.999 -116.5s-59.5 -53.5 -96.5 -68.5s-77.5 -22.5 -121.5 -22.5s-84.5 7.5 -121.5 22.5s-69.167 37.833 -96.5 68.5s-48.666 69.5 -63.999 116.5s-23 102.5 -23 166.5s7.66699 119.5 23 166.5
s36.666 85.833 63.999 116.5s59.5 53.5 96.5 68.5s77.5 22.5 121.5 22.5zM275 740c-13.333 0 -24.167 4.16992 -32.5 12.5029s-12.5 19.166 -12.5 32.499c0 12 4.16699 22.5 12.5 31.5s19.166 13.5 32.499 13.5c12 0 22.5 -4.33301 31.5 -13s13.5 -19.334 13.5 -32.001
s-4.16699 -23.334 -12.5 -32.001s-19.166 -13 -32.499 -13zM424.999 740.003c-13.333 0 -24.1641 4.16992 -32.4971 12.5029s-12.5 19.166 -12.5 32.499c0 12 4.16699 22.5 12.5 31.5s19.166 13.5 32.499 13.5s24.166 -4.33301 32.499 -13s12.5 -19.334 12.5 -32.001
s-4.33301 -23.334 -13 -32.001s-19.334 -13 -32.001 -13z" />
    <glyph glyph-name="oslash" unicode="&#xf8;" horiz-adv-x="695" 
d="M18 39l71 84.999c-15.333 29.333 -27 62.5 -35 99.5s-12 79.167 -12 126.5c0 64 7.66699 119.5 23 166.5s36.666 85.833 63.999 116.5s59.5 53.5 96.5 68.5s77.5 22.5 121.5 22.5c36.667 0 71 -5.5 103 -16.5s60.667 -27.833 86 -50.5l60 71l81 -67l-72 -86
c15.333 -29.333 27 -62.666 35 -99.999s12 -79 12 -125c0 -64 -7.66699 -119.5 -23 -166.5s-36.666 -85.833 -63.999 -116.5s-59.5 -53.5 -96.5 -68.5s-77.5 -22.5 -121.5 -22.5c-37.333 0 -72 5.5 -104 16.5s-60.667 27.5 -86 49.5l-59 -71zM347 74.999
c29.333 0 56.166 5.16699 80.499 15.5s45.333 26.5 63 48.5s31.5 50.333 41.5 85s15 76.667 15 126s-5 91.333 -15 126s-23.833 63 -41.5 85s-38.667 38.167 -63 48.5s-51.166 15.5 -80.499 15.5s-56.166 -5.16699 -80.499 -15.5s-45.333 -26.5 -63 -48.5
s-31.5 -50.333 -41.5 -85s-15 -76.667 -15 -126s5 -91.333 15 -126s23.833 -63 41.5 -85s38.667 -38.167 63 -48.5s51.166 -15.5 80.499 -15.5z" />
    <glyph glyph-name="ugrave" unicode="&#xf9;" horiz-adv-x="672" 
d="M498 700h105.004v-467c0 -43.333 -7.5 -81 -22.5 -113s-34.833 -58.667 -59.5 -80s-53.167 -37.333 -85.5 -48s-65.5 -16 -99.5 -16c-34.667 0 -68 5.33301 -100 16s-60.333 26.667 -85 48s-44.5 48 -59.5 80s-22.5 69.667 -22.5 113v467h105v-472
c0 -27.333 4.66699 -50.5 14 -69.5s21.666 -34.833 36.999 -47.5s32.666 -21.834 51.999 -27.501s39 -8.5 59 -8.5s39.667 2.83301 59 8.5s36.666 14.834 51.999 27.501s27.666 28.5 36.999 47.5s14 42.167 14 69.5v472zM428.004 745l-200 61l45 61l170 -92z" />
    <glyph glyph-name="uacute" unicode="&#xfa;" horiz-adv-x="672" 
d="M498 700h105.004v-467c0 -43.333 -7.5 -81 -22.5 -113s-34.833 -58.667 -59.5 -80s-53.167 -37.333 -85.5 -48s-65.5 -16 -99.5 -16c-34.667 0 -68 5.33301 -100 16s-60.333 26.667 -85 48s-44.5 48 -59.5 80s-22.5 69.667 -22.5 113v467h105v-472
c0 -27.333 4.66699 -50.5 14 -69.5s21.666 -34.833 36.999 -47.5s32.666 -21.834 51.999 -27.501s39 -8.5 59 -8.5s39.667 2.83301 59 8.5s36.666 14.834 51.999 27.501s27.666 28.5 36.999 47.5s14 42.167 14 69.5v472zM243.004 745l-15 30l170 92l45 -61z" />
    <glyph glyph-name="ucircumflex" unicode="&#xfb;" horiz-adv-x="672" 
d="M498 700h105.004v-467c0 -43.333 -7.5 -81 -22.5 -113s-34.833 -58.667 -59.5 -80s-53.167 -37.333 -85.5 -48s-65.5 -16 -99.5 -16c-34.667 0 -68 5.33301 -100 16s-60.333 26.667 -85 48s-44.5 48 -59.5 80s-22.5 69.667 -22.5 113v467h105v-472
c0 -27.333 4.66699 -50.5 14 -69.5s21.666 -34.833 36.999 -47.5s32.666 -21.834 51.999 -27.501s39 -8.5 59 -8.5s39.667 2.83301 59 8.5s36.666 14.834 51.999 27.501s27.666 28.5 36.999 47.5s14 42.167 14 69.5v472zM394.004 750l-74 55l-74 -55h-51l85 98h82l85 -98
h-53z" />
    <glyph glyph-name="udieresis" unicode="&#xfc;" horiz-adv-x="672" 
d="M498 700h105.004v-467c0 -43.333 -7.5 -81 -22.5 -113s-34.833 -58.667 -59.5 -80s-53.167 -37.333 -85.5 -48s-65.5 -16 -99.5 -16c-34.667 0 -68 5.33301 -100 16s-60.333 26.667 -85 48s-44.5 48 -59.5 80s-22.5 69.667 -22.5 113v467h105v-472
c0 -27.333 4.66699 -50.5 14 -69.5s21.666 -34.833 36.999 -47.5s32.666 -21.834 51.999 -27.501s39 -8.5 59 -8.5s39.667 2.83301 59 8.5s36.666 14.834 51.999 27.501s27.666 28.5 36.999 47.5s14 42.167 14 69.5v472zM261.004 740
c-13.333 0 -24.167 4.16992 -32.5 12.5029s-12.5 19.166 -12.5 32.499c0 12 4.16699 22.5 12.5 31.5s19.166 13.5 32.499 13.5c12 0 22.5 -4.33301 31.5 -13s13.5 -19.334 13.5 -32.001s-4.16699 -23.334 -12.5 -32.001s-19.166 -13 -32.499 -13zM411.003 740.003
c-13.333 0 -24.1641 4.16992 -32.4971 12.5029s-12.5 19.166 -12.5 32.499c0 12 4.16699 22.5 12.5 31.5s19.166 13.5 32.499 13.5s24.166 -4.33301 32.499 -13s12.5 -19.334 12.5 -32.001s-4.33301 -23.334 -13 -32.001s-19.334 -13 -32.001 -13z" />
    <glyph glyph-name="yacute" unicode="&#xfd;" horiz-adv-x="592" 
d="M243 0v257l-243 443h116l180 -337l180 337h116l-244 -443v-257h-105zM203 745l-15 30l170 92l45 -61z" />
    <glyph glyph-name="thorn" unicode="&#xfe;" horiz-adv-x="582" 
d="M180 120v-120h-105v700h105v-120h150c30.667 0 60 -4.5 88 -13.5s52.5 -23 73.5 -42s37.667 -43 50 -72s18.5 -63.5 18.5 -103.5s-6 -74.5 -18 -103.5s-28.5 -52.667 -49.5 -71s-45.333 -32 -73 -41s-57.5 -13.5 -89.5 -13.5h-150zM330 219
c16.667 0 32.5 2.16699 47.5 6.5s28.333 11.5 40 21.5s20.834 23.333 27.501 40s10 37.334 10 62.001s-3.33301 45.5 -10 62.5s-15.834 30.667 -27.501 41s-25 17.666 -40 21.999s-30.833 6.5 -47.5 6.5h-150v-262h150z" />
    <glyph glyph-name="ydieresis" unicode="&#xff;" horiz-adv-x="592" 
d="M243 0v257l-243 443h116l180 -337l180 337h116l-244 -443v-257h-105zM221 740c-13.333 0 -24.167 4.16992 -32.5 12.5029s-12.5 19.166 -12.5 32.499c0 12 4.16699 22.5 12.5 31.5s19.166 13.5 32.499 13.5c12 0 22.5 -4.33301 31.5 -13s13.5 -19.334 13.5 -32.001
s-4.16699 -23.334 -12.5 -32.001s-19.166 -13 -32.499 -13zM370.999 740.003c-13.333 0 -24.1641 4.16992 -32.4971 12.5029s-12.5 19.166 -12.5 32.499c0 12 4.16699 22.5 12.5 31.5s19.166 13.5 32.499 13.5s24.166 -4.33301 32.499 -13s12.5 -19.334 12.5 -32.001
s-4.33301 -23.334 -13 -32.001s-19.334 -13 -32.001 -13z" />
    <glyph glyph-name="Amacron" unicode="&#x100;" horiz-adv-x="795" 
d="M683 0l-58.0029 140h-315l-58 -140h-111l125 300l125 301h-102c-21.333 0 -39.166 -1.83301 -53.499 -5.5s-26.166 -8.5 -35.499 -14.5c-27.333 -6 -47 -16.833 -59 -32.5s-18 -33.167 -18 -52.5c0 -25.333 8.33301 -47 25 -65s43 -27 79 -27v-99
c-35.333 0 -66.166 5 -92.499 15s-48 23.833 -65 41.5s-29.667 38 -38 61s-12.5 47.5 -12.5 73.5c0 29.333 5 56.5 15 81.5s25.833 46.5 47.5 64.5s49.5 32.167 83.5 42.5s75.333 15.5 124 15.5h214l145.5 -350l146.5 -350h-112zM536.997 354l-39 107l-30 96l-15.5 -48
l-15.5 -48l-39 -107l-47 -115h233zM304.997 755v50h326v-50h-326z" />
    <glyph glyph-name="amacron" unicode="&#x101;" horiz-adv-x="654" 
d="M542 0l-58 140h-315l-58 -140h-111l145.5 350l146.5 350h70l145.5 -350l146.5 -350h-112zM390 368l-33 93l-30 96l-15.5 -48l-15.5 -48l-33 -93l-53 -129h233zM164 755v50h326v-50h-326z" />
    <glyph glyph-name="Abreve" unicode="&#x102;" horiz-adv-x="795" 
d="M683 0l-58.0029 140h-315l-58 -140h-111l125 300l125 301h-102c-21.333 0 -39.166 -1.83301 -53.499 -5.5s-26.166 -8.5 -35.499 -14.5c-27.333 -6 -47 -16.833 -59 -32.5s-18 -33.167 -18 -52.5c0 -25.333 8.33301 -47 25 -65s43 -27 79 -27v-99
c-35.333 0 -66.166 5 -92.499 15s-48 23.833 -65 41.5s-29.667 38 -38 61s-12.5 47.5 -12.5 73.5c0 29.333 5 56.5 15 81.5s25.833 46.5 47.5 64.5s49.5 32.167 83.5 42.5s75.333 15.5 124 15.5h214l145.5 -350l146.5 -350h-112zM536.997 354l-39 107l-30 96l-15.5 -48
l-15.5 -48l-39 -107l-47 -115h233zM569.997 795c-14.667 -14.667 -31.668 -26.5 -51.001 -35.5s-41.333 -13.5 -66 -13.5s-46.667 4.5 -66 13.5s-36.333 20.833 -51 35.5l33 41c20.667 -24 49.334 -36 86.001 -36c32.667 0 60 12 82 36z" />
    <glyph glyph-name="abreve" unicode="&#x103;" horiz-adv-x="654" 
d="M542 0l-58 140h-315l-58 -140h-111l145.5 350l146.5 350h70l145.5 -350l146.5 -350h-112zM390 368l-33 93l-30 96l-15.5 -48l-15.5 -48l-33 -93l-53 -129h233zM450 795c-14.667 -14.667 -31.668 -26.5 -51.001 -35.5s-41.333 -13.5 -66 -13.5s-46.667 4.5 -66 13.5
s-36.333 20.833 -51 35.5l33 41c20.667 -24 49.334 -36 86.001 -36c32.667 0 60 12 82 36z" />
    <glyph glyph-name="Aogonek" unicode="&#x104;" horiz-adv-x="795" 
d="M798 -151c-8 -3.33301 -16.835 -6.00293 -26.502 -8.00293s-19.5 -3 -29.5 -3c-23.333 0 -41.333 6.33301 -54 19s-19 29.334 -19 50.001c0 12 1.83301 22.833 5.5 32.5s8.5 18.334 14.5 26.001s12.5 14.334 19.5 20.001s13.833 10.5 20.5 14.5h-46l-58 140h-315
l-58 -140h-111l125 300l125 301h-102c-29.333 0 -54.166 -2.66699 -74.499 -8s-37 -12.833 -50 -22.5s-22.5 -20.834 -28.5 -33.501s-9 -26 -9 -40c0 -10 1.83301 -20.5 5.5 -31.5s9.5 -21 17.5 -30s18.333 -16.5 31 -22.5s28 -9 46 -9v-99c-35.333 0 -66.166 5 -92.499 15
s-48 23.833 -65 41.5s-29.667 38 -38 61s-12.5 47.5 -12.5 73.5c0 29.333 5 56.5 15 81.5s25.833 46.5 47.5 64.5s49.5 32.167 83.5 42.5s75.333 15.5 124 15.5h214l145.5 -350l146.5 -350c-2.66699 -2 -7.5 -5.16699 -14.5 -9.5s-14 -9.66602 -21 -15.999
s-13.167 -13.833 -18.5 -22.5s-8 -18.334 -8 -29.001c0 -13.333 3.83301 -22.166 11.5 -26.499s16.167 -6.5 25.5 -6.5c3.33301 0 6.83301 0.166992 10.5 0.5s7.16699 0.833008 10.5 1.5zM536.998 353.997l-39 107l-30 96l-15.5 -48l-15.5 -48l-39 -107l-47 -115h233z" />
    <glyph glyph-name="aogonek" unicode="&#x105;" horiz-adv-x="654" 
d="M657 -151c-8 -3.33301 -16.833 -6.00391 -26.5 -8.00391s-19.5 -3 -29.5 -3c-23.333 0 -41.333 6.33301 -54 19s-19 29.334 -19 50.001c0 12 1.83301 22.833 5.5 32.5s8.5 18.334 14.5 26.001s12.5 14.334 19.5 20.001s13.833 10.5 20.5 14.5h-46l-58 140h-315l-58 -140
h-111l145.5 350l146.5 350h70l145.5 -350l146.5 -350c-2.66699 -2 -7.5 -5.16699 -14.5 -9.5s-14 -9.66602 -21 -15.999s-13.167 -13.833 -18.5 -22.5s-8 -18.334 -8 -29.001c0 -13.333 3.83301 -22.166 11.5 -26.499s16.167 -6.5 25.5 -6.5
c3.33301 0 6.83301 0.166992 10.5 0.5s7.16699 0.833008 10.5 1.5zM390 367.996l-33 93l-30 96l-15.5 -48l-15.5 -48l-33 -93l-53 -129h233z" />
    <glyph glyph-name="Cacute" unicode="&#x106;" horiz-adv-x="630" 
d="M591 56c-30 -23.333 -64.168 -42.502 -102.501 -57.502s-81.5 -22.5 -129.5 -22.5c-45.333 0 -87.166 7.5 -125.499 22.5s-71.5 38 -99.5 69s-49.833 70.333 -65.5 118s-23.5 104.167 -23.5 169.5c0 62.667 7.16699 117.167 21.5 163.5s34.333 84.666 60 114.999
s55.834 53 90.501 68s72.667 22.5 114 22.5c36 0 69.833 -6 101.5 -18s59.167 -30 82.5 -54s41.833 -54.5 55.5 -91.5s20.5 -80.5 20.5 -130.5h-105c0 34 -3.83301 63.333 -11.5 88s-18.5 44.834 -32.5 60.501s-30.5 27.334 -49.5 35.001s-39.5 11.5 -61.5 11.5
c-26.667 0 -51 -5.16699 -73 -15.5s-41 -26.333 -57 -48s-28.5 -49.5 -37.5 -83.5s-13.5 -74.667 -13.5 -122c0 -50.667 5 -93.834 15 -129.501s24.333 -64.667 43 -87s40.667 -38.666 66 -48.999s53.666 -15.5 84.999 -15.5c36 0 68.333 5.33301 97 16
s53.667 25.334 75 44.001zM247.999 744.998l-15 30l170 92l45 -61z" />
    <glyph glyph-name="cacute" unicode="&#x107;" horiz-adv-x="630" 
d="M591 56c-30 -23.333 -64.168 -42.502 -102.501 -57.502s-81.5 -22.5 -129.5 -22.5c-45.333 0 -87.166 7.5 -125.499 22.5s-71.5 38 -99.5 69s-49.833 70.333 -65.5 118s-23.5 104.167 -23.5 169.5c0 62.667 7.16699 117.167 21.5 163.5s34.333 84.666 60 114.999
s55.834 53 90.501 68s72.667 22.5 114 22.5c36 0 69.833 -6 101.5 -18s59.167 -30 82.5 -54s41.833 -54.5 55.5 -91.5s20.5 -80.5 20.5 -130.5h-105c0 34 -3.83301 63.333 -11.5 88s-18.5 44.834 -32.5 60.501s-30.5 27.334 -49.5 35.001s-39.5 11.5 -61.5 11.5
c-26.667 0 -51 -5.16699 -73 -15.5s-41 -26.333 -57 -48s-28.5 -49.5 -37.5 -83.5s-13.5 -74.667 -13.5 -122c0 -50.667 5 -93.834 15 -129.501s24.333 -64.667 43 -87s40.667 -38.666 66 -48.999s53.666 -15.5 84.999 -15.5c36 0 68.333 5.33301 97 16
s53.667 25.334 75 44.001zM237.999 744.998l-15 30l170 92l45 -61z" />
    <glyph glyph-name="Ccaron" unicode="&#x10c;" horiz-adv-x="630" 
d="M591 56c-30 -23.333 -64.168 -42.502 -102.501 -57.502s-81.5 -22.5 -129.5 -22.5c-45.333 0 -87.166 7.5 -125.499 22.5s-71.5 38 -99.5 69s-49.833 70.333 -65.5 118s-23.5 104.167 -23.5 169.5c0 62.667 7.16699 117.167 21.5 163.5s34.333 84.666 60 114.999
s55.834 53 90.501 68s72.667 22.5 114 22.5c36 0 69.833 -6 101.5 -18s59.167 -30 82.5 -54s41.833 -54.5 55.5 -91.5s20.5 -80.5 20.5 -130.5h-105c0 34 -3.83301 63.333 -11.5 88s-18.5 44.834 -32.5 60.501s-30.5 27.334 -49.5 35.001s-39.5 11.5 -61.5 11.5
c-26.667 0 -51 -5.16699 -73 -15.5s-41 -26.333 -57 -48s-28.5 -49.5 -37.5 -83.5s-13.5 -74.667 -13.5 -122c0 -50.667 5 -93.834 15 -129.501s24.333 -64.667 43 -87s40.667 -38.666 66 -48.999s53.666 -15.5 84.999 -15.5c36 0 68.333 5.33301 97 16
s53.667 25.334 75 44.001zM381.999 749.998h-82l-85 98h51l74 -55l74 55h53z" />
    <glyph glyph-name="ccaron" unicode="&#x10d;" horiz-adv-x="630" 
d="M591 56c-30 -23.333 -64.168 -42.502 -102.501 -57.502s-81.5 -22.5 -129.5 -22.5c-45.333 0 -87.166 7.5 -125.499 22.5s-71.5 38 -99.5 69s-49.833 70.333 -65.5 118s-23.5 104.167 -23.5 169.5c0 62.667 7.16699 117.167 21.5 163.5s34.333 84.666 60 114.999
s55.834 53 90.501 68s72.667 22.5 114 22.5c36 0 69.833 -6 101.5 -18s59.167 -30 82.5 -54s41.833 -54.5 55.5 -91.5s20.5 -80.5 20.5 -130.5h-105c0 34 -3.83301 63.333 -11.5 88s-18.5 44.834 -32.5 60.501s-30.5 27.334 -49.5 35.001s-39.5 11.5 -61.5 11.5
c-26.667 0 -51 -5.16699 -73 -15.5s-41 -26.333 -57 -48s-28.5 -49.5 -37.5 -83.5s-13.5 -74.667 -13.5 -122c0 -50.667 5 -93.834 15 -129.501s24.333 -64.667 43 -87s40.667 -38.666 66 -48.999s53.666 -15.5 84.999 -15.5c36 0 68.333 5.33301 97 16
s53.667 25.334 75 44.001zM363.999 749.998h-82l-85 98h51l74 -55l74 55h53z" />
    <glyph glyph-name="Dcaron" unicode="&#x10e;" horiz-adv-x="863" 
d="M289 0l-0.000976562 601.001c-30.667 0 -56.667 -2.83301 -78 -8.5s-38.5 -13.167 -51.5 -22.5s-22.333 -20.333 -28 -33s-8.5 -26.334 -8.5 -41.001c0 -25.333 8.33301 -47 25 -65s43 -27 79 -27v-99c-35.333 0 -66.166 5 -92.499 15s-48 23.833 -65 41.5
s-29.667 38 -38 61s-12.5 47.5 -12.5 73.5c0 29.333 5 56.5 15 81.5s25.833 46.5 47.5 64.5s49.5 32.167 83.5 42.5s75.333 15.5 124 15.5h196c48 0 92.333 -7 133 -21s75.834 -35.333 105.501 -64s52.834 -65 69.501 -109s25 -96 25 -156s-8.33301 -112 -25 -156
s-39.834 -80.333 -69.501 -109s-64.834 -50 -105.501 -64s-85 -21 -133 -21h-196zM483.999 99.001c34 0 65 4.66699 93 14s52 24.166 72 44.499s35.667 46.333 47 78s17 69.834 17 114.501s-5.66699 82.834 -17 114.501s-27 57.667 -47 78s-44 35.166 -72 44.499
s-59 14 -93 14h-90v-502h90zM513.999 750.001h-82l-85 98h51l74 -55l74 55h53z" />
    <glyph glyph-name="dcaron" unicode="&#x10f;" horiz-adv-x="649" 
d="M75 0v700h196c48 0 92.333 -7 133 -21s75.834 -35.333 105.501 -64s52.834 -65 69.501 -109s25 -96 25 -156s-8.33301 -112 -25 -156s-39.834 -80.333 -69.501 -109s-64.834 -50 -105.501 -64s-85 -21 -133 -21h-196zM269 99c34 0 65.167 4.66699 93.5 14
s52.5 24.166 72.5 44.499s35.667 46.333 47 78s17 69.834 17 114.501s-5.66699 82.834 -17 114.501s-27 57.667 -47 78s-44.167 35.166 -72.5 44.499s-59.5 14 -93.5 14h-89v-502h89zM350 750h-82l-85 98h51l74 -55l74 55h53z" />
    <glyph glyph-name="Dcroat" unicode="&#x110;" horiz-adv-x="863" 
d="M289 0l-0.000976562 305h-62c-35.333 0 -66.166 5 -92.499 15s-48 23.833 -65 41.5s-29.667 38 -38 61s-12.5 47.5 -12.5 73.5c0 29.333 5 56.5 15 81.5s25.833 46.5 47.5 64.5s49.5 32.167 83.5 42.5s75.333 15.5 124 15.5h196c48 0 92.333 -7 133 -21
s75.834 -35.333 105.501 -64s52.834 -65 69.501 -109s25 -96 25 -156s-8.33301 -112 -25 -156s-39.834 -80.333 -69.501 -109s-64.834 -50 -105.501 -64s-85 -21 -133 -21h-196zM483.999 99c34 0 65 4.66699 93 14s52 24.166 72 44.499s35.667 46.333 47 78
s17 69.834 17 114.501s-5.66699 82.834 -17 114.501s-27 57.667 -47 78s-44 35.166 -72 44.499s-59 14 -93 14h-90v-197h166v-99h-166v-206h90zM288.999 601c-30.667 0 -56.667 -2.83203 -78 -8.49902s-38.5 -13.167 -51.5 -22.5s-22.333 -20.333 -28 -33
s-8.5 -26.334 -8.5 -41.001c0 -25.333 8.33301 -47 25 -65s43 -27 79 -27h62v197z" />
    <glyph glyph-name="dcroat" unicode="&#x111;" horiz-adv-x="685" 
d="M111 0v305h-92v99h92v296h196c48 0 92.333 -7 133 -21s75.834 -35.333 105.501 -64s52.834 -65 69.501 -109s25 -96 25 -156s-8.33301 -112 -25 -156s-39.834 -80.333 -69.501 -109s-64.834 -50 -105.501 -64s-85 -21 -133 -21h-196zM306 99c34 0 65 4.66699 93 14
s52 24.166 72 44.499s35.667 46.333 47 78s17 69.834 17 114.501s-5.66699 82.834 -17 114.501s-27 57.667 -47 78s-44 35.166 -72 44.499s-59 14 -93 14h-90v-197h166v-99h-166v-206h90z" />
    <glyph glyph-name="Emacron" unicode="&#x112;" horiz-adv-x="785" 
d="M289 0l-0.000976562 601.001c-30.667 0 -56.667 -2.83301 -78 -8.5s-38.5 -13.167 -51.5 -22.5s-22.333 -20.333 -28 -33s-8.5 -26.334 -8.5 -41.001c0 -25.333 8.33301 -47 25 -65s43 -27 79 -27v-99c-35.333 0 -66.166 5 -92.499 15s-48 23.833 -65 41.5
s-29.667 38 -38 61s-12.5 47.5 -12.5 73.5c0 29.333 5 56.5 15 81.5s25.833 46.5 47.5 64.5s49.5 32.167 83.5 42.5s75.333 15.5 124 15.5h445v-99h-340v-202h290v-99h-290v-201h340v-99h-445zM347.999 755.001v50h326v-50h-326z" />
    <glyph glyph-name="emacron" unicode="&#x113;" horiz-adv-x="571" 
d="M75 0v700h445v-99h-340v-202h290v-99h-290v-201h340v-99h-445zM122 755v50h326v-50h-326z" />
    <glyph glyph-name="ebreve" unicode="&#x115;" horiz-adv-x="571" 
d="M75 0v700h445v-99h-340v-202h290v-99h-290v-201h340v-99h-445zM404 795c-14.667 -14.667 -31.668 -26.5 -51.001 -35.5s-41.333 -13.5 -66 -13.5s-46.667 4.5 -66 13.5s-36.333 20.833 -51 35.5l33 41c20.667 -24 49.334 -36 86.001 -36c32.667 0 60 12 82 36z" />
    <glyph glyph-name="Edotaccent" unicode="&#x116;" horiz-adv-x="785" 
d="M289 0l-0.000976562 601.001c-30.667 0 -56.667 -2.83301 -78 -8.5s-38.5 -13.167 -51.5 -22.5s-22.333 -20.333 -28 -33s-8.5 -26.334 -8.5 -41.001c0 -25.333 8.33301 -47 25 -65s43 -27 79 -27v-99c-35.333 0 -66.166 5 -92.499 15s-48 23.833 -65 41.5
s-29.667 38 -38 61s-12.5 47.5 -12.5 73.5c0 29.333 5 56.5 15 81.5s25.833 46.5 47.5 64.5s49.5 32.167 83.5 42.5s75.333 15.5 124 15.5h445v-99h-340v-202h290v-99h-290v-201h340v-99h-445zM512.999 737.001c-13.333 0 -24.167 4.33301 -32.5 13
s-12.5 19.334 -12.5 32.001s4.16699 23.334 12.5 32.001s19.166 13 32.499 13c12 0 22.5 -4.33301 31.5 -13s13.5 -19.334 13.5 -32.001s-4.16699 -23.334 -12.5 -32.001s-19.166 -13 -32.499 -13z" />
    <glyph glyph-name="edotaccent" unicode="&#x117;" horiz-adv-x="571" 
d="M75 0v700h445v-99h-340v-202h290v-99h-290v-201h340v-99h-445zM285 737c-13.333 0 -24.167 4.33301 -32.5 13s-12.5 19.334 -12.5 32.001s4.16699 23.334 12.5 32.001s19.166 13 32.499 13c12 0 22.5 -4.33301 31.5 -13s13.5 -19.334 13.5 -32.001
s-4.16699 -23.334 -12.5 -32.001s-19.166 -13 -32.499 -13z" />
    <glyph glyph-name="Eogonek" unicode="&#x118;" horiz-adv-x="785" 
d="M737 -151c-8 -3.33301 -16.666 -6.16699 -25.999 -8.5s-19.333 -3.5 -30 -3.5c-23.333 0 -41.333 6.5 -54 19.5s-19 29.833 -19 50.5c0 12 1.83301 22.667 5.5 32s8.5 17.833 14.5 25.5s12.5 14.5 19.5 20.5s13.833 11 20.5 15h-379v601
c-30.667 0 -56.667 -2.83301 -78 -8.5s-38.5 -13.167 -51.5 -22.5s-22.333 -20.333 -28 -33s-8.5 -26.334 -8.5 -41.001c0 -25.333 8.33301 -47 25 -65s43 -27 79 -27v-99c-35.333 0 -66.166 5 -92.499 15s-48 23.833 -65 41.5s-29.667 38 -38 61s-12.5 47.5 -12.5 73.5
c0 29.333 5 56.5 15 81.5s25.833 46.5 47.5 64.5s49.5 32.167 83.5 42.5s75.333 15.5 124 15.5h445v-99h-340v-202h290v-99h-290v-201h340v-99c-2.66699 -2 -7.5 -5.16699 -14.5 -9.5s-14 -9.66602 -21 -15.999s-13.167 -13.833 -18.5 -22.5s-8 -18.334 -8 -29.001
c0 -13.333 4 -22.166 12 -26.499s16.667 -6.5 26 -6.5c3.33301 0 6.66602 0.166992 9.99902 0.5s6.66602 0.833008 9.99902 1.5z" />
    <glyph glyph-name="eogonek" unicode="&#x119;" horiz-adv-x="571" 
d="M523 -151c-8 -3.33301 -16.833 -6.16797 -26.5 -8.50098s-19.5 -3.5 -29.5 -3.5c-23.333 0 -41.333 6.5 -54 19.5s-19 29.833 -19 50.5c0 12 1.83301 22.667 5.5 32s8.5 17.833 14.5 25.5s12.5 14.5 19.5 20.5s13.833 11 20.5 15h-379v700h445v-99h-340v-202h290v-99
h-290v-201h340v-99c-2.66699 -2 -7.5 -5.16699 -14.5 -9.5s-14 -9.66602 -21 -15.999s-13.167 -13.833 -18.5 -22.5s-8 -18.334 -8 -29.001c0 -13.333 3.83301 -22.166 11.5 -26.499s16.167 -6.5 25.5 -6.5c3.33301 0 6.83301 0.166992 10.5 0.5s7.16699 0.833008 10.5 1.5z
" />
    <glyph glyph-name="Ecaron" unicode="&#x11a;" horiz-adv-x="785" 
d="M289 0l-0.000976562 601.001c-30.667 0 -56.667 -2.83301 -78 -8.5s-38.5 -13.167 -51.5 -22.5s-22.333 -20.333 -28 -33s-8.5 -26.334 -8.5 -41.001c0 -25.333 8.33301 -47 25 -65s43 -27 79 -27v-99c-35.333 0 -66.166 5 -92.499 15s-48 23.833 -65 41.5
s-29.667 38 -38 61s-12.5 47.5 -12.5 73.5c0 29.333 5 56.5 15 81.5s25.833 46.5 47.5 64.5s49.5 32.167 83.5 42.5s75.333 15.5 124 15.5h445v-99h-340v-202h290v-99h-290v-201h340v-99h-445zM533.999 750.001h-82l-85 98h51l74 -55l74 55h53z" />
    <glyph glyph-name="ecaron" unicode="&#x11b;" horiz-adv-x="571" 
d="M75 0v700h445v-99h-340v-202h290v-99h-290v-201h340v-99h-445zM311 750h-82l-85 98h51l74 -55l74 55h53z" />
    <glyph glyph-name="Gbreve" unicode="&#x11e;" horiz-adv-x="670" 
d="M552 -1l-16 29.998c-25.333 -15.333 -53.833 -28 -85.5 -38s-66.5 -15 -104.5 -15c-43.333 0 -83.5 7.5 -120.5 22.5s-68.833 37.833 -95.5 68.5s-47.5 69.334 -62.5 116.001s-22.5 102 -22.5 166s7.66699 119.667 23 167s36.833 86.333 64.5 117s60.667 53.5 99 68.5
s80.166 22.5 125.499 22.5c48 0 91.667 -7.5 131 -22.5s74 -34.167 104 -57.5l-29.5 -40.5l-28.5 -40.5c-22 19.333 -48.333 34.333 -79 45s-64 16 -100 16c-30.667 0 -58.334 -4.66699 -83.001 -14s-45.667 -24.666 -63 -45.999s-30.666 -49.833 -39.999 -85.5
s-14 -79.5 -14 -131.5c0 -51.333 4.5 -94.333 13.5 -129s21.833 -62.5 38.5 -83.5s36.667 -36 60 -45s49.333 -13.5 78 -13.5c58.667 0 107.334 14.667 146.001 44v180h-143v100h253v-401h-49zM470 794.998c-14.667 -14.667 -31.668 -26.5 -51.001 -35.5
s-41.333 -13.5 -66 -13.5s-46.667 4.5 -66 13.5s-36.333 20.833 -51 35.5l33 41c20.667 -24 49.334 -36 86.001 -36c32.667 0 60 12 82 36z" />
    <glyph glyph-name="gbreve" unicode="&#x11f;" horiz-adv-x="670" 
d="M552 -1l-16 29.998c-25.333 -15.333 -53.833 -28 -85.5 -38s-66.5 -15 -104.5 -15c-43.333 0 -83.5 7.5 -120.5 22.5s-68.833 37.833 -95.5 68.5s-47.5 69.334 -62.5 116.001s-22.5 102 -22.5 166s7.66699 119.667 23 167s36.833 86.333 64.5 117s60.667 53.5 99 68.5
s80.166 22.5 125.499 22.5c48 0 91.667 -7.5 131 -22.5s74 -34.167 104 -57.5l-29.5 -40.5l-28.5 -40.5c-22 19.333 -48.333 34.333 -79 45s-64 16 -100 16c-30.667 0 -58.334 -4.66699 -83.001 -14s-45.667 -24.666 -63 -45.999s-30.666 -49.833 -39.999 -85.5
s-14 -79.5 -14 -131.5c0 -51.333 4.5 -94.333 13.5 -129s21.833 -62.5 38.5 -83.5s36.667 -36 60 -45s49.333 -13.5 78 -13.5c58.667 0 107.334 14.667 146.001 44v180h-143v100h253v-401h-49zM468 794.998c-14.667 -14.667 -31.668 -26.5 -51.001 -35.5
s-41.333 -13.5 -66 -13.5s-46.667 4.5 -66 13.5s-36.333 20.833 -51 35.5l33 41c20.667 -24 49.334 -36 86.001 -36c32.667 0 60 12 82 36z" />
    <glyph glyph-name="uni0122" unicode="&#x122;" horiz-adv-x="670" 
d="M552 -1l-16 29.998c-25.333 -15.333 -53.833 -28 -85.5 -38s-66.5 -15 -104.5 -15c-43.333 0 -83.5 7.5 -120.5 22.5s-68.833 37.833 -95.5 68.5s-47.5 69.334 -62.5 116.001s-22.5 102 -22.5 166s7.66699 119.667 23 167s36.833 86.333 64.5 117s60.667 53.5 99 68.5
s80.166 22.5 125.499 22.5c48 0 91.667 -7.5 131 -22.5s74 -34.167 104 -57.5l-29.5 -40.5l-28.5 -40.5c-22 19.333 -48.333 34.333 -79 45s-64 16 -100 16c-30.667 0 -58.334 -4.66699 -83.001 -14s-45.667 -24.666 -63 -45.999s-30.666 -49.833 -39.999 -85.5
s-14 -79.5 -14 -131.5c0 -51.333 4.5 -94.333 13.5 -129s21.833 -62.5 38.5 -83.5s36.667 -36 60 -45s49.333 -13.5 78 -13.5c58.667 0 107.334 14.667 146.001 44v180h-143v100h253v-401h-49zM312 -191.002c8.66699 9.33301 15.833 17.833 21.5 25.5
s10.167 15.167 13.5 22.5c-13.333 0 -24.166 4.5 -32.499 13.5s-12.5 19.833 -12.5 32.5s4.5 23.667 13.5 33s19.833 14 32.5 14s23.5 -4.5 32.5 -13.5s13.5 -20.167 13.5 -33.5c0 -22 -4.83301 -43 -14.5 -63s-22.834 -38.333 -39.501 -55z" />
    <glyph glyph-name="uni0123" unicode="&#x123;" horiz-adv-x="670" 
d="M552 -1l-16 29.998c-25.333 -15.333 -53.833 -28 -85.5 -38s-66.5 -15 -104.5 -15c-43.333 0 -83.5 7.5 -120.5 22.5s-68.833 37.833 -95.5 68.5s-47.5 69.334 -62.5 116.001s-22.5 102 -22.5 166s7.66699 119.667 23 167s36.833 86.333 64.5 117s60.667 53.5 99 68.5
s80.166 22.5 125.499 22.5c48 0 91.667 -7.5 131 -22.5s74 -34.167 104 -57.5l-29.5 -40.5l-28.5 -40.5c-22 19.333 -48.333 34.333 -79 45s-64 16 -100 16c-30.667 0 -58.334 -4.66699 -83.001 -14s-45.667 -24.666 -63 -45.999s-30.666 -49.833 -39.999 -85.5
s-14 -79.5 -14 -131.5c0 -51.333 4.5 -94.333 13.5 -129s21.833 -62.5 38.5 -83.5s36.667 -36 60 -45s49.333 -13.5 78 -13.5c58.667 0 107.334 14.667 146.001 44v180h-143v100h253v-401h-49zM312 -191.002c8.66699 9.33301 15.833 17.833 21.5 25.5
s10.167 15.167 13.5 22.5c-13.333 0 -24.166 4.5 -32.499 13.5s-12.5 19.833 -12.5 32.5s4.5 23.667 13.5 33s19.833 14 32.5 14s23.5 -4.5 32.5 -13.5s13.5 -20.167 13.5 -33.5c0 -22 -4.83301 -43 -14.5 -63s-22.834 -38.333 -39.501 -55z" />
    <glyph glyph-name="Imacron" unicode="&#x12a;" horiz-adv-x="491" 
d="M289 0l-0.000976562 601.001c-30.667 0 -56.667 -2.83301 -78 -8.5s-38.5 -13.167 -51.5 -22.5s-22.333 -20.333 -28 -33s-8.5 -26.334 -8.5 -41.001c0 -25.333 8.33301 -47 25 -65s43 -27 79 -27v-99c-35.333 0 -66.166 5 -92.499 15s-48 23.833 -65 41.5
s-29.667 38 -38 61s-12.5 47.5 -12.5 73.5c0 29.333 5 56.5 15 81.5s25.833 46.5 47.5 64.5s49.5 32.167 83.5 42.5s75.333 15.5 124 15.5h105v-700h-105zM178.999 755.001v50h326v-50h-326z" />
    <glyph glyph-name="imacron" unicode="&#x12b;" horiz-adv-x="300" 
d="M-12 755v50h326v-50h-326zM97 0v700h105v-700h-105z" />
    <glyph glyph-name="Iogonek" unicode="&#x12e;" horiz-adv-x="469" 
d="M397 -151c-8 -3.33301 -16.6641 -6.00195 -25.9971 -8.00195s-19.333 -3 -30 -3c-23.333 0 -41.333 6.33301 -54 19s-19 29.334 -19 50.001c0 12 1.83301 22.833 5.5 32.5s8.5 18.334 14.5 26.001s12.5 14.334 19.5 20.001s13.833 10.5 20.5 14.5h-39v601
c-30.667 0 -56.334 -2.66699 -77.001 -8s-37.334 -12.666 -50.001 -21.999s-21.667 -20.333 -27 -33s-8 -26.334 -8 -41.001c0 -10 1.83301 -20.5 5.5 -31.5s9.5 -21 17.5 -30s18.333 -16.5 31 -22.5s28 -9 46 -9v-99c-35.333 0 -66.166 5 -92.499 15s-48 23.833 -65 41.5
s-29.667 38 -38 61s-12.5 47.5 -12.5 73.5c0 32 5.5 60.667 16.5 86s28.333 46.666 52 63.999s54.167 30.666 91.5 39.999s82.333 14 135 14h80v-700c-2.66699 -2 -7.5 -5.16699 -14.5 -9.5s-14 -9.66602 -21 -15.999s-13.167 -13.833 -18.5 -22.5s-8 -18.334 -8 -29.001
c0 -13.333 4 -22.166 12 -26.499s16.667 -6.5 26 -6.5c3.33301 0 6.66602 0.166992 9.99902 0.5s6.66602 0.833008 9.99902 1.5z" />
    <glyph glyph-name="iogonek" unicode="&#x12f;" horiz-adv-x="283" 
d="M211 -151c-8 -3.33301 -16.833 -6.00391 -26.5 -8.00391s-19.5 -3 -29.5 -3c-23.333 0 -41.333 6.33301 -54 19s-19 29.334 -19 50.001c0 12 1.83301 22.833 5.5 32.5s8.5 18.334 14.5 26.001s12.5 14.334 19.5 20.001s13.833 10.5 20.5 14.5h-39v700h105v-700
c-2.66699 -2 -7.5 -5.16699 -14.5 -9.5s-14 -9.66602 -21 -15.999s-13.167 -13.833 -18.5 -22.5s-8 -18.334 -8 -29.001c0 -13.333 3.83301 -22.166 11.5 -26.499s16.167 -6.5 25.5 -6.5c3.33301 0 6.83301 0.166992 10.5 0.5s7.16699 0.833008 10.5 1.5z" />
    <glyph glyph-name="Idotaccent" unicode="&#x130;" horiz-adv-x="474" 
d="M289 0l-0.000976562 601.001c-30.667 0 -56.667 -2.83301 -78 -8.5s-38.5 -13.167 -51.5 -22.5s-22.333 -20.333 -28 -33s-8.5 -26.334 -8.5 -41.001c0 -25.333 8.33301 -47 25 -65s43 -27 79 -27v-99c-35.333 0 -66.166 5 -92.499 15s-48 23.833 -65 41.5
s-29.667 38 -38 61s-12.5 47.5 -12.5 73.5c0 29.333 5 56.5 15 81.5s25.833 46.5 47.5 64.5s49.5 32.167 83.5 42.5s75.333 15.5 124 15.5h105v-700h-105zM341.999 737.001c-13.333 0 -24.167 4.33301 -32.5 13s-12.5 19.334 -12.5 32.001s4.16699 23.334 12.5 32.001
s19.166 13 32.499 13c12 0 22.5 -4.33301 31.5 -13s13.5 -19.334 13.5 -32.001s-4.16699 -23.334 -12.5 -32.001s-19.166 -13 -32.499 -13z" />
    <glyph glyph-name="dotlessi" unicode="&#x131;" horiz-adv-x="255" 
d="M75 0v700h105v-700h-105z" />
    <glyph glyph-name="uni0136" unicode="&#x136;" horiz-adv-x="817" 
d="M671 0l-277.001 316.001v-316h-105v601c-30.667 0 -56.667 -2.83301 -78 -8.5s-38.5 -13.167 -51.5 -22.5s-22.333 -20.333 -28 -33s-8.5 -26.334 -8.5 -41.001c0 -25.333 8.33301 -47 25 -65s43 -27 79 -27v-99c-35.333 0 -66.166 5 -92.499 15s-48 23.833 -65 41.5
s-29.667 38 -38 61s-12.5 47.5 -12.5 73.5c0 29.333 5 56.5 15 81.5s25.833 46.5 47.5 64.5s49.5 32.167 83.5 42.5s75.333 15.5 124 15.5h105v-317l277 317h128l-303 -350l303 -350h-128zM487.999 -190.999c8.66699 9.33301 15.833 17.833 21.5 25.5
s10.167 15.167 13.5 22.5c-13.333 0 -24.166 4.5 -32.499 13.5s-12.5 19.833 -12.5 32.5s4.5 23.667 13.5 33s19.833 14 32.5 14s23.5 -4.5 32.5 -13.5s13.5 -20.167 13.5 -33.5c0 -22 -4.83301 -43 -14.5 -63s-22.834 -38.333 -39.501 -55z" />
    <glyph glyph-name="uni0137" unicode="&#x137;" horiz-adv-x="602" 
d="M456 0l-276 316v-316h-105v700h105v-317l276 317h128l-303 -350l303 -350h-128zM265 -191c8.66699 9.33301 15.833 17.833 21.5 25.5s10.167 15.167 13.5 22.5c-13.333 0 -24.166 4.5 -32.499 13.5s-12.5 19.833 -12.5 32.5s4.5 23.667 13.5 33s19.833 14 32.5 14
s23.5 -4.5 32.5 -13.5s13.5 -20.167 13.5 -33.5c0 -22 -4.83301 -43 -14.5 -63s-22.834 -38.333 -39.501 -55z" />
    <glyph glyph-name="Lacute" unicode="&#x139;" horiz-adv-x="701" 
d="M289 0l-0.000976562 601.001c-30.667 0 -56.667 -2.83301 -78 -8.5s-38.5 -13.167 -51.5 -22.5s-22.333 -20.333 -28 -33s-8.5 -26.334 -8.5 -41.001c0 -25.333 8.33301 -47 25 -65s43 -27 79 -27v-99c-35.333 0 -66.166 5 -92.499 15s-48 23.833 -65 41.5
s-29.667 38 -38 61s-12.5 47.5 -12.5 73.5c0 29.333 5 56.5 15 81.5s25.833 46.5 47.5 64.5s49.5 32.167 83.5 42.5s75.333 15.5 124 15.5h105v-601h290v-99h-395zM256.999 745.001l-15 30l170 92l45 -61z" />
    <glyph glyph-name="lacute" unicode="&#x13a;" horiz-adv-x="487" 
d="M470 0h-395v700h105v-601h290v-99zM150 745l-15 30l170 92l45 -61z" />
    <glyph glyph-name="uni013B" unicode="&#x13b;" horiz-adv-x="701" 
d="M289 0l-0.000976562 601.001c-30.667 0 -56.667 -2.83301 -78 -8.5s-38.5 -13.167 -51.5 -22.5s-22.333 -20.333 -28 -33s-8.5 -26.334 -8.5 -41.001c0 -25.333 8.33301 -47 25 -65s43 -27 79 -27v-99c-35.333 0 -66.166 5 -92.499 15s-48 23.833 -65 41.5
s-29.667 38 -38 61s-12.5 47.5 -12.5 73.5c0 29.333 5 56.5 15 81.5s25.833 46.5 47.5 64.5s49.5 32.167 83.5 42.5s75.333 15.5 124 15.5h105v-601h290v-99h-395zM463.999 -190.999c8.66699 9.33301 15.833 17.833 21.5 25.5s10.167 15.167 13.5 22.5
c-13.333 0 -24.166 4.5 -32.499 13.5s-12.5 19.833 -12.5 32.5s4.5 23.667 13.5 33s19.833 14 32.5 14s23.5 -4.5 32.5 -13.5s13.5 -20.167 13.5 -33.5c0 -22 -4.83301 -43 -14.5 -63s-22.834 -38.333 -39.501 -55z" />
    <glyph glyph-name="uni013C" unicode="&#x13c;" horiz-adv-x="487" 
d="M470 0h-395v700h105v-601h290v-99zM243 -191c8.66699 9.33301 15.833 17.833 21.5 25.5s10.167 15.167 13.5 22.5c-13.333 0 -24.166 4.5 -32.499 13.5s-12.5 19.833 -12.5 32.5s4.5 23.667 13.5 33s19.833 14 32.5 14s23.5 -4.5 32.5 -13.5s13.5 -20.167 13.5 -33.5
c0 -22 -4.83301 -43 -14.5 -63s-22.834 -38.333 -39.501 -55z" />
    <glyph glyph-name="Lcaron" unicode="&#x13d;" horiz-adv-x="701" 
d="M289 0l-0.000976562 601.001c-30.667 0 -56.667 -2.83301 -78 -8.5s-38.5 -13.167 -51.5 -22.5s-22.333 -20.333 -28 -33s-8.5 -26.334 -8.5 -41.001c0 -25.333 8.33301 -47 25 -65s43 -27 79 -27v-99c-35.333 0 -66.166 5 -92.499 15s-48 23.833 -65 41.5
s-29.667 38 -38 61s-12.5 47.5 -12.5 73.5c0 29.333 5 56.5 15 81.5s25.833 46.5 47.5 64.5s49.5 32.167 83.5 42.5s75.333 15.5 124 15.5h105v-601h290v-99h-395zM368.999 750.001h-82l-85 98h51l74 -55l74 55h53z" />
    <glyph glyph-name="lcaron" unicode="&#x13e;" horiz-adv-x="490" 
d="M473 0h-395v700h105v-601h290v-99zM159 750h-82l-85 98h51l74 -55l74 55h53z" />
    <glyph glyph-name="Lslash" unicode="&#x141;" horiz-adv-x="701" 
d="M289 0v257.999l-101 -70l-45 65l74 52c-34 0.666992 -63.333 6.33398 -88 17.001s-45.167 24.667 -61.5 42s-28.5 37.333 -36.5 60s-12 46.667 -12 72c0 29.333 5 56.5 15 81.5s25.833 46.5 47.5 64.5s49.5 32.167 83.5 42.5s75.333 15.5 124 15.5h105v-272l119 83
l45 -64l-164 -115v-233h290v-99h-395zM227 310.999l62 43.001v247c-30.667 0 -56.667 -2.83301 -78 -8.5s-38.5 -13.167 -51.5 -22.5s-22.333 -20.333 -28 -33s-8.5 -26.334 -8.5 -41.001c0 -11.333 2.16699 -22.333 6.5 -33s10.833 -20.5 19.5 -29.5
s19.5 -16.167 32.5 -21.5s28.167 -8 45.5 -8v-93z" />
    <glyph glyph-name="lslash" unicode="&#x142;" horiz-adv-x="558" 
d="M146 0v259l-101 -71l-45 65l146 102v345h105v-272l119 83l45 -64l-164 -115v-233h290v-99h-395z" />
    <glyph glyph-name="Nacute" unicode="&#x143;" horiz-adv-x="885" 
d="M740 0l-346.001 484.001v-484h-105v601c-30.667 0 -56.667 -2.83301 -78 -8.5s-38.5 -13.167 -51.5 -22.5s-22.333 -20.333 -28 -33s-8.5 -26.334 -8.5 -41.001c0 -25.333 8.33301 -47 25 -65s43 -27 79 -27v-99c-35.333 0 -66.166 5 -92.499 15s-48 23.833 -65 41.5
s-29.667 38 -38 61s-12.5 47.5 -12.5 73.5c0 29.333 5 56.5 15 81.5s25.833 46.5 47.5 64.5s49.5 32.167 83.5 42.5s75.333 15.5 124 15.5h70l346 -484v484h105v-700h-70zM471.999 745.001l-15 30l170 92l45 -61z" />
    <glyph glyph-name="nacute" unicode="&#x144;" horiz-adv-x="671" 
d="M526 0l-346 484v-484h-105v700h70l346 -484v484h105v-700h-70zM242 745l-15 30l170 92l45 -61z" />
    <glyph glyph-name="uni0145" unicode="&#x145;" horiz-adv-x="885" 
d="M740 0l-346.001 484.001v-484h-105v601c-30.667 0 -56.667 -2.83301 -78 -8.5s-38.5 -13.167 -51.5 -22.5s-22.333 -20.333 -28 -33s-8.5 -26.334 -8.5 -41.001c0 -25.333 8.33301 -47 25 -65s43 -27 79 -27v-99c-35.333 0 -66.166 5 -92.499 15s-48 23.833 -65 41.5
s-29.667 38 -38 61s-12.5 47.5 -12.5 73.5c0 29.333 5 56.5 15 81.5s25.833 46.5 47.5 64.5s49.5 32.167 83.5 42.5s75.333 15.5 124 15.5h70l346 -484v484h105v-700h-70zM520.999 -190.999c8.66699 9.33301 15.833 17.833 21.5 25.5s10.167 15.167 13.5 22.5
c-13.333 0 -24.166 4.5 -32.499 13.5s-12.5 19.833 -12.5 32.5s4.5 23.667 13.5 33s19.833 14 32.5 14s23.5 -4.5 32.5 -13.5s13.5 -20.167 13.5 -33.5c0 -22 -4.83301 -43 -14.5 -63s-22.834 -38.333 -39.501 -55z" />
    <glyph glyph-name="uni0146" unicode="&#x146;" horiz-adv-x="671" 
d="M526 0l-346 484v-484h-105v700h70l346 -484v484h105v-700h-70zM299 -191c8.66699 9.33301 15.833 17.833 21.5 25.5s10.167 15.167 13.5 22.5c-13.333 0 -24.166 4.5 -32.499 13.5s-12.5 19.833 -12.5 32.5s4.5 23.667 13.5 33s19.833 14 32.5 14s23.5 -4.5 32.5 -13.5
s13.5 -20.167 13.5 -33.5c0 -22 -4.83301 -43 -14.5 -63s-22.834 -38.333 -39.501 -55z" />
    <glyph glyph-name="Ncaron" unicode="&#x147;" horiz-adv-x="885" 
d="M740 0l-346.001 484.001v-484h-105v601c-30.667 0 -56.667 -2.83301 -78 -8.5s-38.5 -13.167 -51.5 -22.5s-22.333 -20.333 -28 -33s-8.5 -26.334 -8.5 -41.001c0 -25.333 8.33301 -47 25 -65s43 -27 79 -27v-99c-35.333 0 -66.166 5 -92.499 15s-48 23.833 -65 41.5
s-29.667 38 -38 61s-12.5 47.5 -12.5 73.5c0 29.333 5 56.5 15 81.5s25.833 46.5 47.5 64.5s49.5 32.167 83.5 42.5s75.333 15.5 124 15.5h70l346 -484v484h105v-700h-70zM572.999 750.001h-82l-85 98h51l74 -55l74 55h53z" />
    <glyph glyph-name="ncaron" unicode="&#x148;" horiz-adv-x="671" 
d="M526 0l-346 484v-484h-105v700h70l346 -484v484h105v-700h-70zM361 750h-82l-85 98h51l74 -55l74 55h53z" />
    <glyph glyph-name="Omacron" unicode="&#x14c;" horiz-adv-x="700" 
d="M350 625c-29.333 0 -56.166 -5.16699 -80.499 -15.5s-45.333 -26.5 -63 -48.5s-31.5 -50.333 -41.5 -85s-15 -76.667 -15 -126s5 -91.333 15 -126s23.833 -63 41.5 -85s38.667 -38.167 63 -48.5s51.166 -15.5 80.499 -15.5c28.667 0 55.334 5.16699 80.001 15.5
s45.834 26.5 63.501 48.5s31.5 50.333 41.5 85s15 76.667 15 126s-5 91.333 -15 126s-23.833 63 -41.5 85s-38.834 38.167 -63.501 48.5s-51.334 15.5 -80.001 15.5zM350 724c44 0 84.5 -7.5 121.5 -22.5s69.167 -37.833 96.5 -68.5s48.666 -69.5 63.999 -116.5
s23 -102.5 23 -166.5s-7.66699 -119.5 -23 -166.5s-36.666 -85.833 -63.999 -116.5s-59.5 -53.5 -96.5 -68.5s-77.5 -22.5 -121.5 -22.5s-84.5 7.5 -121.5 22.5s-69.167 37.833 -96.5 68.5s-48.666 69.5 -63.999 116.5s-23 102.5 -23 166.5s7.66699 119.5 23 166.5
s36.666 85.833 63.999 116.5s59.5 53.5 96.5 68.5s77.5 22.5 121.5 22.5zM187 755v50h326v-50h-326z" />
    <glyph glyph-name="omacron" unicode="&#x14d;" horiz-adv-x="700" 
d="M350 625c-29.333 0 -56.166 -5.16699 -80.499 -15.5s-45.333 -26.5 -63 -48.5s-31.5 -50.333 -41.5 -85s-15 -76.667 -15 -126s5 -91.333 15 -126s23.833 -63 41.5 -85s38.667 -38.167 63 -48.5s51.166 -15.5 80.499 -15.5c28.667 0 55.334 5.16699 80.001 15.5
s45.834 26.5 63.501 48.5s31.5 50.333 41.5 85s15 76.667 15 126s-5 91.333 -15 126s-23.833 63 -41.5 85s-38.834 38.167 -63.501 48.5s-51.334 15.5 -80.001 15.5zM350 724c44 0 84.5 -7.5 121.5 -22.5s69.167 -37.833 96.5 -68.5s48.666 -69.5 63.999 -116.5
s23 -102.5 23 -166.5s-7.66699 -119.5 -23 -166.5s-36.666 -85.833 -63.999 -116.5s-59.5 -53.5 -96.5 -68.5s-77.5 -22.5 -121.5 -22.5s-84.5 7.5 -121.5 22.5s-69.167 37.833 -96.5 68.5s-48.666 69.5 -63.999 116.5s-23 102.5 -23 166.5s7.66699 119.5 23 166.5
s36.666 85.833 63.999 116.5s59.5 53.5 96.5 68.5s77.5 22.5 121.5 22.5zM187 755v50h326v-50h-326z" />
    <glyph glyph-name="Ohungarumlaut" unicode="&#x150;" horiz-adv-x="700" 
d="M350 625c-29.333 0 -56.166 -5.16699 -80.499 -15.5s-45.333 -26.5 -63 -48.5s-31.5 -50.333 -41.5 -85s-15 -76.667 -15 -126s5 -91.333 15 -126s23.833 -63 41.5 -85s38.667 -38.167 63 -48.5s51.166 -15.5 80.499 -15.5c28.667 0 55.334 5.16699 80.001 15.5
s45.834 26.5 63.501 48.5s31.5 50.333 41.5 85s15 76.667 15 126s-5 91.333 -15 126s-23.833 63 -41.5 85s-38.834 38.167 -63.501 48.5s-51.334 15.5 -80.001 15.5zM350 724c44 0 84.5 -7.5 121.5 -22.5s69.167 -37.833 96.5 -68.5s48.666 -69.5 63.999 -116.5
s23 -102.5 23 -166.5s-7.66699 -119.5 -23 -166.5s-36.666 -85.833 -63.999 -116.5s-59.5 -53.5 -96.5 -68.5s-77.5 -22.5 -121.5 -22.5s-84.5 7.5 -121.5 22.5s-69.167 37.833 -96.5 68.5s-48.666 69.5 -63.999 116.5s-23 102.5 -23 166.5s7.66699 119.5 23 166.5
s36.666 85.833 63.999 116.5s59.5 53.5 96.5 68.5s77.5 22.5 121.5 22.5zM157 745l-15 30l170 92l45 -61zM355 745l-15 30l170 92l46 -61z" />
    <glyph glyph-name="ohungarumlaut" unicode="&#x151;" horiz-adv-x="700" 
d="M350 625c-29.333 0 -56.166 -5.16699 -80.499 -15.5s-45.333 -26.5 -63 -48.5s-31.5 -50.333 -41.5 -85s-15 -76.667 -15 -126s5 -91.333 15 -126s23.833 -63 41.5 -85s38.667 -38.167 63 -48.5s51.166 -15.5 80.499 -15.5c28.667 0 55.334 5.16699 80.001 15.5
s45.834 26.5 63.501 48.5s31.5 50.333 41.5 85s15 76.667 15 126s-5 91.333 -15 126s-23.833 63 -41.5 85s-38.834 38.167 -63.501 48.5s-51.334 15.5 -80.001 15.5zM350 724c44 0 84.5 -7.5 121.5 -22.5s69.167 -37.833 96.5 -68.5s48.666 -69.5 63.999 -116.5
s23 -102.5 23 -166.5s-7.66699 -119.5 -23 -166.5s-36.666 -85.833 -63.999 -116.5s-59.5 -53.5 -96.5 -68.5s-77.5 -22.5 -121.5 -22.5s-84.5 7.5 -121.5 22.5s-69.167 37.833 -96.5 68.5s-48.666 69.5 -63.999 116.5s-23 102.5 -23 166.5s7.66699 119.5 23 166.5
s36.666 85.833 63.999 116.5s59.5 53.5 96.5 68.5s77.5 22.5 121.5 22.5zM157 745l-15 30l170 92l45 -61zM355 745l-15 30l170 92l46 -61z" />
    <glyph glyph-name="OE" unicode="&#x152;" horiz-adv-x="935" 
d="M475 0v63c-20 -30 -44 -52 -72 -66s-59.333 -21 -94 -21c-35.333 0 -69 7.5 -101 22.5s-60 37.833 -84 68.5s-43.167 69.5 -57.5 116.5s-21.5 102.5 -21.5 166.5s7.16699 119.5 21.5 166.5s33.5 85.833 57.5 116.5s52 53.5 84 68.5s65.667 22.5 101 22.5
c70.667 0 126 -29.333 166 -88v64h410v-99h-305v-202h255v-99h-255v-201h305v-99h-410zM314 75c24 0 45.999 5 65.999 15s37 26 51 48s24.833 50.333 32.5 85s11.5 76.667 11.5 126s-3.83301 91.5 -11.5 126.5s-18.5 63.5 -32.5 85.5s-30.833 38.167 -50.5 48.5
s-41.5 15.5 -65.5 15.5c-23.333 0 -45.166 -5.16699 -65.499 -15.5s-37.833 -26.5 -52.5 -48.5s-26.167 -50.333 -34.5 -85s-12.5 -76.667 -12.5 -126s4.16699 -91.333 12.5 -126s20 -63 35 -85s32.333 -38.167 52 -48.5s41.167 -15.5 64.5 -15.5z" />
    <glyph glyph-name="oe" unicode="&#x153;" horiz-adv-x="935" 
d="M475 0v63c-20 -30 -44 -52 -72 -66s-59.333 -21 -94 -21c-35.333 0 -69 7.5 -101 22.5s-60 37.833 -84 68.5s-43.167 69.5 -57.5 116.5s-21.5 102.5 -21.5 166.5s7.16699 119.5 21.5 166.5s33.5 85.833 57.5 116.5s52 53.5 84 68.5s65.667 22.5 101 22.5
c70.667 0 126 -29.333 166 -88v64h410v-99h-305v-202h255v-99h-255v-201h305v-99h-410zM314 75c24 0 45.999 5 65.999 15s37 26 51 48s24.833 50.333 32.5 85s11.5 76.667 11.5 126s-3.83301 91.5 -11.5 126.5s-18.5 63.5 -32.5 85.5s-30.833 38.167 -50.5 48.5
s-41.5 15.5 -65.5 15.5c-23.333 0 -45.166 -5.16699 -65.499 -15.5s-37.833 -26.5 -52.5 -48.5s-26.167 -50.333 -34.5 -85s-12.5 -76.667 -12.5 -126s4.16699 -91.333 12.5 -126s20 -63 35 -85s32.333 -38.167 52 -48.5s41.167 -15.5 64.5 -15.5z" />
    <glyph glyph-name="Racute" unicode="&#x154;" horiz-adv-x="814" 
d="M668 0l-151.002 239.999h-123v-240h-105v597c-30.667 0 -56.667 -2.5 -78 -7.5s-38.5 -12 -51.5 -21s-22.333 -19.667 -28 -32s-8.5 -25.833 -8.5 -40.5c0 -24 8.33301 -44.667 25 -62s43 -26 79 -26v-103c-35.333 0 -66.166 5 -92.499 15s-48 23.833 -65 41.5
s-29.667 38 -38 61s-12.5 47.5 -12.5 73.5c0 29.333 5 56.5 15 81.5s25.833 46.5 47.5 64.5s49.5 32.167 83.5 42.5s75.333 15.5 124 15.5h255c30.667 0 60 -4.5 88 -13.5s52.5 -23 73.5 -42s37.667 -43.167 50 -72.5s18.5 -64 18.5 -104
c0 -61.333 -13.667 -109.666 -41 -144.999s-62.666 -59.333 -105.999 -72l160 -251h-119zM543.998 338.999c16.667 0 32.667 2.16699 48 6.5s28.666 11.5 39.999 21.5s20.333 23.333 27 40s10 37.334 10 62.001s-3.33301 45.5 -10 62.5s-15.667 30.667 -27 41
s-24.666 17.666 -39.999 21.999s-31.333 6.5 -48 6.5h-150v-262h150zM408.998 744.999l-15 30l170 92l45 -61z" />
    <glyph glyph-name="racute" unicode="&#x155;" horiz-adv-x="601" 
d="M454 0l-150 240h-123v-240h-105v700h255c30.667 0 60 -4.5 88 -13.5s52.5 -23 73.5 -42s37.667 -43 50 -72s18.5 -63.5 18.5 -103.5c0 -30.667 -3.66699 -58.167 -11 -82.5s-17.5 -45.5 -30.5 -63.5s-28.5 -33 -46.5 -45s-37.667 -21 -59 -27l160 -251h-120zM331 339
c16.667 0 32.5 2.16699 47.5 6.5s28.333 11.5 40 21.5s20.834 23.333 27.501 40s10 37.334 10 62.001s-3.33301 45.5 -10 62.5s-15.834 30.667 -27.501 41s-25 17.666 -40 21.999s-30.833 6.5 -47.5 6.5h-150v-262h150zM207 745l-15 30l170 92l45 -61z" />
    <glyph glyph-name="uni0156" unicode="&#x156;" horiz-adv-x="814" 
d="M668 0l-151.002 239.999h-123v-240h-105v597c-30.667 0 -56.667 -2.5 -78 -7.5s-38.5 -12 -51.5 -21s-22.333 -19.667 -28 -32s-8.5 -25.833 -8.5 -40.5c0 -24 8.33301 -44.667 25 -62s43 -26 79 -26v-103c-35.333 0 -66.166 5 -92.499 15s-48 23.833 -65 41.5
s-29.667 38 -38 61s-12.5 47.5 -12.5 73.5c0 29.333 5 56.5 15 81.5s25.833 46.5 47.5 64.5s49.5 32.167 83.5 42.5s75.333 15.5 124 15.5h255c30.667 0 60 -4.5 88 -13.5s52.5 -23 73.5 -42s37.667 -43.167 50 -72.5s18.5 -64 18.5 -104
c0 -61.333 -13.667 -109.666 -41 -144.999s-62.666 -59.333 -105.999 -72l160 -251h-119zM543.998 338.999c16.667 0 32.667 2.16699 48 6.5s28.666 11.5 39.999 21.5s20.333 23.333 27 40s10 37.334 10 62.001s-3.33301 45.5 -10 62.5s-15.667 30.667 -27 41
s-24.666 17.666 -39.999 21.999s-31.333 6.5 -48 6.5h-150v-262h150zM483.998 -191.001c8.66699 9.33301 15.833 17.833 21.5 25.5s10.167 15.167 13.5 22.5c-13.333 0 -24.166 4.5 -32.499 13.5s-12.5 19.833 -12.5 32.5s4.5 23.667 13.5 33s19.833 14 32.5 14
s23.5 -4.5 32.5 -13.5s13.5 -20.167 13.5 -33.5c0 -22 -4.83301 -43 -14.5 -63s-22.834 -38.333 -39.501 -55z" />
    <glyph glyph-name="uni0157" unicode="&#x157;" horiz-adv-x="601" 
d="M454 0l-150 240h-123v-240h-105v700h255c30.667 0 60 -4.5 88 -13.5s52.5 -23 73.5 -42s37.667 -43 50 -72s18.5 -63.5 18.5 -103.5c0 -30.667 -3.66699 -58.167 -11 -82.5s-17.5 -45.5 -30.5 -63.5s-28.5 -33 -46.5 -45s-37.667 -21 -59 -27l160 -251h-120zM331 339
c16.667 0 32.5 2.16699 47.5 6.5s28.333 11.5 40 21.5s20.834 23.333 27.501 40s10 37.334 10 62.001s-3.33301 45.5 -10 62.5s-15.834 30.667 -27.501 41s-25 17.666 -40 21.999s-30.833 6.5 -47.5 6.5h-150v-262h150zM264 -191c8.66699 9.33301 15.833 17.833 21.5 25.5
s10.167 15.167 13.5 22.5c-13.333 0 -24.166 4.5 -32.499 13.5s-12.5 19.833 -12.5 32.5s4.5 23.667 13.5 33s19.833 14 32.5 14s23.5 -4.5 32.5 -13.5s13.5 -20.167 13.5 -33.5c0 -22 -4.83301 -43 -14.5 -63s-22.834 -38.333 -39.501 -55z" />
    <glyph glyph-name="Rcaron" unicode="&#x158;" horiz-adv-x="814" 
d="M668 0l-151.002 239.999h-123v-240h-105v597c-30.667 0 -56.667 -2.5 -78 -7.5s-38.5 -12 -51.5 -21s-22.333 -19.667 -28 -32s-8.5 -25.833 -8.5 -40.5c0 -24 8.33301 -44.667 25 -62s43 -26 79 -26v-103c-35.333 0 -66.166 5 -92.499 15s-48 23.833 -65 41.5
s-29.667 38 -38 61s-12.5 47.5 -12.5 73.5c0 29.333 5 56.5 15 81.5s25.833 46.5 47.5 64.5s49.5 32.167 83.5 42.5s75.333 15.5 124 15.5h255c30.667 0 60 -4.5 88 -13.5s52.5 -23 73.5 -42s37.667 -43.167 50 -72.5s18.5 -64 18.5 -104
c0 -61.333 -13.667 -109.666 -41 -144.999s-62.666 -59.333 -105.999 -72l160 -251h-119zM543.998 338.999c16.667 0 32.667 2.16699 48 6.5s28.666 11.5 39.999 21.5s20.333 23.333 27 40s10 37.334 10 62.001s-3.33301 45.5 -10 62.5s-15.667 30.667 -27 41
s-24.666 17.666 -39.999 21.999s-31.333 6.5 -48 6.5h-150v-262h150zM518.998 749.999h-82l-85 98h51l74 -55l74 55h53z" />
    <glyph glyph-name="rcaron" unicode="&#x159;" horiz-adv-x="601" 
d="M454 0l-150 240h-123v-240h-105v700h255c30.667 0 60 -4.5 88 -13.5s52.5 -23 73.5 -42s37.667 -43 50 -72s18.5 -63.5 18.5 -103.5c0 -30.667 -3.66699 -58.167 -11 -82.5s-17.5 -45.5 -30.5 -63.5s-28.5 -33 -46.5 -45s-37.667 -21 -59 -27l160 -251h-120zM331 339
c16.667 0 32.5 2.16699 47.5 6.5s28.333 11.5 40 21.5s20.834 23.333 27.501 40s10 37.334 10 62.001s-3.33301 45.5 -10 62.5s-15.834 30.667 -27.501 41s-25 17.666 -40 21.999s-30.833 6.5 -47.5 6.5h-150v-262h150zM326 750h-82l-85 98h51l74 -55l74 55h53z" />
    <glyph glyph-name="Sacute" unicode="&#x15a;" horiz-adv-x="593" 
d="M86 143c24 -21.333 54.3301 -37.8311 90.9971 -49.498s73 -17.5 109 -17.5c20.667 0 40.834 2.33301 60.501 7s37 11.667 52 21s27.167 21.5 36.5 36.5s14 32.833 14 53.5c0 18 -3.66699 32.833 -11 44.5s-18 21.167 -32 28.5s-30.833 13.333 -50.5 18
s-41.834 9.66699 -66.501 15c-33.333 6 -64.666 13.167 -93.999 21.5s-54.833 19.666 -76.5 33.999s-38.834 33 -51.501 56s-19 52.167 -19 87.5c0 38 7.16699 71 21.5 99s33.333 51.333 57 70s50.834 32.667 81.501 42s62.334 14 95.001 14c41.333 0 83.333 -7 126 -21
s80 -33.667 112 -59l-58 -83c-22 19.333 -49.167 34.666 -81.5 45.999s-64.5 17 -96.5 17c-19.333 0 -38.166 -2.33301 -56.499 -7s-34.5 -11.834 -48.5 -21.501s-25.333 -21.834 -34 -36.501s-13 -32.334 -13 -53.001c0 -19.333 3.66699 -35 11 -47s17.333 -21.667 30 -29
s27.167 -13.166 43.5 -17.499s33.5 -8.16602 51.5 -11.499c37.333 -7.33301 72.166 -15.166 104.499 -23.499s60.333 -19.833 84 -34.5s42.334 -33.334 56.001 -56.001s20.5 -51.667 20.5 -87c0 -38 -7.5 -71 -22.5 -99s-35 -51.167 -60 -69.5s-53.667 -32.166 -86 -41.499
s-65.833 -14 -100.5 -14c-48 0 -94.5 7.83301 -139.5 23.5s-83.833 36.167 -116.5 61.5zM237.997 745.002l-15 30l170 92l45 -61z" />
    <glyph glyph-name="sacute" unicode="&#x15b;" horiz-adv-x="593" 
d="M86 143c24 -21.333 54.3291 -37.833 90.9961 -49.5s73 -17.5 109 -17.5c20.667 0 40.834 2.16699 60.501 6.5s37 11.333 52 21s27.167 22 36.5 37s14 33.167 14 54.5c0 18.667 -3.66699 33.667 -11 45s-18 20.666 -32 27.999s-30.833 13.166 -50.5 17.499l-66.5 14.5
c-33.333 6 -64.666 13.167 -93.999 21.5s-54.833 19.666 -76.5 33.999s-38.834 32.833 -51.501 55.5s-19 51.667 -19 87c0 38 7.16699 71.167 21.5 99.5s33.333 51.833 57 70.5s50.834 32.667 81.501 42s62.334 14 95.001 14c40 0 80.833 -7 122.5 -21
s78.5 -33.667 110.5 -59l-58 -83c-21.333 19.333 -47.833 34.666 -79.5 45.999s-62.834 17 -93.501 17c-19.333 0 -38.166 -2.33301 -56.499 -7s-34.5 -11.667 -48.5 -21s-25.333 -21.666 -34 -36.999s-13 -33.333 -13 -54c0 -18.667 3.5 -34 10.5 -46
s16.667 -21.667 29 -29s26.833 -13.166 43.5 -17.499s34.334 -8.16602 53.001 -11.499c37.333 -7.33301 72.166 -15.166 104.499 -23.499s60.333 -19.833 84 -34.5s42.334 -33.334 56.001 -56.001s20.5 -51.667 20.5 -87c0 -38 -7.5 -71 -22.5 -99s-35 -51.167 -60 -69.5
s-53.667 -32.166 -86 -41.499s-65.833 -14 -100.5 -14c-48 0 -94.5 7.83301 -139.5 23.5s-83.833 36.167 -116.5 61.5zM217.996 745l-15 30l170 92l45 -61z" />
    <glyph glyph-name="Scedilla" unicode="&#x15e;" horiz-adv-x="593" 
d="M239 -134c4 -2 8.66211 -4.82715 13.9951 -8.49414s12.333 -5.5 21 -5.5s15.667 2.16699 21 6.5s8 10.166 8 17.499c0 9.33301 -4.5 16 -13.5 20l-28.5 13l-11 5l21 62c-46 2 -90.167 10.5 -132.5 25.5s-78.833 34.833 -109.5 59.5l57 82
c24 -21.333 54.333 -37.833 91 -49.5s73 -17.5 109 -17.5c20.667 0 40.834 2.33301 60.501 7s37 11.667 52 21s27.167 21.5 36.5 36.5s14 32.833 14 53.5c0 18 -3.66699 32.833 -11 44.5s-18 21.167 -32 28.5s-30.833 13.333 -50.5 18s-41.834 9.66699 -66.501 15
c-33.333 6 -64.666 13.167 -93.999 21.5s-54.833 19.666 -76.5 33.999s-38.834 33 -51.501 56s-19 52.167 -19 87.5c0 38 7.16699 71 21.5 99s33.333 51.333 57 70s50.834 32.667 81.501 42s62.334 14 95.001 14c41.333 0 83.333 -7 126 -21s80 -33.667 112 -59l-58 -83
c-22 19.333 -49.167 34.666 -81.5 45.999s-64.5 17 -96.5 17c-19.333 0 -38.166 -2.33301 -56.499 -7s-34.5 -11.834 -48.5 -21.501s-25.333 -21.834 -34 -36.501s-13 -32.334 -13 -53.001c0 -19.333 3.66699 -35 11 -47s17.333 -21.667 30 -29s27.167 -13.166 43.5 -17.499
s33.5 -8.16602 51.5 -11.499c37.333 -7.33301 72.166 -15.166 104.499 -23.499s60.333 -19.833 84 -34.5s42.334 -33.334 56.001 -56.001s20.5 -51.667 20.5 -87c0 -34.667 -6.33301 -65.167 -19 -91.5s-29.834 -48.833 -51.501 -67.5s-46.667 -33.167 -75 -43.5
s-58.166 -16.833 -89.499 -19.5l-8 -30l10 -4c13.333 -5.33301 25 -13.5 35 -24.5s15 -25.833 15 -44.5c0 -22.667 -7.66699 -39.834 -23 -51.501s-34.666 -17.5 -57.999 -17.5c-17.333 0 -31.166 2.66699 -41.499 8s-19.833 10.666 -28.5 15.999z" />
    <glyph glyph-name="scedilla" unicode="&#x15f;" horiz-adv-x="593" 
d="M239 -134c4 -2 8.66113 -4.8291 13.9941 -8.49609s12.333 -5.5 21 -5.5s15.667 2.16699 21 6.5s8 10.166 8 17.499c0 9.33301 -4.5 16 -13.5 20l-28.5 13l-11 5l21 62c-46 2 -90.167 10.5 -132.5 25.5s-78.833 34.833 -109.5 59.5l57 82
c24 -21.333 54.333 -37.833 91 -49.5s73 -17.5 109 -17.5c20.667 0 40.834 2.16699 60.501 6.5s37 11.333 52 21s27.167 22 36.5 37s14 33.167 14 54.5c0 18.667 -3.66699 33.667 -11 45s-18 20.666 -32 27.999s-30.833 13.166 -50.5 17.499l-66.5 14.5
c-33.333 6 -64.666 13.167 -93.999 21.5s-54.833 19.666 -76.5 33.999s-38.834 32.833 -51.501 55.5s-19 51.667 -19 87c0 38 7.16699 71.167 21.5 99.5s33.333 51.833 57 70.5s50.834 32.667 81.501 42s62.334 14 95.001 14c40 0 80.833 -7 122.5 -21
s78.5 -33.667 110.5 -59l-58 -83c-21.333 19.333 -47.833 34.666 -79.5 45.999s-62.834 17 -93.501 17c-19.333 0 -38.166 -2.33301 -56.499 -7s-34.5 -11.667 -48.5 -21s-25.333 -21.666 -34 -36.999s-13 -33.333 -13 -54c0 -18.667 3.5 -34 10.5 -46
s16.667 -21.667 29 -29s26.833 -13.166 43.5 -17.499s34.334 -8.16602 53.001 -11.499c37.333 -7.33301 72.166 -15.166 104.499 -23.499s60.333 -19.833 84 -34.5s42.334 -33.334 56.001 -56.001s20.5 -51.667 20.5 -87c0 -34.667 -6.33301 -65.167 -19 -91.5
s-29.834 -48.833 -51.501 -67.5s-46.667 -33.167 -75 -43.5s-58.166 -16.833 -89.499 -19.5l-8 -30l10 -4c13.333 -5.33301 25 -13.5 35 -24.5s15 -25.833 15 -44.5c0 -22.667 -7.66699 -39.834 -23 -51.501s-34.666 -17.5 -57.999 -17.5
c-17.333 0 -31.166 2.66699 -41.499 8s-19.833 10.666 -28.5 15.999z" />
    <glyph glyph-name="Scaron" unicode="&#x160;" horiz-adv-x="593" 
d="M86 143c24 -21.333 54.3301 -37.8311 90.9971 -49.498s73 -17.5 109 -17.5c20.667 0 40.834 2.33301 60.501 7s37 11.667 52 21s27.167 21.5 36.5 36.5s14 32.833 14 53.5c0 18 -3.66699 32.833 -11 44.5s-18 21.167 -32 28.5s-30.833 13.333 -50.5 18
s-41.834 9.66699 -66.501 15c-33.333 6 -64.666 13.167 -93.999 21.5s-54.833 19.666 -76.5 33.999s-38.834 33 -51.501 56s-19 52.167 -19 87.5c0 38 7.16699 71 21.5 99s33.333 51.333 57 70s50.834 32.667 81.501 42s62.334 14 95.001 14c41.333 0 83.333 -7 126 -21
s80 -33.667 112 -59l-58 -83c-22 19.333 -49.167 34.666 -81.5 45.999s-64.5 17 -96.5 17c-19.333 0 -38.166 -2.33301 -56.499 -7s-34.5 -11.834 -48.5 -21.501s-25.333 -21.834 -34 -36.501s-13 -32.334 -13 -53.001c0 -19.333 3.66699 -35 11 -47s17.333 -21.667 30 -29
s27.167 -13.166 43.5 -17.499s33.5 -8.16602 51.5 -11.499c37.333 -7.33301 72.166 -15.166 104.499 -23.499s60.333 -19.833 84 -34.5s42.334 -33.334 56.001 -56.001s20.5 -51.667 20.5 -87c0 -38 -7.5 -71 -22.5 -99s-35 -51.167 -60 -69.5s-53.667 -32.166 -86 -41.499
s-65.833 -14 -100.5 -14c-48 0 -94.5 7.83301 -139.5 23.5s-83.833 36.167 -116.5 61.5zM321.997 750.002h-82l-85 98h51l74 -55l74 55h53z" />
    <glyph glyph-name="scaron" unicode="&#x161;" horiz-adv-x="593" 
d="M86 143c24 -21.333 54.3291 -37.833 90.9961 -49.5s73 -17.5 109 -17.5c20.667 0 40.834 2.16699 60.501 6.5s37 11.333 52 21s27.167 22 36.5 37s14 33.167 14 54.5c0 18.667 -3.66699 33.667 -11 45s-18 20.666 -32 27.999s-30.833 13.166 -50.5 17.499l-66.5 14.5
c-33.333 6 -64.666 13.167 -93.999 21.5s-54.833 19.666 -76.5 33.999s-38.834 32.833 -51.501 55.5s-19 51.667 -19 87c0 38 7.16699 71.167 21.5 99.5s33.333 51.833 57 70.5s50.834 32.667 81.501 42s62.334 14 95.001 14c40 0 80.833 -7 122.5 -21
s78.5 -33.667 110.5 -59l-58 -83c-21.333 19.333 -47.833 34.666 -79.5 45.999s-62.834 17 -93.501 17c-19.333 0 -38.166 -2.33301 -56.499 -7s-34.5 -11.667 -48.5 -21s-25.333 -21.666 -34 -36.999s-13 -33.333 -13 -54c0 -18.667 3.5 -34 10.5 -46
s16.667 -21.667 29 -29s26.833 -13.166 43.5 -17.499s34.334 -8.16602 53.001 -11.499c37.333 -7.33301 72.166 -15.166 104.499 -23.499s60.333 -19.833 84 -34.5s42.334 -33.334 56.001 -56.001s20.5 -51.667 20.5 -87c0 -38 -7.5 -71 -22.5 -99s-35 -51.167 -60 -69.5
s-53.667 -32.166 -86 -41.499s-65.833 -14 -100.5 -14c-48 0 -94.5 7.83301 -139.5 23.5s-83.833 36.167 -116.5 61.5zM321.996 750h-82l-85 98h51l74 -55l74 55h53z" />
    <glyph glyph-name="uni0162" unicode="&#x162;" horiz-adv-x="722" 
d="M405 0l-0.000976562 601.001h-116c-30.667 0 -56.667 -2.83301 -78 -8.5s-38.5 -13.167 -51.5 -22.5s-22.333 -20.333 -28 -33s-8.5 -26.334 -8.5 -41.001c0 -25.333 8.33301 -47 25 -65s43 -27 79 -27v-99c-35.333 0 -66.166 5 -92.499 15s-48 23.833 -65 41.5
s-29.667 38 -38 61s-12.5 47.5 -12.5 73.5c0 29.333 5 56.5 15 81.5s25.833 46.5 47.5 64.5s49.5 32.167 83.5 42.5s75.333 15.5 124 15.5h414v-99h-193v-601h-105zM420.999 -190.999c8.66699 9.33301 15.833 17.833 21.5 25.5s10.167 15.167 13.5 22.5
c-13.333 0 -24.166 4.5 -32.499 13.5s-12.5 19.833 -12.5 32.5s4.5 23.667 13.5 33s19.833 14 32.5 14s23.5 -4.5 32.5 -13.5s13.5 -20.167 13.5 -33.5c0 -22 -4.83301 -43 -14.5 -63s-22.834 -38.333 -39.501 -55z" />
    <glyph glyph-name="uni0163" unicode="&#x163;" horiz-adv-x="528" 
d="M211 0v601h-192v99h490v-99h-193v-601h-105zM228 -191c8.66699 9.33301 15.833 17.833 21.5 25.5s10.167 15.167 13.5 22.5c-13.333 0 -24.166 4.5 -32.499 13.5s-12.5 19.833 -12.5 32.5s4.5 23.667 13.5 33s19.833 14 32.5 14s23.5 -4.5 32.5 -13.5
s13.5 -20.167 13.5 -33.5c0 -22 -4.83301 -43 -14.5 -63s-22.834 -38.333 -39.501 -55z" />
    <glyph glyph-name="Tcaron" unicode="&#x164;" horiz-adv-x="722" 
d="M405 0l-0.000976562 601.001h-116c-30.667 0 -56.667 -2.83301 -78 -8.5s-38.5 -13.167 -51.5 -22.5s-22.333 -20.333 -28 -33s-8.5 -26.334 -8.5 -41.001c0 -25.333 8.33301 -47 25 -65s43 -27 79 -27v-99c-35.333 0 -66.166 5 -92.499 15s-48 23.833 -65 41.5
s-29.667 38 -38 61s-12.5 47.5 -12.5 73.5c0 29.333 5 56.5 15 81.5s25.833 46.5 47.5 64.5s49.5 32.167 83.5 42.5s75.333 15.5 124 15.5h414v-99h-193v-601h-105zM484.999 750.001h-82l-85 98h51l74 -55l74 55h53z" />
    <glyph glyph-name="tcaron" unicode="&#x165;" horiz-adv-x="528" 
d="M211 0v601h-192v99h490v-99h-193v-601h-105zM290 750h-82l-85 98h51l74 -55l74 55h53z" />
    <glyph glyph-name="Umacron" unicode="&#x16a;" horiz-adv-x="892" 
d="M718 700l105.003 0.000976562v-467c0 -43.333 -7.5 -81 -22.5 -113s-34.833 -58.667 -59.5 -80s-53 -37.333 -85 -48s-65.333 -16 -100 -16c-34 0 -67.167 5.33301 -99.5 16s-60.833 26.667 -85.5 48s-44.5 48 -59.5 80s-22.5 69.667 -22.5 113v368
c-30.667 0 -56.667 -2.83301 -78 -8.5s-38.5 -13.167 -51.5 -22.5s-22.333 -20.333 -28 -33s-8.5 -26.334 -8.5 -41.001c0 -25.333 8.33301 -47 25 -65s43 -27 79 -27v-99c-35.333 0 -66.166 5 -92.499 15s-48 23.833 -65 41.5s-29.667 38 -38 61s-12.5 47.5 -12.5 73.5
c0 29.333 5 56.5 15 81.5s25.833 46.5 47.5 64.5s49.5 32.167 83.5 42.5s75.333 15.5 124 15.5h105v-472c0 -27.333 4.66699 -50.5 14 -69.5s21.666 -34.833 36.999 -47.5s32.666 -21.834 51.999 -27.501s39 -8.5 59 -8.5s39.667 2.83301 59 8.5
s36.666 14.834 51.999 27.501s27.666 28.5 36.999 47.5s14 42.167 14 69.5v472zM398.003 755.001v50h326v-50h-326z" />
    <glyph glyph-name="umacron" unicode="&#x16b;" horiz-adv-x="672" 
d="M498 700h105.004v-467c0 -43.333 -7.5 -81 -22.5 -113s-34.833 -58.667 -59.5 -80s-53.167 -37.333 -85.5 -48s-65.5 -16 -99.5 -16c-34.667 0 -68 5.33301 -100 16s-60.333 26.667 -85 48s-44.5 48 -59.5 80s-22.5 69.667 -22.5 113v467h105v-472
c0 -27.333 4.66699 -50.5 14 -69.5s21.666 -34.833 36.999 -47.5s32.666 -21.834 51.999 -27.501s39 -8.5 59 -8.5s39.667 2.83301 59 8.5s36.666 14.834 51.999 27.501s27.666 28.5 36.999 47.5s14 42.167 14 69.5v472zM173.004 755v50h326v-50h-326z" />
    <glyph glyph-name="Uring" unicode="&#x16e;" horiz-adv-x="892" 
d="M718 700l105.003 0.000976562v-467c0 -43.333 -7.5 -81 -22.5 -113s-34.833 -58.667 -59.5 -80s-53 -37.333 -85 -48s-65.333 -16 -100 -16c-34 0 -67.167 5.33301 -99.5 16s-60.833 26.667 -85.5 48s-44.5 48 -59.5 80s-22.5 69.667 -22.5 113v368
c-30.667 0 -56.667 -2.83301 -78 -8.5s-38.5 -13.167 -51.5 -22.5s-22.333 -20.333 -28 -33s-8.5 -26.334 -8.5 -41.001c0 -25.333 8.33301 -47 25 -65s43 -27 79 -27v-99c-35.333 0 -66.166 5 -92.499 15s-48 23.833 -65 41.5s-29.667 38 -38 61s-12.5 47.5 -12.5 73.5
c0 29.333 5 56.5 15 81.5s25.833 46.5 47.5 64.5s49.5 32.167 83.5 42.5s75.333 15.5 124 15.5h105v-472c0 -27.333 4.66699 -50.5 14 -69.5s21.666 -34.833 36.999 -47.5s32.666 -21.834 51.999 -27.501s39 -8.5 59 -8.5s39.667 2.83301 59 8.5
s36.666 14.834 51.999 27.501s27.666 28.5 36.999 47.5s14 42.167 14 69.5v472zM554.003 681.001c-24 0 -43.832 8 -59.499 24s-23.5 36 -23.5 60c0 23.333 8 43 24 59s35.667 24 59 24c24 0 44 -8 60 -24s24 -35.667 24 -59c0 -24 -7.83301 -44 -23.5 -60
s-35.834 -24 -60.501 -24zM594.004 765.001c0 11.333 -3.83301 20.833 -11.5 28.5s-17.167 11.5 -28.5 11.5s-20.833 -3.83301 -28.5 -11.5s-11.5 -17.167 -11.5 -28.5s3.83301 -20.833 11.5 -28.5s17.167 -11.5 28.5 -11.5s20.833 3.83301 28.5 11.5s11.5 17.167 11.5 28.5
z" />
    <glyph glyph-name="uring" unicode="&#x16f;" horiz-adv-x="672" 
d="M498 700h105.004v-467c0 -43.333 -7.5 -81 -22.5 -113s-34.833 -58.667 -59.5 -80s-53.167 -37.333 -85.5 -48s-65.5 -16 -99.5 -16c-34.667 0 -68 5.33301 -100 16s-60.333 26.667 -85 48s-44.5 48 -59.5 80s-22.5 69.667 -22.5 113v467h105v-472
c0 -27.333 4.66699 -50.5 14 -69.5s21.666 -34.833 36.999 -47.5s32.666 -21.834 51.999 -27.501s39 -8.5 59 -8.5s39.667 2.83301 59 8.5s36.666 14.834 51.999 27.501s27.666 28.5 36.999 47.5s14 42.167 14 69.5v472zM331.004 681c-24 0 -43.832 8 -59.499 24
s-23.5 36 -23.5 60c0 23.333 8 43 24 59s35.667 24 59 24c24 0 44 -8 60 -24s24 -35.667 24 -59c0 -24 -7.83301 -44 -23.5 -60s-35.834 -24 -60.501 -24zM371.005 765c0 11.333 -3.83301 20.833 -11.5 28.5s-17.167 11.5 -28.5 11.5s-20.833 -3.83301 -28.5 -11.5
s-11.5 -17.167 -11.5 -28.5s3.83301 -20.833 11.5 -28.5s17.167 -11.5 28.5 -11.5s20.833 3.83301 28.5 11.5s11.5 17.167 11.5 28.5z" />
    <glyph glyph-name="Uhungarumlaut" unicode="&#x170;" horiz-adv-x="892" 
d="M718 700l105.003 0.000976562v-467c0 -43.333 -7.5 -81 -22.5 -113s-34.833 -58.667 -59.5 -80s-53 -37.333 -85 -48s-65.333 -16 -100 -16c-34 0 -67.167 5.33301 -99.5 16s-60.833 26.667 -85.5 48s-44.5 48 -59.5 80s-22.5 69.667 -22.5 113v368
c-30.667 0 -56.667 -2.83301 -78 -8.5s-38.5 -13.167 -51.5 -22.5s-22.333 -20.333 -28 -33s-8.5 -26.334 -8.5 -41.001c0 -25.333 8.33301 -47 25 -65s43 -27 79 -27v-99c-35.333 0 -66.166 5 -92.499 15s-48 23.833 -65 41.5s-29.667 38 -38 61s-12.5 47.5 -12.5 73.5
c0 29.333 5 56.5 15 81.5s25.833 46.5 47.5 64.5s49.5 32.167 83.5 42.5s75.333 15.5 124 15.5h105v-472c0 -27.333 4.66699 -50.5 14 -69.5s21.666 -34.833 36.999 -47.5s32.666 -21.834 51.999 -27.501s39 -8.5 59 -8.5s39.667 2.83301 59 8.5
s36.666 14.834 51.999 27.501s27.666 28.5 36.999 47.5s14 42.167 14 69.5v472zM376.003 745.001l-15 30l170 92l45 -61zM574.003 745.001l-15 30l170 92l46 -61z" />
    <glyph glyph-name="uhungarumlaut" unicode="&#x171;" horiz-adv-x="672" 
d="M498 700h105.004v-467c0 -43.333 -7.5 -81 -22.5 -113s-34.833 -58.667 -59.5 -80s-53.167 -37.333 -85.5 -48s-65.5 -16 -99.5 -16c-34.667 0 -68 5.33301 -100 16s-60.333 26.667 -85 48s-44.5 48 -59.5 80s-22.5 69.667 -22.5 113v467h105v-472
c0 -27.333 4.66699 -50.5 14 -69.5s21.666 -34.833 36.999 -47.5s32.666 -21.834 51.999 -27.501s39 -8.5 59 -8.5s39.667 2.83301 59 8.5s36.666 14.834 51.999 27.501s27.666 28.5 36.999 47.5s14 42.167 14 69.5v472zM143.004 745l-15 30l170 92l45 -61zM341.004 745
l-15 30l170 92l46 -61z" />
    <glyph glyph-name="Uogonek" unicode="&#x172;" horiz-adv-x="892" 
d="M680 -151c-8 -3.33301 -16.8311 -6.16602 -26.498 -8.49902s-19.5 -3.5 -29.5 -3.5c-23.333 0 -41.333 6.5 -54 19.5s-19 29.833 -19 50.5c0 15.333 2.83301 28.666 8.5 39.999s12.834 21.333 21.501 30c-4 -0.666992 -8 -1 -12 -1h-13c-34 0 -67.167 5.33301 -99.5 16
s-60.833 26.667 -85.5 48s-44.5 48 -59.5 80s-22.5 69.667 -22.5 113v368c-30.667 0 -56.667 -2.83301 -78 -8.5s-38.5 -13.167 -51.5 -22.5s-22.333 -20.333 -28 -33s-8.5 -26.334 -8.5 -41.001c0 -25.333 8.33301 -47 25 -65s43 -27 79 -27v-99
c-35.333 0 -66.166 5 -92.499 15s-48 23.833 -65 41.5s-29.667 38 -38 61s-12.5 47.5 -12.5 73.5c0 29.333 5 56.5 15 81.5s25.833 46.5 47.5 64.5s49.5 32.167 83.5 42.5s75.333 15.5 124 15.5h105v-472c0 -27.333 4.66699 -50.5 14 -69.5s21.666 -34.833 36.999 -47.5
s32.666 -21.834 51.999 -27.501s39 -8.5 59 -8.5s39.667 2.83301 59 8.5s36.666 14.834 51.999 27.501s27.666 28.5 36.999 47.5s14 42.167 14 69.5v472h105v-467c0 -60 -13.833 -109.333 -41.5 -148s-62.5 -67 -104.5 -85c-2.66699 -2 -7.5 -5.16699 -14.5 -9.5
s-14 -9.66602 -21 -15.999s-13.167 -13.833 -18.5 -22.5s-8 -18.334 -8 -29.001c0 -13.333 3.83301 -22.166 11.5 -26.499s16.167 -6.5 25.5 -6.5c3.33301 0 6.83301 0.166992 10.5 0.5s7.16699 0.833008 10.5 1.5z" />
    <glyph glyph-name="uogonek" unicode="&#x173;" horiz-adv-x="672" 
d="M459 -151c-8 -3.33301 -16.8291 -6.16699 -26.4961 -8.5s-19.5 -3.5 -29.5 -3.5c-23.333 0 -41.333 6.5 -54 19.5s-19 29.833 -19 50.5c0 15.333 2.83301 28.666 8.5 39.999s12.834 21.333 21.501 30c-4 -0.666992 -8 -1 -12 -1h-12c-34.667 0 -68 5.33301 -100 16
s-60.333 26.667 -85 48s-44.5 48 -59.5 80s-22.5 69.667 -22.5 113v467h105v-472c0 -27.333 4.66699 -50.5 14 -69.5s21.666 -34.833 36.999 -47.5s32.666 -21.834 51.999 -27.501s39 -8.5 59 -8.5s39.667 2.83301 59 8.5s36.666 14.834 51.999 27.501
s27.666 28.5 36.999 47.5s14 42.167 14 69.5v472h105v-467c0 -30 -3.83301 -57.5 -11.5 -82.5s-18.167 -47.333 -31.5 -67s-29 -36.5 -47 -50.5s-37.667 -25.333 -59 -34c-3.33301 -2 -8.33301 -5.16699 -15 -9.5s-13.334 -9.83301 -20.001 -16.5s-12.5 -14.167 -17.5 -22.5
s-7.5 -17.5 -7.5 -27.5c0 -13.333 3.83301 -22.166 11.5 -26.499s16.167 -6.5 25.5 -6.5c3.33301 0 6.83301 0.166992 10.5 0.5s7.16699 0.833008 10.5 1.5z" />
    <glyph glyph-name="Ydieresis" unicode="&#x178;" horiz-adv-x="803" 
d="M454 0l-0.00292969 257l-188 343c-26 -1.33301 -48.167 -5 -66.5 -11s-33.166 -13.667 -44.499 -23s-19.5 -20 -24.5 -32s-7.5 -24.667 -7.5 -38c0 -25.333 8.33301 -47 25 -65s43 -27 79 -27v-99c-35.333 0 -66.166 5 -92.499 15s-48 23.833 -65 41.5s-29.667 38 -38 61
s-12.5 47.5 -12.5 73.5c0 29.333 5.16699 56.5 15.5 81.5s26.333 46.5 48 64.5s48.834 32.167 81.501 42.5s71 15.5 115 15.5h48l180 -337l180 337h116l-244 -443v-257h-105zM430.997 740c-13.333 0 -24.167 4.16992 -32.5 12.5029s-12.5 19.166 -12.5 32.499
c0 12 4.16699 22.5 12.5 31.5s19.166 13.5 32.499 13.5c12 0 22.5 -4.33301 31.5 -13s13.5 -19.334 13.5 -32.001s-4.16699 -23.334 -12.5 -32.001s-19.166 -13 -32.499 -13zM580.996 740.003c-13.333 0 -24.1641 4.16992 -32.4971 12.5029s-12.5 19.166 -12.5 32.499
c0 12 4.16699 22.5 12.5 31.5s19.166 13.5 32.499 13.5s24.166 -4.33301 32.499 -13s12.5 -19.334 12.5 -32.001s-4.33301 -23.334 -13 -32.001s-19.334 -13 -32.001 -13z" />
    <glyph glyph-name="Zacute" unicode="&#x179;" horiz-adv-x="673" 
d="M24 0l0.00195312 68.998l329 532h-329v99h464v-69l-329 -532h224c30.667 0 56.667 2.66699 78 8s38.666 12.833 51.999 22.5s22.833 20.834 28.5 33.501s8.5 26.334 8.5 41.001c0 24.667 -8.5 46.167 -25.5 64.5s-43.167 27.5 -78.5 27.5v99
c35.333 0 66.166 -5 92.499 -15s48 -23.833 65 -41.5s29.667 -38 38 -61s12.5 -47.5 12.5 -73.5c0 -29.333 -5 -56.5 -15 -81.5s-25.833 -46.5 -47.5 -64.5s-49.667 -32.167 -84 -42.5s-75.833 -15.5 -124.5 -15.5h-359zM189.002 744.998l-15 30l170 92l45 -61z" />
    <glyph glyph-name="zacute" unicode="&#x17a;" horiz-adv-x="525" 
d="M24 0v69l329 532h-329v99h464v-69l-329 -532h329v-99h-464zM169 745l-15 30l170 92l45 -61z" />
    <glyph glyph-name="Zdotaccent" unicode="&#x17b;" horiz-adv-x="673" 
d="M24 0l0.00195312 68.998l329 532h-329v99h464v-69l-329 -532h224c30.667 0 56.667 2.66699 78 8s38.666 12.833 51.999 22.5s22.833 20.834 28.5 33.501s8.5 26.334 8.5 41.001c0 24.667 -8.5 46.167 -25.5 64.5s-43.167 27.5 -78.5 27.5v99
c35.333 0 66.166 -5 92.499 -15s48 -23.833 65 -41.5s29.667 -38 38 -61s12.5 -47.5 12.5 -73.5c0 -29.333 -5 -56.5 -15 -81.5s-25.833 -46.5 -47.5 -64.5s-49.667 -32.167 -84 -42.5s-75.833 -15.5 -124.5 -15.5h-359zM295.002 736.998
c-13.333 0 -24.167 4.33301 -32.5 13s-12.5 19.334 -12.5 32.001s4.16699 23.334 12.5 32.001s19.166 13 32.499 13c12 0 22.5 -4.33301 31.5 -13s13.5 -19.334 13.5 -32.001s-4.16699 -23.334 -12.5 -32.001s-19.166 -13 -32.499 -13z" />
    <glyph glyph-name="zdotaccent" unicode="&#x17c;" horiz-adv-x="525" 
d="M24 0v69l329 532h-329v99h464v-69l-329 -532h329v-99h-464zM262 737c-13.333 0 -24.167 4.33301 -32.5 13s-12.5 19.334 -12.5 32.001s4.16699 23.334 12.5 32.001s19.166 13 32.499 13c12 0 22.5 -4.33301 31.5 -13s13.5 -19.334 13.5 -32.001
s-4.16699 -23.334 -12.5 -32.001s-19.166 -13 -32.499 -13z" />
    <glyph glyph-name="Zcaron" unicode="&#x17d;" horiz-adv-x="673" 
d="M24 0l0.00195312 68.998l329 532h-329v99h464v-69l-329 -532h224c30.667 0 56.667 2.66699 78 8s38.666 12.833 51.999 22.5s22.833 20.834 28.5 33.501s8.5 26.334 8.5 41.001c0 24.667 -8.5 46.167 -25.5 64.5s-43.167 27.5 -78.5 27.5v99
c35.333 0 66.166 -5 92.499 -15s48 -23.833 65 -41.5s29.667 -38 38 -61s12.5 -47.5 12.5 -73.5c0 -29.333 -5 -56.5 -15 -81.5s-25.833 -46.5 -47.5 -64.5s-49.667 -32.167 -84 -42.5s-75.833 -15.5 -124.5 -15.5h-359zM258.002 749.998h-82l-85 98h51l74 -55l74 55h53z
" />
    <glyph glyph-name="zcaron" unicode="&#x17e;" horiz-adv-x="525" 
d="M24 0v69l329 532h-329v99h464v-69l-329 -532h329v-99h-464zM288 750h-82l-85 98h51l74 -55l74 55h53z" />
    <glyph glyph-name="apostrophe" unicode="&#x2bc;" horiz-adv-x="236" 
d="M55 493c30 30 50.668 56.667 62.001 80c-20.667 0.666992 -37.834 8 -51.501 22s-20.5 31 -20.5 51c0 19.333 7.16699 36.333 21.5 51s31.5 22 51.5 22s37.167 -7.16699 51.5 -21.5s21.5 -31.5 21.5 -51.5c0 -36 -8.16699 -70.167 -24.5 -102.5
s-38.5 -61.833 -66.5 -88.5z" />
    <glyph glyph-name="circumflex" unicode="&#x2c6;" horiz-adv-x="272" 
d="M209 750l-74 55l-74 -55h-51l85 98h82l85 -98h-53z" />
    <glyph glyph-name="caron" unicode="&#x2c7;" horiz-adv-x="272" 
d="M177 750h-82l-85 98h51l74 -55l74 55h53z" />
    <glyph glyph-name="breve" unicode="&#x2d8;" horiz-adv-x="337" 
d="M285 795c-14.667 -14.667 -31.668 -26.5 -51.001 -35.5s-41.333 -13.5 -66 -13.5s-46.667 4.5 -66 13.5s-36.333 20.833 -51 35.5l33 41c20.667 -24 49.334 -36 86.001 -36c32.667 0 60 12 82 36z" />
    <glyph glyph-name="dotaccent" unicode="&#x2d9;" horiz-adv-x="240" 
d="M120 737c-13.333 0 -24.167 4.33301 -32.5 13s-12.5 19.334 -12.5 32.001s4.16699 23.334 12.5 32.001s19.166 13 32.499 13c12 0 22.5 -4.33301 31.5 -13s13.5 -19.334 13.5 -32.001s-4.16699 -23.334 -12.5 -32.001s-19.166 -13 -32.499 -13z" />
    <glyph glyph-name="ring" unicode="&#x2da;" horiz-adv-x="317" 
d="M158 681c-24 0 -43.832 8 -59.499 24s-23.5 36 -23.5 60c0 23.333 8 43 24 59s35.667 24 59 24c24 0 44 -8 60 -24s24 -35.667 24 -59c0 -24 -7.83301 -44 -23.5 -60s-35.834 -24 -60.501 -24zM198.001 765c0 11.333 -3.83301 20.833 -11.5 28.5s-17.167 11.5 -28.5 11.5
s-20.833 -3.83301 -28.5 -11.5s-11.5 -17.167 -11.5 -28.5s3.83301 -20.833 11.5 -28.5s17.167 -11.5 28.5 -11.5s20.833 3.83301 28.5 11.5s11.5 17.167 11.5 28.5z" />
    <glyph glyph-name="ogonek" unicode="&#x2db;" horiz-adv-x="279" 
d="M204 -151c-8 -3.33301 -16.833 -6.16797 -26.5 -8.50098s-19.5 -3.5 -29.5 -3.5c-23.333 0 -41.333 6.5 -54 19.5s-19 29.833 -19 50.5c0 16 3.33301 30 10 42s14.667 22.167 24 30.5s18.5 15.333 27.5 21l21.5 13.5l43 -14c-2.66699 -2 -7.5 -5.16699 -14.5 -9.5
s-14 -9.66602 -21 -15.999s-13.167 -13.833 -18.5 -22.5s-8 -18.334 -8 -29.001c0 -13.333 3.83301 -22.166 11.5 -26.499s16.167 -6.5 25.5 -6.5c3.33301 0 6.83301 0.166992 10.5 0.5s7.16699 0.833008 10.5 1.5z" />
    <glyph glyph-name="tilde" unicode="&#x2dc;" horiz-adv-x="392" 
d="M319 822c-7.33301 -28 -16.499 -48.666 -27.499 -61.999s-26.167 -20 -45.5 -20c-8.66699 0 -17.667 1.5 -27 4.5s-18.333 6.33301 -27 10l-24.5 10c-7.66699 3 -14.5 4.5 -20.5 4.5c-10 0 -17.667 -2.66699 -23 -8s-10.666 -14.333 -15.999 -27l-39 11
c7.33301 28 16.5 48.667 27.5 62s26.167 20 45.5 20c8.66699 0 17.5 -1.5 26.5 -4.5s17.833 -6.33301 26.5 -10s17 -7 25 -10s15 -4.5 21 -4.5c9.33301 0 16.666 2.66699 21.999 8s10.666 14.666 15.999 27.999z" />
    <glyph glyph-name="hungarumlaut" unicode="&#x2dd;" horiz-adv-x="564" 
d="M90 745l-15 30l170 92l45 -61zM288 745l-15 30l170 92l46 -61z" />
    <glyph glyph-name="uni0400" unicode="&#x400;" horiz-adv-x="785" 
d="M289 0l-0.000976562 601.001c-30.667 0 -56.667 -2.83301 -78 -8.5s-38.5 -13.167 -51.5 -22.5s-22.333 -20.333 -28 -33s-8.5 -26.334 -8.5 -41.001c0 -25.333 8.33301 -47 25 -65s43 -27 79 -27v-99c-35.333 0 -66.166 5 -92.499 15s-48 23.833 -65 41.5
s-29.667 38 -38 61s-12.5 47.5 -12.5 73.5c0 29.333 5 56.5 15 81.5s25.833 46.5 47.5 64.5s49.5 32.167 83.5 42.5s75.333 15.5 124 15.5h445v-99h-340v-202h290v-99h-290v-201h340v-99h-445zM567.999 745.001l-200 61l45 61l170 -92z" />
    <glyph glyph-name="afii10023" unicode="&#x401;" horiz-adv-x="785" 
d="M289 0l-0.000976562 601.001c-30.667 0 -56.667 -2.83301 -78 -8.5s-38.5 -13.167 -51.5 -22.5s-22.333 -20.333 -28 -33s-8.5 -26.334 -8.5 -41.001c0 -25.333 8.33301 -47 25 -65s43 -27 79 -27v-99c-35.333 0 -66.166 5 -92.499 15s-48 23.833 -65 41.5
s-29.667 38 -38 61s-12.5 47.5 -12.5 73.5c0 29.333 5 56.5 15 81.5s25.833 46.5 47.5 64.5s49.5 32.167 83.5 42.5s75.333 15.5 124 15.5h445v-99h-340v-202h290v-99h-290v-201h340v-99h-445zM420.999 740.001c-13.333 0 -24.167 4.16992 -32.5 12.5029
s-12.5 19.166 -12.5 32.499c0 12 4.16699 22.5 12.5 31.5s19.166 13.5 32.499 13.5c12 0 22.5 -4.33301 31.5 -13s13.5 -19.334 13.5 -32.001s-4.16699 -23.334 -12.5 -32.001s-19.166 -13 -32.499 -13zM570.998 740.004c-13.333 0 -24.1641 4.16992 -32.4971 12.5029
s-12.5 19.166 -12.5 32.499c0 12 4.16699 22.5 12.5 31.5s19.166 13.5 32.499 13.5s24.166 -4.33301 32.499 -13s12.5 -19.334 12.5 -32.001s-4.33301 -23.334 -13 -32.001s-19.334 -13 -32.001 -13z" />
    <glyph glyph-name="afii10051" unicode="&#x402;" horiz-adv-x="741" 
d="M427 0l0.999023 99h38c16.667 0 32.5 2.16699 47.5 6.5s28.333 11.666 40 21.999s20.834 23.833 27.501 40.5s10 37.334 10 62.001s-3.33301 45.334 -10 62.001s-15.667 30.167 -27 40.5s-24.5 17.666 -39.5 21.999s-31.167 6.5 -48.5 6.5h-150v-361h-105v601h-192v99
h490v-99h-193v-141h150c31.333 0 61 -4.5 89 -13.5s52.5 -22.833 73.5 -41.5s37.5 -42.5 49.5 -71.5s18 -63.5 18 -103.5s-6 -74.5 -18 -103.5s-28.5 -52.833 -49.5 -71.5s-45.5 -32.5 -73.5 -41.5s-57.667 -13.5 -89 -13.5h-39z" />
    <glyph glyph-name="afii10052" unicode="&#x403;" horiz-adv-x="704" 
d="M386 745l-15 30l170 92l45 -61zM289 0l-0.000976562 601.001c-30.667 0 -56.667 -2.83301 -78 -8.5s-38.5 -13.167 -51.5 -22.5s-22.333 -20.333 -28 -33s-8.5 -26.334 -8.5 -41.001c0 -25.333 8.33301 -47 25 -65s43 -27 79 -27v-99c-35.333 0 -66.166 5 -92.499 15
s-48 23.833 -65 41.5s-29.667 38 -38 61s-12.5 47.5 -12.5 73.5c0 29.333 5 56.5 15 81.5s25.833 46.5 47.5 64.5s49.5 32.167 83.5 42.5s75.333 15.5 124 15.5h395v-99h-290v-601h-105z" />
    <glyph glyph-name="afii10053" unicode="&#x404;" horiz-adv-x="606" 
d="M591 56c-30 -23.333 -64.165 -42.5 -102.498 -57.5s-81.5 -22.5 -129.5 -22.5c-45.333 0 -87.166 7.5 -125.499 22.5s-71.5 38 -99.5 69s-49.833 70.5 -65.5 118.5s-23.5 104.667 -23.5 170c0 63.333 7.83301 118.166 23.5 164.499s37.5 84.5 65.5 114.5
s61.167 52.333 99.5 67s80.166 22 125.499 22c48 0 91.167 -7.5 129.5 -22.5s72.5 -34.167 102.5 -57.5l-60 -80c-21.333 18.667 -46.333 33.5 -75 44.5s-61 16.5 -97 16.5c-28.667 0 -55 -4.33301 -79 -13s-45 -22 -63 -40s-32.833 -41.333 -44.5 -70
s-18.834 -63 -21.501 -103h295v-99h-293c3.33301 -40 10.666 -74.333 21.999 -103s26 -52 44 -70s38.833 -31.167 62.5 -39.5s49.5 -12.5 77.5 -12.5c36 0 68.333 5.33301 97 16s53.667 25.334 75 44.001z" />
    <glyph glyph-name="afii10054" unicode="&#x405;" horiz-adv-x="593" 
d="M86 143c24 -21.333 54.3301 -37.8311 90.9971 -49.498s73 -17.5 109 -17.5c20.667 0 40.834 2.33301 60.501 7s37 11.667 52 21s27.167 21.5 36.5 36.5s14 32.833 14 53.5c0 18 -3.66699 32.833 -11 44.5s-18 21.167 -32 28.5s-30.833 13.333 -50.5 18
s-41.834 9.66699 -66.501 15c-33.333 6 -64.666 13.167 -93.999 21.5s-54.833 19.666 -76.5 33.999s-38.834 33 -51.501 56s-19 52.167 -19 87.5c0 38 7.16699 71 21.5 99s33.333 51.333 57 70s50.834 32.667 81.501 42s62.334 14 95.001 14c41.333 0 83.333 -7 126 -21
s80 -33.667 112 -59l-58 -83c-22 19.333 -49.167 34.666 -81.5 45.999s-64.5 17 -96.5 17c-19.333 0 -38.166 -2.33301 -56.499 -7s-34.5 -11.834 -48.5 -21.501s-25.333 -21.834 -34 -36.501s-13 -32.334 -13 -53.001c0 -19.333 3.66699 -35 11 -47s17.333 -21.667 30 -29
s27.167 -13.166 43.5 -17.499s33.5 -8.16602 51.5 -11.499c37.333 -7.33301 72.166 -15.166 104.499 -23.499s60.333 -19.833 84 -34.5s42.334 -33.334 56.001 -56.001s20.5 -51.667 20.5 -87c0 -38 -7.5 -71 -22.5 -99s-35 -51.167 -60 -69.5s-53.667 -32.166 -86 -41.499
s-65.833 -14 -100.5 -14c-48 0 -94.5 7.83301 -139.5 23.5s-83.833 36.167 -116.5 61.5z" />
    <glyph glyph-name="afii10055" unicode="&#x406;" horiz-adv-x="270" 
d="M289 0l-0.000976562 601.001c-30.667 0 -56.667 -2.83301 -78 -8.5s-38.5 -13.167 -51.5 -22.5s-22.333 -20.333 -28 -33s-8.5 -26.334 -8.5 -41.001c0 -25.333 8.33301 -47 25 -65s43 -27 79 -27v-99c-35.333 0 -66.166 5 -92.499 15s-48 23.833 -65 41.5
s-29.667 38 -38 61s-12.5 47.5 -12.5 73.5c0 29.333 5 56.5 15 81.5s25.833 46.5 47.5 64.5s49.5 32.167 83.5 42.5s75.333 15.5 124 15.5h105v-700h-105z" />
    <glyph glyph-name="afii10056" unicode="&#x407;" horiz-adv-x="491" 
d="M289 0l-0.000976562 601.001c-30.667 0 -56.667 -2.83301 -78 -8.5s-38.5 -13.167 -51.5 -22.5s-22.333 -20.333 -28 -33s-8.5 -26.334 -8.5 -41.001c0 -25.333 8.33301 -47 25 -65s43 -27 79 -27v-99c-35.333 0 -66.166 5 -92.499 15s-48 23.833 -65 41.5
s-29.667 38 -38 61s-12.5 47.5 -12.5 73.5c0 29.333 5 56.5 15 81.5s25.833 46.5 47.5 64.5s49.5 32.167 83.5 42.5s75.333 15.5 124 15.5h105v-700h-105zM276.999 743.001c-12 0 -21.998 4.16699 -29.998 12.5s-12 18.166 -12 29.499s4.16699 21.166 12.5 29.499
s18.166 12.5 29.499 12.5s21.166 -4.16699 29.499 -12.5s12.5 -18.166 12.5 -29.499s-4 -21.166 -12 -29.499s-18 -12.5 -30 -12.5zM407.001 743.001c-11.333 0 -21.168 4.16699 -29.501 12.5s-12.5 18.166 -12.5 29.499s4 21.166 12 29.499s18 12.5 30 12.5
s22 -4.16699 30 -12.5s12 -18.166 12 -29.499s-4.16699 -21.166 -12.5 -29.499s-18.166 -12.5 -29.499 -12.5z" />
    <glyph glyph-name="afii10057" unicode="&#x408;" horiz-adv-x="418" 
d="M289 601c-30.667 0 -56.666 -2.83105 -77.999 -8.49805s-38.5 -13.167 -51.5 -22.5s-22.333 -20.333 -28 -33s-8.5 -26.334 -8.5 -41.001c0 -25.333 8.33301 -47 25 -65s43 -27 79 -27v-99c-35.333 0 -66.166 5 -92.499 15s-48 23.833 -65 41.5s-29.667 38 -38 61
s-12.5 47.5 -12.5 73.5c0 29.333 5 56.5 15 81.5s25.833 46.5 47.5 64.5s49.5 32.167 83.5 42.5s75.333 15.5 124 15.5h105v-470c0 -41.333 -5.33301 -77.333 -16 -108s-25.334 -56 -44.001 -76s-40.834 -35 -66.501 -45s-53.5 -15 -83.5 -15c-24 0 -46.667 2.33301 -68 7
s-43.333 11 -66 19l20 93c17.333 -6 36.5 -10.667 57.5 -14s38.5 -5 52.5 -5c33.333 0 59.833 11.167 79.5 33.5s29.5 59.166 29.5 110.499v371z" />
    <glyph glyph-name="afii10058" unicode="&#x409;" horiz-adv-x="1129" 
d="M624 0v601.001h-202l-35 -381c-8 -82.667 -24.5 -142 -49.5 -178s-59.833 -54 -104.5 -54c-11.333 0 -25.333 1 -42 3s-33.334 5.66699 -50.001 11l15 94c11.333 -3.33301 23 -5.66602 35 -6.99902s20.667 -2 26 -2c18.667 -0.666992 33.167 8.66602 43.5 27.999
s17.833 54.333 22.5 105l35 381h-29c-30.667 0 -56.667 -2.83301 -78 -8.5s-38.5 -13.167 -51.5 -22.5s-22.333 -20.333 -28 -33s-8.5 -26.334 -8.5 -41.001c0 -25.333 8.33301 -47 25 -65s43 -27 79 -27v-99c-35.333 0 -66.166 5 -92.499 15s-48 23.833 -65 41.5
s-29.667 38 -38 61s-12.5 47.5 -12.5 73.5c0 29.333 5 56.5 15 81.5s25.833 46.5 47.5 64.5s49.5 32.167 83.5 42.5s75.333 15.5 124 15.5h440v-240h135c32 0 61.833 -4.5 89.5 -13.5s52 -22.667 73 -41s37.5 -42 49.5 -71s18 -63.5 18 -103.5s-6.16699 -74.5 -18.5 -103.5
s-29 -53 -50 -72s-45.5 -33 -73.5 -42s-57.333 -13.5 -88 -13.5h-240zM864 99.001c16.667 0 32.5 2.16699 47.5 6.5s28.333 11.666 40 21.999s20.834 24 27.501 41s10 37.833 10 62.5s-3.33301 45.334 -10 62.001s-15.834 30 -27.501 40s-25 17.167 -40 21.5
s-30.833 6.5 -47.5 6.5h-135v-262h135z" />
    <glyph glyph-name="afii10059" unicode="&#x40a;" horiz-adv-x="1210" 
d="M690 0l-0.000976562 300.001h-296v-300h-105v601c-30.667 0 -56.667 -2.83301 -78 -8.5s-38.5 -13.167 -51.5 -22.5s-22.333 -20.333 -28 -33s-8.5 -26.334 -8.5 -41.001c0 -25.333 8.33301 -47 25 -65s43 -27 79 -27v-99c-35.333 0 -66.166 5 -92.499 15
s-48 23.833 -65 41.5s-29.667 38 -38 61s-12.5 47.5 -12.5 73.5c0 29.333 5 56.5 15 81.5s25.833 46.5 47.5 64.5s49.5 32.167 83.5 42.5s75.333 15.5 124 15.5h105v-301h296v301h105v-240h150c32 0 61.833 -4.5 89.5 -13.5s52 -22.667 73 -41s37.5 -42 49.5 -71
s18 -63.5 18 -103.5s-6.16699 -74.5 -18.5 -103.5s-29 -53 -50 -72s-45.5 -33 -73.5 -42s-57.333 -13.5 -88 -13.5h-255zM944.999 99.001c16.667 0 32.667 2.16699 48 6.5s28.666 11.666 39.999 21.999s20.333 24 27 41s10 37.833 10 62.5s-3.33301 45.334 -10 62.001
s-15.667 30 -27 40s-24.666 17.167 -39.999 21.5s-31.333 6.5 -48 6.5h-150v-262h150z" />
    <glyph glyph-name="afii10060" unicode="&#x40b;" horiz-adv-x="742" 
d="M602 0l-0.000976562 260.999c0 24.667 -3.33301 45.334 -10 62.001s-15.5 30 -26.5 40s-23.667 17.167 -38 21.5s-29.5 6.5 -45.5 6.5c-34 0 -64.833 -4.66699 -92.5 -14s-52.167 -22 -73.5 -38v-339h-105v601h-192v99h490v-99h-193v-149
c23.333 11.333 48.833 20.5 76.5 27.5s57.5 10.5 89.5 10.5c30.667 0 59.667 -4.5 87 -13.5s51.333 -22.667 72 -41s36.834 -42 48.501 -71s17.5 -63.5 17.5 -103.5v-261h-105z" />
    <glyph glyph-name="afii10061" unicode="&#x40c;" horiz-adv-x="817" 
d="M671 0l-277.001 316.001v-316h-105v601c-30.667 0 -56.667 -2.83301 -78 -8.5s-38.5 -13.167 -51.5 -22.5s-22.333 -20.333 -28 -33s-8.5 -26.334 -8.5 -41.001c0 -25.333 8.33301 -47 25 -65s43 -27 79 -27v-99c-35.333 0 -66.166 5 -92.499 15s-48 23.833 -65 41.5
s-29.667 38 -38 61s-12.5 47.5 -12.5 73.5c0 29.333 5 56.5 15 81.5s25.833 46.5 47.5 64.5s49.5 32.167 83.5 42.5s75.333 15.5 124 15.5h105v-317l277 317h128l-303 -350l303 -350h-128zM461.999 745.001l-15 30l170 92l45 -61z" />
    <glyph glyph-name="uni040D" unicode="&#x40d;" horiz-adv-x="885" 
d="M597 745l-200 61l45 61l170 -92zM705 0l-0.000976562 471.001l-311 -405l-10 -66h-95v601c-30.667 0 -56.667 -2.83301 -78 -8.5s-38.5 -13.167 -51.5 -22.5s-22.333 -20.333 -28 -33s-8.5 -26.334 -8.5 -41.001c0 -25.333 8.33301 -47 25 -65s43 -27 79 -27v-99
c-35.333 0 -66.166 5 -92.499 15s-48 23.833 -65 41.5s-29.667 38 -38 61s-12.5 47.5 -12.5 73.5c0 29.333 5 56.5 15 81.5s25.833 46.5 47.5 64.5s49.5 32.167 83.5 42.5s75.333 15.5 124 15.5h105v-471l311 404l10 67h95v-700h-105z" />
    <glyph glyph-name="afii10062" unicode="&#x40e;" horiz-adv-x="820" 
d="M639 795c-14.667 -14.667 -31.668 -26.5 -51.001 -35.5s-41.333 -13.5 -66 -13.5s-46.667 4.5 -66 13.5s-36.333 20.833 -51 35.5l33 41c20.667 -24 49.334 -36 86.001 -36c32.667 0 60 12 82 36zM260.999 600c-50.667 -3.33301 -86.3311 -14.6699 -106.998 -34.0029
s-31 -42.666 -31 -69.999c0 -25.333 8.33301 -47 25 -65s43 -27 79 -27v-99c-35.333 0 -66.166 5 -92.499 15s-48 23.833 -65 41.5s-29.667 38 -38 61s-12.5 47.5 -12.5 73.5c0 68.667 24.667 119.834 74 153.501s126.666 50.5 231.999 50.5l210 -408l172 408h113l-196 -460
c-19.333 -45.333 -36.5 -84 -51.5 -116s-31 -58.333 -48 -79s-36.333 -35.667 -58 -45s-48.5 -14 -80.5 -14c-19.333 0 -37.666 1.66699 -54.999 5s-36.666 8.66602 -57.999 15.999l15 93c17.333 -5.33301 34.666 -9.16602 51.999 -11.499s32 -3.5 44 -3.5
c14 0 25.667 1.66699 35 5s17.666 8.5 24.999 15.5s14.166 16.333 20.499 28s13.166 25.834 20.499 42.501z" />
    <glyph glyph-name="afii10145" unicode="&#x40f;" horiz-adv-x="885" 
d="M602 0l-0.000976562 -129.999h-105v130h-208v601c-30.667 0 -56.667 -2.83301 -78 -8.5s-38.5 -13.167 -51.5 -22.5s-22.333 -20.333 -28 -33s-8.5 -26.334 -8.5 -41.001c0 -25.333 8.33301 -47 25 -65s43 -27 79 -27v-99c-35.333 0 -66.166 5 -92.499 15
s-48 23.833 -65 41.5s-29.667 38 -38 61s-12.5 47.5 -12.5 73.5c0 29.333 5 56.5 15 81.5s25.833 46.5 47.5 64.5s49.5 32.167 83.5 42.5s75.333 15.5 124 15.5h105v-601h311v601h105v-700h-208z" />
    <glyph glyph-name="afii10017" unicode="&#x410;" horiz-adv-x="795" 
d="M683 0l-58.0029 140h-315l-58 -140h-111l125 300l125 301h-102c-21.333 0 -39.166 -1.83301 -53.499 -5.5s-26.166 -8.5 -35.499 -14.5c-27.333 -6 -47 -16.833 -59 -32.5s-18 -33.167 -18 -52.5c0 -25.333 8.33301 -47 25 -65s43 -27 79 -27v-99
c-35.333 0 -66.166 5 -92.499 15s-48 23.833 -65 41.5s-29.667 38 -38 61s-12.5 47.5 -12.5 73.5c0 29.333 5 56.5 15 81.5s25.833 46.5 47.5 64.5s49.5 32.167 83.5 42.5s75.333 15.5 124 15.5h214l145.5 -350l146.5 -350h-112zM536.997 354l-39 107l-30 96l-15.5 -48
l-15.5 -48l-39 -107l-47 -115h233z" />
    <glyph glyph-name="afii10018" unicode="&#x411;" horiz-adv-x="819" 
d="M289 0l-0.000976562 601.001c-30.667 0 -56.667 -2.83301 -78 -8.5s-38.5 -13.167 -51.5 -22.5s-22.333 -20.333 -28 -33s-8.5 -26.334 -8.5 -41.001c0 -25.333 8.33301 -47 25 -65s43 -27 79 -27v-99c-35.333 0 -66.166 5 -92.499 15s-48 23.833 -65 41.5
s-29.667 38 -38 61s-12.5 47.5 -12.5 73.5c0 29.333 5 56.5 15 81.5s25.833 46.5 47.5 64.5s49.5 32.167 83.5 42.5s75.333 15.5 124 15.5h435v-99h-330v-161h150c31.333 0 61 -4.16699 89 -12.5s52.5 -21.5 73.5 -39.5s37.5 -40.833 49.5 -68.5s18 -60.5 18 -98.5
s-6.16699 -71 -18.5 -99s-29 -51 -50 -69s-45.5 -31.333 -73.5 -40s-57.333 -13 -88 -13h-255zM543.999 99.001c16.667 0 32.5 2.16797 47.5 6.50098s28.333 11.166 40 20.499s20.834 21.833 27.501 37.5s10 34.834 10 57.501s-3.33301 41.667 -10 57
s-15.834 27.666 -27.501 36.999s-25 16 -40 20s-30.833 6 -47.5 6h-150v-242h150z" />
    <glyph glyph-name="afii10019" unicode="&#x412;" horiz-adv-x="819" 
d="M289 0l-0.00195312 601.001c-30.667 0 -56.667 -2.83301 -78 -8.5s-38.5 -13.167 -51.5 -22.5s-22.333 -20.333 -28 -33s-8.5 -26.334 -8.5 -41.001c0 -25.333 8.33301 -47 25 -65s43 -27 79 -27v-99c-35.333 0 -66.166 5 -92.499 15s-48 23.833 -65 41.5
s-29.667 38 -38 61s-12.5 47.5 -12.5 73.5c0 29.333 5 56.5 15 81.5s25.833 46.5 47.5 64.5s49.5 32.167 83.5 42.5s75.333 15.5 124 15.5h235c30.667 0 60 -4 88 -12s52.5 -20 73.5 -36s37.667 -36.167 50 -60.5s18.5 -52.833 18.5 -85.5c0 -38 -8.16699 -69.333 -24.5 -94
s-38.166 -44 -65.499 -58c33.333 -12.667 60 -32.167 80 -58.5s30 -60.5 30 -102.5c0 -33.333 -6.16699 -62 -18.5 -86s-29 -44 -50 -60s-45.5 -27.833 -73.5 -35.5s-57.333 -11.5 -88 -11.5h-255zM543.998 100.001c16.667 0 32.668 1.50195 48.001 4.50195
s28.666 8.16699 39.999 15.5s20.333 17.166 27 29.499s10 28.166 10 47.499s-3.5 35.5 -10.5 48.5s-16.167 23.5 -27.5 31.5s-24.5 13.833 -39.5 17.5s-30.833 5.5 -47.5 5.5h-150v-200h150zM523.999 399.003c16.667 0 32.499 1.83398 47.499 5.50098s28.167 9.5 39.5 17.5
s20.5 18.667 27.5 32s10.5 29.666 10.5 48.999c0 18.667 -3.33301 34.167 -10 46.5s-15.667 22.333 -27 30s-24.666 13 -39.999 16s-31.333 4.5 -48 4.5h-130v-201h130z" />
    <glyph glyph-name="afii10020" unicode="&#x413;" horiz-adv-x="704" 
d="M289 0l-0.000976562 601.001c-30.667 0 -56.667 -2.83301 -78 -8.5s-38.5 -13.167 -51.5 -22.5s-22.333 -20.333 -28 -33s-8.5 -26.334 -8.5 -41.001c0 -25.333 8.33301 -47 25 -65s43 -27 79 -27v-99c-35.333 0 -66.166 5 -92.499 15s-48 23.833 -65 41.5
s-29.667 38 -38 61s-12.5 47.5 -12.5 73.5c0 29.333 5 56.5 15 81.5s25.833 46.5 47.5 64.5s49.5 32.167 83.5 42.5s75.333 15.5 124 15.5h395v-99h-290v-601h-105z" />
    <glyph glyph-name="afii10021" unicode="&#x414;" horiz-adv-x="808" 
d="M708 -150l-0.000976562 150.001h-434v-150h-95v249h23c21.333 0 38.5 11.833 51.5 35.5s21.833 61.167 26.5 112.5l32 354h-23c-30.667 0 -56.667 -2.83301 -78 -8.5s-38.5 -13.167 -51.5 -22.5s-22.333 -20.333 -28 -33s-8.5 -26.334 -8.5 -41.001
c0 -11.333 2.16699 -22.333 6.5 -33s10.833 -20.5 19.5 -29.5s19.5 -16.167 32.5 -21.5s28.167 -8 45.5 -8v-99c-35.333 0 -66.166 5 -92.499 15s-48 23.833 -65 41.5s-29.667 38 -38 61s-12.5 47.5 -12.5 73.5c0 29.333 5 56.5 15 81.5s25.833 46.5 47.5 64.5
s49.5 32.167 83.5 42.5s75.333 15.5 124 15.5h444v-601h70v-249h-95zM627.999 601.001h-212l-30 -336c-8 -76 -22.667 -131.333 -44 -166h286v502z" />
    <glyph glyph-name="afii10022" unicode="&#x415;" horiz-adv-x="785" 
d="M289 0l-0.000976562 601.001c-30.667 0 -56.667 -2.83301 -78 -8.5s-38.5 -13.167 -51.5 -22.5s-22.333 -20.333 -28 -33s-8.5 -26.334 -8.5 -41.001c0 -25.333 8.33301 -47 25 -65s43 -27 79 -27v-99c-35.333 0 -66.166 5 -92.499 15s-48 23.833 -65 41.5
s-29.667 38 -38 61s-12.5 47.5 -12.5 73.5c0 29.333 5 56.5 15 81.5s25.833 46.5 47.5 64.5s49.5 32.167 83.5 42.5s75.333 15.5 124 15.5h445v-99h-340v-202h290v-99h-290v-201h340v-99h-445z" />
    <glyph glyph-name="afii10024" unicode="&#x416;" horiz-adv-x="1115" 
d="M910 0l-242.001 312v-312h-105v312l-241 -312h-125l273 350l-199 250c-27.333 -1.33301 -50.333 -4.83301 -69 -10.5s-33.834 -13.167 -45.501 -22.5s-20.167 -20 -25.5 -32s-8 -25 -8 -39c0 -25.333 8.33301 -47 25 -65s43 -27 79 -27v-99
c-35.333 0 -66.166 5 -92.499 15s-48 23.833 -65 41.5s-29.667 38 -38 61s-12.5 47.5 -12.5 73.5c0 29.333 5.16699 56.5 15.5 81.5s26.333 46.5 48 64.5s48.834 32.167 81.501 42.5s71 15.5 115 15.5h43l241 -313v313h105v-313l242 313h125l-273 -350l273 -350h-125z" />
    <glyph glyph-name="afii10025" unicode="&#x417;" horiz-adv-x="566" 
d="M91 140c22 -19.333 47.999 -34.8359 77.999 -46.5029s64 -17.5 102 -17.5c20.667 0 39.834 2.16699 57.501 6.5s33 11 46 20s23.167 20.667 30.5 35s11 31.833 11 52.5c0 40 -13.167 68.333 -39.5 85s-59.833 25 -100.5 25h-90v100h93c36 0 65.167 8.83301 87.5 26.5
s33.5 45.5 33.5 83.5c0 40.667 -12.833 69.834 -38.5 87.501s-58.167 26.5 -97.5 26.5c-36 0 -69.167 -5.83301 -99.5 -17.5s-56.5 -27.167 -78.5 -46.5l-57 80c30 24.667 64.833 44.834 104.5 60.501s83.5 23.5 131.5 23.5c34.667 0 66.834 -4.83301 96.501 -14.5
s55 -23.667 76 -42s37.5 -40.666 49.5 -66.999s18 -56.166 18 -89.499c0 -40 -8.83301 -73.167 -26.5 -99.5s-42.5 -46.166 -74.5 -59.499c78 -24.667 117 -78.334 117 -161.001c0 -35.333 -6.5 -66.333 -19.5 -93s-30.833 -49 -53.5 -67s-49.334 -31.667 -80.001 -41
s-63.667 -14 -99 -14c-48 0 -91.667 7.66699 -131 23s-74 35.666 -104 60.999z" />
    <glyph glyph-name="afii10026" unicode="&#x418;" horiz-adv-x="885" 
d="M705 0l-0.000976562 471.001l-311 -405l-10 -66h-95v601c-30.667 0 -56.667 -2.83301 -78 -8.5s-38.5 -13.167 -51.5 -22.5s-22.333 -20.333 -28 -33s-8.5 -26.334 -8.5 -41.001c0 -25.333 8.33301 -47 25 -65s43 -27 79 -27v-99c-35.333 0 -66.166 5 -92.499 15
s-48 23.833 -65 41.5s-29.667 38 -38 61s-12.5 47.5 -12.5 73.5c0 29.333 5 56.5 15 81.5s25.833 46.5 47.5 64.5s49.5 32.167 83.5 42.5s75.333 15.5 124 15.5h105v-471l311 404l10 67h95v-700h-105z" />
    <glyph glyph-name="afii10027" unicode="&#x419;" horiz-adv-x="885" 
d="M639 795c-14.667 -14.667 -31.668 -26.5 -51.001 -35.5s-41.333 -13.5 -66 -13.5s-46.667 4.5 -66 13.5s-36.333 20.833 -51 35.5l33 41c20.667 -24 49.334 -36 86.001 -36c32.667 0 60 12 82 36zM704.999 0l-0.000976562 471.001l-311 -405l-10 -66h-95v601
c-30.667 0 -56.667 -2.83301 -78 -8.5s-38.5 -13.167 -51.5 -22.5s-22.333 -20.333 -28 -33s-8.5 -26.334 -8.5 -41.001c0 -25.333 8.33301 -47 25 -65s43 -27 79 -27v-99c-35.333 0 -66.166 5 -92.499 15s-48 23.833 -65 41.5s-29.667 38 -38 61s-12.5 47.5 -12.5 73.5
c0 29.333 5 56.5 15 81.5s25.833 46.5 47.5 64.5s49.5 32.167 83.5 42.5s75.333 15.5 124 15.5h105v-471l311 404l10 67h95v-700h-105z" />
    <glyph glyph-name="afii10028" unicode="&#x41a;" horiz-adv-x="817" 
d="M671 0l-277.001 316.001v-316h-105v601c-30.667 0 -56.667 -2.83301 -78 -8.5s-38.5 -13.167 -51.5 -22.5s-22.333 -20.333 -28 -33s-8.5 -26.334 -8.5 -41.001c0 -25.333 8.33301 -47 25 -65s43 -27 79 -27v-99c-35.333 0 -66.166 5 -92.499 15s-48 23.833 -65 41.5
s-29.667 38 -38 61s-12.5 47.5 -12.5 73.5c0 29.333 5 56.5 15 81.5s25.833 46.5 47.5 64.5s49.5 32.167 83.5 42.5s75.333 15.5 124 15.5h105v-317l277 317h128l-303 -350l303 -350h-128z" />
    <glyph glyph-name="afii10029" unicode="&#x41b;" horiz-adv-x="804" 
d="M624 0v601.001h-202l-35 -381c-8 -82.667 -24.5 -142 -49.5 -178s-59.833 -54 -104.5 -54c-11.333 0 -25.333 1 -42 3s-33.334 5.66699 -50.001 11l15 94c11.333 -3.33301 23 -5.66602 35 -6.99902s20.667 -2 26 -2c18.667 -0.666992 33.167 8.66602 43.5 27.999
s17.833 54.333 22.5 105l35 381h-29c-30.667 0 -56.667 -2.83301 -78 -8.5s-38.5 -13.167 -51.5 -22.5s-22.333 -20.333 -28 -33s-8.5 -26.334 -8.5 -41.001c0 -25.333 8.33301 -47 25 -65s43 -27 79 -27v-99c-35.333 0 -66.166 5 -92.499 15s-48 23.833 -65 41.5
s-29.667 38 -38 61s-12.5 47.5 -12.5 73.5c0 29.333 5 56.5 15 81.5s25.833 46.5 47.5 64.5s49.5 32.167 83.5 42.5s75.333 15.5 124 15.5h440v-700h-105z" />
    <glyph glyph-name="afii10030" unicode="&#x41c;" horiz-adv-x="1034" 
d="M854 0l-0.000976562 474.001l-195 -294h-70l-195 294v-474h-105v601c-30.667 0 -56.667 -2.83301 -78 -8.5s-38.5 -13.167 -51.5 -22.5s-22.333 -20.333 -28 -33s-8.5 -26.334 -8.5 -41.001c0 -25.333 8.33301 -47 25 -65s43 -27 79 -27v-99
c-35.333 0 -66.166 5 -92.499 15s-48 23.833 -65 41.5s-29.667 38 -38 61s-12.5 47.5 -12.5 73.5c0 29.333 5 56.5 15 81.5s25.833 46.5 47.5 64.5s49.5 32.167 83.5 42.5s75.333 15.5 124 15.5h70l265 -398l265 398h70v-700h-105z" />
    <glyph glyph-name="afii10031" unicode="&#x41d;" horiz-adv-x="885" 
d="M705 0l-0.000976562 300.001h-311v-300h-105v601c-30.667 0 -56.667 -2.83301 -78 -8.5s-38.5 -13.167 -51.5 -22.5s-22.333 -20.333 -28 -33s-8.5 -26.334 -8.5 -41.001c0 -25.333 8.33301 -47 25 -65s43 -27 79 -27v-99c-35.333 0 -66.166 5 -92.499 15
s-48 23.833 -65 41.5s-29.667 38 -38 61s-12.5 47.5 -12.5 73.5c0 29.333 5 56.5 15 81.5s25.833 46.5 47.5 64.5s49.5 32.167 83.5 42.5s75.333 15.5 124 15.5h105v-301h311v301h105v-700h-105z" />
    <glyph glyph-name="afii10032" unicode="&#x41e;" horiz-adv-x="700" 
d="M350 625c-29.333 0 -56.166 -5.16699 -80.499 -15.5s-45.333 -26.5 -63 -48.5s-31.5 -50.333 -41.5 -85s-15 -76.667 -15 -126s5 -91.333 15 -126s23.833 -63 41.5 -85s38.667 -38.167 63 -48.5s51.166 -15.5 80.499 -15.5c28.667 0 55.334 5.16699 80.001 15.5
s45.834 26.5 63.501 48.5s31.5 50.333 41.5 85s15 76.667 15 126s-5 91.333 -15 126s-23.833 63 -41.5 85s-38.834 38.167 -63.501 48.5s-51.334 15.5 -80.001 15.5zM350 724c44 0 84.5 -7.5 121.5 -22.5s69.167 -37.833 96.5 -68.5s48.666 -69.5 63.999 -116.5
s23 -102.5 23 -166.5s-7.66699 -119.5 -23 -166.5s-36.666 -85.833 -63.999 -116.5s-59.5 -53.5 -96.5 -68.5s-77.5 -22.5 -121.5 -22.5s-84.5 7.5 -121.5 22.5s-69.167 37.833 -96.5 68.5s-48.666 69.5 -63.999 116.5s-23 102.5 -23 166.5s7.66699 119.5 23 166.5
s36.666 85.833 63.999 116.5s59.5 53.5 96.5 68.5s77.5 22.5 121.5 22.5z" />
    <glyph glyph-name="afii10033" unicode="&#x41f;" horiz-adv-x="885" 
d="M705 0l-0.000976562 601.001h-311v-601h-105v601c-30.667 0 -56.667 -2.83301 -78 -8.5s-38.5 -13.167 -51.5 -22.5s-22.333 -20.333 -28 -33s-8.5 -26.334 -8.5 -41.001c0 -25.333 8.33301 -47 25 -65s43 -27 79 -27v-99c-35.333 0 -66.166 5 -92.499 15
s-48 23.833 -65 41.5s-29.667 38 -38 61s-12.5 47.5 -12.5 73.5c0 29.333 5 56.5 15 81.5s25.833 46.5 47.5 64.5s49.5 32.167 83.5 42.5s75.333 15.5 124 15.5h521v-700h-105z" />
    <glyph glyph-name="afii10034" unicode="&#x420;" horiz-adv-x="796" 
d="M289 0l-0.000976562 601.001c-30.667 0 -56.667 -2.83301 -78 -8.5s-38.5 -13.167 -51.5 -22.5s-22.333 -20.333 -28 -33s-8.5 -26.334 -8.5 -41.001c0 -25.333 8.33301 -47 25 -65s43 -27 79 -27v-99c-35.333 0 -66.166 5 -92.499 15s-48 23.833 -65 41.5
s-29.667 38 -38 61s-12.5 47.5 -12.5 73.5c0 29.333 5 56.5 15 81.5s25.833 46.5 47.5 64.5s49.5 32.167 83.5 42.5s75.333 15.5 124 15.5h255c30.667 0 60 -4.5 88 -13.5s52.5 -23 73.5 -42s37.667 -43 50 -72s18.5 -63.5 18.5 -103.5s-6 -74.5 -18 -103.5
s-28.5 -52.667 -49.5 -71s-45.333 -32 -73 -41s-57.5 -13.5 -89.5 -13.5h-150v-240h-105zM543.999 339.001c16.667 0 32.667 2.16699 48 6.5s28.666 11.5 39.999 21.5s20.333 23.333 27 40s10 37.334 10 62.001s-3.33301 45.5 -10 62.5s-15.667 30.667 -27 41
s-24.666 17.666 -39.999 21.999s-31.333 6.5 -48 6.5h-150v-262h150z" />
    <glyph glyph-name="afii10035" unicode="&#x421;" horiz-adv-x="630" 
d="M591 56c-30 -23.333 -64.168 -42.502 -102.501 -57.502s-81.5 -22.5 -129.5 -22.5c-45.333 0 -87.166 7.5 -125.499 22.5s-71.5 38 -99.5 69s-49.833 70.333 -65.5 118s-23.5 104.167 -23.5 169.5c0 62.667 7.16699 117.167 21.5 163.5s34.333 84.666 60 114.999
s55.834 53 90.501 68s72.667 22.5 114 22.5c36 0 69.833 -6 101.5 -18s59.167 -30 82.5 -54s41.833 -54.5 55.5 -91.5s20.5 -80.5 20.5 -130.5h-105c0 34 -3.83301 63.333 -11.5 88s-18.5 44.834 -32.5 60.501s-30.5 27.334 -49.5 35.001s-39.5 11.5 -61.5 11.5
c-26.667 0 -51 -5.16699 -73 -15.5s-41 -26.333 -57 -48s-28.5 -49.5 -37.5 -83.5s-13.5 -74.667 -13.5 -122c0 -50.667 5 -93.834 15 -129.501s24.333 -64.667 43 -87s40.667 -38.666 66 -48.999s53.666 -15.5 84.999 -15.5c36 0 68.333 5.33301 97 16
s53.667 25.334 75 44.001z" />
    <glyph glyph-name="afii10036" unicode="&#x422;" horiz-adv-x="722" 
d="M405 0l-0.000976562 601.001h-116c-30.667 0 -56.667 -2.83301 -78 -8.5s-38.5 -13.167 -51.5 -22.5s-22.333 -20.333 -28 -33s-8.5 -26.334 -8.5 -41.001c0 -25.333 8.33301 -47 25 -65s43 -27 79 -27v-99c-35.333 0 -66.166 5 -92.499 15s-48 23.833 -65 41.5
s-29.667 38 -38 61s-12.5 47.5 -12.5 73.5c0 29.333 5 56.5 15 81.5s25.833 46.5 47.5 64.5s49.5 32.167 83.5 42.5s75.333 15.5 124 15.5h414v-99h-193v-601h-105z" />
    <glyph glyph-name="afii10037" unicode="&#x423;" horiz-adv-x="820" 
d="M261 600c-50.667 -3.33301 -86.3311 -14.6699 -106.998 -34.0029s-31 -42.666 -31 -69.999c0 -25.333 8.33301 -47 25 -65s43 -27 79 -27v-99c-35.333 0 -66.166 5 -92.499 15s-48 23.833 -65 41.5s-29.667 38 -38 61s-12.5 47.5 -12.5 73.5
c0 68.667 24.667 119.834 74 153.501s126.666 50.5 231.999 50.5l210 -408l172 408h113l-196 -460c-19.333 -45.333 -36.5 -84 -51.5 -116s-31 -58.333 -48 -79s-36.333 -35.667 -58 -45s-48.5 -14 -80.5 -14c-19.333 0 -37.666 1.66699 -54.999 5
s-36.666 8.66602 -57.999 15.999l15 93c17.333 -5.33301 34.666 -9.16602 51.999 -11.499s32 -3.5 44 -3.5c14 0 25.667 1.66699 35 5s17.666 8.5 24.999 15.5s14.166 16.333 20.499 28s13.166 25.834 20.499 42.501z" />
    <glyph glyph-name="afii10038" unicode="&#x424;" horiz-adv-x="768" 
d="M479 219c19.333 0 37.8311 2.49707 55.498 7.49707s33.167 13.667 46.5 26s23.833 28.833 31.5 49.5s11.5 46.334 11.5 77.001s-4 56.334 -12 77.001s-18.667 37.334 -32 50.001s-28.666 21.667 -45.999 27s-35.666 8 -54.999 8h-43v-322h43zM330.998 540.997
l-41.999 0.00292969c-19.333 0 -37.833 -2.66699 -55.5 -8s-33.167 -14.333 -46.5 -27s-23.833 -29.334 -31.5 -50.001s-11.5 -46.334 -11.5 -77.001s3.83301 -56.334 11.5 -77.001s18.167 -37.167 31.5 -49.5s28.666 -21 45.999 -26s36 -7.5 56 -7.5h42v322zM330.999 0
l0.00195312 120h-42c-34.667 0 -67.167 5 -97.5 15s-56.833 25.5 -79.5 46.5s-40.5 47.833 -53.5 80.5s-19.5 71.667 -19.5 117s6.66699 84.333 20 117s31.5 59.667 54.5 81s49.667 37.166 80 47.499s62.166 15.5 95.499 15.5h42v60h105v-60h43
c33.333 0 65.166 -5.16699 95.499 -15.5s57 -26.166 80 -47.499s41.167 -48.333 54.5 -81s20 -71.667 20 -117s-6.66699 -84.333 -20 -117s-31.333 -59.5 -54 -80.5s-49.167 -36.5 -79.5 -46.5s-62.5 -15 -96.5 -15h-43v-120h-105z" />
    <glyph glyph-name="afii10039" unicode="&#x425;" horiz-adv-x="781" 
d="M654 0l-176.003 272l-176 -272h-118l235 365l-152 235c-26.667 -1.33301 -49.167 -4.83301 -67.5 -10.5s-33.166 -13.167 -44.499 -22.5s-19.5 -20 -24.5 -32s-7.5 -25 -7.5 -39c0 -25.333 8.33301 -47 25 -65s43 -27 79 -27v-99c-35.333 0 -66.166 5 -92.499 15
s-48 23.833 -65 41.5s-29.667 38 -38 61s-12.5 47.5 -12.5 73.5c0 29.333 5.16699 56.5 15.5 81.5s26.333 46.5 48 64.5s48.834 32.167 81.501 42.5s71 15.5 115 15.5h43l156 -242l156 242h118l-215 -335l235 -365h-118z" />
    <glyph glyph-name="afii10040" unicode="&#x426;" horiz-adv-x="880" 
d="M785 -150l-0.000976562 150.001h-496v601c-30.667 0 -56.667 -2.83301 -78 -8.5s-38.5 -13.167 -51.5 -22.5s-22.333 -20.333 -28 -33s-8.5 -26.334 -8.5 -41.001c0 -25.333 8.33301 -47 25 -65s43 -27 79 -27v-99c-35.333 0 -66.166 5 -92.499 15s-48 23.833 -65 41.5
s-29.667 38 -38 61s-12.5 47.5 -12.5 73.5c0 29.333 5 56.5 15 81.5s25.833 46.5 47.5 64.5s49.5 32.167 83.5 42.5s75.333 15.5 124 15.5h105v-601h311v601h105v-601h70v-249h-95z" />
    <glyph glyph-name="afii10041" unicode="&#x427;" horiz-adv-x="859" 
d="M679 0v247.002c-23.333 -11.333 -48.666 -20.333 -75.999 -27s-57 -10 -89 -10c-31.333 0 -60.5 4.5 -87.5 13.5s-50.833 22.667 -71.5 41s-36.834 42 -48.501 71s-17.5 63.5 -17.5 103.5v162c-30.667 0 -56.667 -2.83301 -78 -8.5s-38.5 -13.167 -51.5 -22.5
s-22.333 -20.333 -28 -33s-8.5 -26.334 -8.5 -41.001c0 -25.333 8.33301 -47 25 -65s43 -27 79 -27v-99c-35.333 0 -66.166 5 -92.499 15s-48 23.833 -65 41.5s-29.667 38 -38 61s-12.5 47.5 -12.5 73.5c0 29.333 5 56.5 15 81.5s25.833 46.5 47.5 64.5
s49.5 32.167 83.5 42.5s75.333 15.5 124 15.5h105v-261c0 -24.667 3.16699 -45.334 9.5 -62.001s15 -30 26 -40s23.833 -17.167 38.5 -21.5s30 -6.5 46 -6.5c33.333 0 63.666 4.5 90.999 13.5s52 21.167 74 36.5v341h105v-700h-105z" />
    <glyph glyph-name="afii10042" unicode="&#x428;" horiz-adv-x="1085" 
d="M289 0l-0.000976562 601.001c-30.667 0 -56.667 -2.83301 -78 -8.5s-38.5 -13.167 -51.5 -22.5s-22.333 -20.333 -28 -33s-8.5 -26.334 -8.5 -41.001c0 -25.333 8.33301 -47 25 -65s43 -27 79 -27v-99c-35.333 0 -66.166 5 -92.499 15s-48 23.833 -65 41.5
s-29.667 38 -38 61s-12.5 47.5 -12.5 73.5c0 29.333 5 56.5 15 81.5s25.833 46.5 47.5 64.5s49.5 32.167 83.5 42.5s75.333 15.5 124 15.5h105v-601h203v601h105v-601h203v601h105v-700h-721z" />
    <glyph glyph-name="afii10043" unicode="&#x429;" horiz-adv-x="1080" 
d="M985 -150l-0.000976562 150.001h-696v601c-30.667 0 -56.667 -2.83301 -78 -8.5s-38.5 -13.167 -51.5 -22.5s-22.333 -20.333 -28 -33s-8.5 -26.334 -8.5 -41.001c0 -25.333 8.33301 -47 25 -65s43 -27 79 -27v-99c-35.333 0 -66.166 5 -92.499 15s-48 23.833 -65 41.5
s-29.667 38 -38 61s-12.5 47.5 -12.5 73.5c0 29.333 5 56.5 15 81.5s25.833 46.5 47.5 64.5s49.5 32.167 83.5 42.5s75.333 15.5 124 15.5h105v-601h203v601h105v-601h203v601h105v-601h70v-249h-95z" />
    <glyph glyph-name="afii10044" unicode="&#x42a;" horiz-adv-x="669" 
d="M155 0v601h-155v99h260v-240h150c31.333 0 61 -4.5 89 -13.5s52.5 -22.667 73.5 -41s37.5 -42 49.5 -71s18 -63.5 18 -103.5s-6.16699 -74.5 -18.5 -103.5s-29 -53 -50 -72s-45.5 -33 -73.5 -42s-57.333 -13.5 -88 -13.5h-255zM410 99c16.667 0 32.5 2.16699 47.5 6.5
s28.333 11.666 40 21.999s20.834 24 27.501 41s10 37.833 10 62.5s-3.33301 45.334 -10 62.001s-15.834 30 -27.501 40s-25 17.167 -40 21.5s-30.833 6.5 -47.5 6.5h-150v-262h150z" />
    <glyph glyph-name="afii10045" unicode="&#x42b;" horiz-adv-x="1038" 
d="M858 0l0.000976562 525.002l-209 -105c28.667 -16.667 51.667 -40.334 69 -71.001s26 -70 26 -118c0 -40 -6.16699 -74.5 -18.5 -103.5s-29 -53 -50 -72s-45.5 -33 -73.5 -42s-57.333 -13.5 -88 -13.5h-225v601c-30.667 0 -56.667 -2.83301 -78 -8.5
s-38.5 -13.167 -51.5 -22.5s-22.333 -20.333 -28 -33s-8.5 -26.334 -8.5 -41.001c0 -25.333 8.33301 -47 25 -65s43 -27 79 -27v-99c-35.333 0 -66.166 5 -92.499 15s-48 23.833 -65 41.5s-29.667 38 -38 61s-12.5 47.5 -12.5 73.5c0 29.333 5 56.5 15 81.5
s25.833 46.5 47.5 64.5s49.5 32.167 83.5 42.5s75.333 15.5 124 15.5h105v-601h120c16.667 0 32.667 2.16699 48 6.5s28.666 11.666 39.999 21.999s20.333 24 27 41s10 37.833 10 62.5s-3.33301 45.334 -10 62.001s-15.834 30 -27.501 40s-25 17.167 -40 21.5
s-30.833 6.5 -47.5 6.5h-24v99h24h1l343 173l10 67h95v-700h-105z" />
    <glyph glyph-name="afii10046" unicode="&#x42c;" horiz-adv-x="803" 
d="M289 0l-0.000976562 601.001c-30.667 0 -56.667 -2.83301 -78 -8.5s-38.5 -13.167 -51.5 -22.5s-22.333 -20.333 -28 -33s-8.5 -26.334 -8.5 -41.001c0 -25.333 8.33301 -47 25 -65s43 -27 79 -27v-99c-35.333 0 -66.166 5 -92.499 15s-48 23.833 -65 41.5
s-29.667 38 -38 61s-12.5 47.5 -12.5 73.5c0 29.333 5 56.5 15 81.5s25.833 46.5 47.5 64.5s49.5 32.167 83.5 42.5s75.333 15.5 124 15.5h105v-240h150c32 0 61.833 -4.5 89.5 -13.5s52 -22.667 73 -41s37.5 -42 49.5 -71s18 -63.5 18 -103.5s-6.16699 -74.5 -18.5 -103.5
s-29 -53 -50 -72s-45.5 -33 -73.5 -42s-57.333 -13.5 -88 -13.5h-255zM543.999 99.001c16.667 0 32.5 2.16699 47.5 6.5s28.333 11.666 40 21.999s20.834 24 27.501 41s10 37.833 10 62.5s-3.33301 45.334 -10 62.001s-15.834 30 -27.501 40s-25 17.167 -40 21.5
s-30.833 6.5 -47.5 6.5h-150v-262h150z" />
    <glyph glyph-name="afii10047" unicode="&#x42d;" horiz-adv-x="606" 
d="M160 300v99h294c-2.66699 42.667 -9.66699 79 -21 109s-26 54.667 -44 74s-39 33.5 -63 42.5s-50.333 13.5 -79 13.5c-36 0 -68.333 -5.5 -97 -16.5s-54 -25.833 -76 -44.5l-59 80c29.333 23.333 63.166 42.5 101.499 57.5s81.5 22.5 129.5 22.5
c45.333 0 87.333 -7.5 126 -22.5s72 -38.167 100 -69.5s49.833 -70.833 65.5 -118.5s23.5 -104.5 23.5 -170.5c0 -65.333 -7.83301 -122 -23.5 -170s-37.5 -87.5 -65.5 -118.5s-61.333 -54 -100 -69s-80.667 -22.5 -126 -22.5c-48 0 -91.167 7.5 -129.5 22.5
s-72.166 34.167 -101.499 57.5l59 79c22 -18 47 -32.167 75 -42.5s59 -15.5 93 -15.5c28.667 0 55 4 79 12s45.167 20.833 63.5 38.5s33.333 40.667 45 69s19.5 62.833 23.5 103.5h-293z" />
    <glyph glyph-name="afii10048" unicode="&#x42e;" horiz-adv-x="1139" 
d="M289 0l-0.000976562 601c-30.667 0 -56.667 -2.83301 -78 -8.5s-38.5 -13.167 -51.5 -22.5s-22.333 -20.333 -28 -33s-8.5 -26.334 -8.5 -41.001c0 -25.333 8.33301 -47 25 -65s43 -27 79 -27v-99c-35.333 0 -66.166 5 -92.499 15s-48 23.833 -65 41.5s-29.667 38 -38 61
s-12.5 47.5 -12.5 73.5c0 29.333 5 56.5 15 81.5s25.833 46.5 47.5 64.5s49.5 32.167 83.5 42.5s75.333 15.5 124 15.5h105v-301h132c4 55.333 13.833 103.5 29.5 144.5s36 74.833 61 101.5s53.833 46.5 86.5 59.5s68 19.5 106 19.5c40.667 0 78.334 -7.5 113.001 -22.5
s64.834 -37.833 90.501 -68.5s45.667 -69.5 60 -116.5s21.5 -102.5 21.5 -166.5s-7.16699 -119.5 -21.5 -166.5s-34.333 -85.833 -60 -116.5s-55.834 -53.5 -90.501 -68.5s-72.334 -22.5 -113.001 -22.5c-38 0 -73.333 6.5 -106 19.5s-61.5 32.833 -86.5 59.5
s-45.333 60.334 -61 101.001s-25.5 88.667 -29.5 144h-132v-300h-105zM808.999 75c26 0 50 5.16699 72 15.5s41 26.5 57 48.5s28.5 50.333 37.5 85s13.5 76.667 13.5 126s-4.5 91.333 -13.5 126s-21.5 63 -37.5 85s-35 38.167 -57 48.5s-46 15.5 -72 15.5
s-50 -5.16699 -72 -15.5s-41 -26.5 -57 -48.5s-28.5 -50.333 -37.5 -85s-13.5 -76.667 -13.5 -126s4.5 -91.333 13.5 -126s21.5 -63 37.5 -85s35 -38.167 57 -48.5s46 -15.5 72 -15.5z" />
    <glyph glyph-name="afii10049" unicode="&#x42f;" horiz-adv-x="602" 
d="M527 0l-105 -0.000976562v240h-124l-150 -240h-119l159 251c-42.667 12.667 -77.667 36.834 -105 72.501s-41 84.167 -41 145.5c0 40 6.16699 74.5 18.5 103.5s29 53 50 72s45.333 33 73 42s57.167 13.5 88.5 13.5h255v-700zM422 338.999l0.000976562 262.001h-150
c-16.667 0 -32.5 -2.33301 -47.5 -7s-28.333 -12.167 -40 -22.5s-20.834 -24 -27.501 -41s-10 -37.5 -10 -61.5c0 -24.667 3.33301 -45.334 10 -62.001s15.667 -30 27 -40s24.5 -17.167 39.5 -21.5s31.167 -6.5 48.5 -6.5h150z" />
    <glyph glyph-name="afii10065" unicode="&#x430;" horiz-adv-x="654" 
d="M542 0l-58 140h-315l-58 -140h-111l145.5 350l146.5 350h70l145.5 -350l146.5 -350h-112zM390 368l-33 93l-30 96l-15.5 -48l-15.5 -48l-33 -93l-53 -129h233z" />
    <glyph glyph-name="afii10066" unicode="&#x431;" horiz-adv-x="605" 
d="M75 0v700h435v-99h-330v-161h150c31.333 0 61 -4.16699 89 -12.5s52.5 -21.5 73.5 -39.5s37.5 -40.833 49.5 -68.5s18 -60.5 18 -98.5s-6.16699 -71 -18.5 -99s-29 -51 -50 -69s-45.5 -31.333 -73.5 -40s-57.333 -13 -88 -13h-255zM330 99
c16.667 0 32.5 2.16797 47.5 6.50098s28.333 11.166 40 20.499s20.834 21.833 27.501 37.5s10 34.834 10 57.501s-3.33301 41.667 -10 57s-15.834 27.666 -27.501 36.999s-25 16 -40 20s-30.833 6 -47.5 6h-150v-242h150z" />
    <glyph glyph-name="afii10067" unicode="&#x432;" horiz-adv-x="605" 
d="M75 0l-0.000976562 700h235c30.667 0 60 -4 88 -12s52.5 -20 73.5 -36s37.667 -36.167 50 -60.5s18.5 -52.833 18.5 -85.5c0 -38 -8.16699 -69.333 -24.5 -94s-38.166 -44 -65.499 -58c33.333 -12.667 60 -32.167 80 -58.5s30 -60.5 30 -102.5
c0 -33.333 -6.16699 -62 -18.5 -86s-29 -44 -50 -60s-45.5 -27.833 -73.5 -35.5s-57.333 -11.5 -88 -11.5h-255zM329.999 100c16.667 0 32.668 1.50195 48.001 4.50195s28.666 8.16699 39.999 15.5s20.333 17.166 27 29.499s10 28.166 10 47.499s-3.5 35.5 -10.5 48.5
s-16.167 23.5 -27.5 31.5s-24.5 13.833 -39.5 17.5s-30.833 5.5 -47.5 5.5h-150v-200h150zM310 399.002c16.667 0 32.499 1.83398 47.499 5.50098s28.167 9.5 39.5 17.5s20.5 18.667 27.5 32s10.5 29.666 10.5 48.999c0 18.667 -3.33301 34.167 -10 46.5
s-15.667 22.333 -27 30s-24.666 13 -39.999 16s-31.333 4.5 -48 4.5h-130v-201h130z" />
    <glyph glyph-name="afii10068" unicode="&#x433;" horiz-adv-x="487" 
d="M75 0v700h395v-99h-290v-601h-105z" />
    <glyph glyph-name="afii10069" unicode="&#x434;" horiz-adv-x="634" 
d="M534 -150l0.00195312 150h-434v-150h-95v249h23c21.333 0 38.166 11.833 50.499 35.5s21.166 61.167 26.499 112.5l43 453h411v-601h70v-249h-95zM454.002 601h-213.002l-30 -336c-3.33301 -38 -8.66602 -70.667 -15.999 -98s-16.666 -50 -27.999 -68h287v502z" />
    <glyph glyph-name="afii10070" unicode="&#x435;" horiz-adv-x="571" 
d="M75 0v700h445v-99h-340v-202h290v-99h-290v-201h340v-99h-445z" />
    <glyph glyph-name="afii10072" unicode="&#x436;" horiz-adv-x="998" 
d="M793 0l-242 312v-312h-105v312l-241 -312h-125l273 350l-273 350h125l241 -313v313h105v-313l242 313h125l-273 -350l273 -350h-125z" />
    <glyph glyph-name="afii10073" unicode="&#x437;" horiz-adv-x="566" 
d="M91 140c22 -19.333 47.999 -34.8359 77.999 -46.5029s64 -17.5 102 -17.5c20.667 0 39.834 2.16699 57.501 6.5s33 11 46 20s23.167 20.667 30.5 35s11 31.833 11 52.5c0 40 -13.167 68.333 -39.5 85s-59.833 25 -100.5 25h-90v100h93c36 0 65.167 8.83301 87.5 26.5
s33.5 45.5 33.5 83.5c0 40.667 -12.833 69.834 -38.5 87.501s-58.167 26.5 -97.5 26.5c-36 0 -69.167 -5.83301 -99.5 -17.5s-56.5 -27.167 -78.5 -46.5l-57 80c30 24.667 64.833 44.834 104.5 60.501s83.5 23.5 131.5 23.5c34.667 0 66.834 -4.83301 96.501 -14.5
s55 -23.667 76 -42s37.5 -40.666 49.5 -66.999s18 -56.166 18 -89.499c0 -40 -8.83301 -73.167 -26.5 -99.5s-42.5 -46.166 -74.5 -59.499c78 -24.667 117 -78.334 117 -161.001c0 -35.333 -6.5 -66.333 -19.5 -93s-30.833 -49 -53.5 -67s-49.334 -31.667 -80.001 -41
s-63.667 -14 -99 -14c-48 0 -91.667 7.66699 -131 23s-74 35.666 -104 60.999z" />
    <glyph glyph-name="afii10074" unicode="&#x438;" horiz-adv-x="671" 
d="M491 0v471l-311 -405l-10 -66h-95v700h105v-471l311 404l10 67h95v-700h-105z" />
    <glyph glyph-name="afii10075" unicode="&#x439;" horiz-adv-x="671" 
d="M454 795c-14.667 -14.667 -31.668 -26.5 -51.001 -35.5s-41.333 -13.5 -66 -13.5s-46.667 4.5 -66 13.5s-36.333 20.833 -51 35.5l33 41c20.667 -24 49.334 -36 86.001 -36c32.667 0 60 12 82 36zM490.999 0v471l-311 -405l-10 -66h-95v700h105v-471l311 404l10 67h95
v-700h-105z" />
    <glyph glyph-name="afii10076" unicode="&#x43a;" horiz-adv-x="602" 
d="M456 0l-276 316v-316h-105v700h105v-317l276 317h128l-303 -350l303 -350h-128z" />
    <glyph glyph-name="afii10077" unicode="&#x43b;" horiz-adv-x="667" 
d="M487 0l0.000976562 601h-202l-35 -381c-7.33301 -82.667 -23.5 -142 -48.5 -178s-59.833 -54 -104.5 -54c-11.333 0 -25.333 1 -42 3s-33.334 5.66699 -50.001 11l15 94c11.333 -3.33301 23 -5.66602 35 -6.99902s20.333 -2 25 -2c19.333 -0.666992 34 8.66602 44 27.999
s17.333 54.333 22 105l45 480h401v-700h-105z" />
    <glyph glyph-name="afii10078" unicode="&#x43c;" horiz-adv-x="820" 
d="M640 0v474l-195 -294h-70l-195 294v-474h-105v700h70l265 -398l265 398h70v-700h-105z" />
    <glyph glyph-name="afii10079" unicode="&#x43d;" horiz-adv-x="671" 
d="M491 0v300h-311v-300h-105v700h105v-301h311v301h105v-700h-105z" />
    <glyph glyph-name="afii10080" unicode="&#x43e;" horiz-adv-x="700" 
d="M350 625c-29.333 0 -56.166 -5.16699 -80.499 -15.5s-45.333 -26.5 -63 -48.5s-31.5 -50.333 -41.5 -85s-15 -76.667 -15 -126s5 -91.333 15 -126s23.833 -63 41.5 -85s38.667 -38.167 63 -48.5s51.166 -15.5 80.499 -15.5c28.667 0 55.334 5.16699 80.001 15.5
s45.834 26.5 63.501 48.5s31.5 50.333 41.5 85s15 76.667 15 126s-5 91.333 -15 126s-23.833 63 -41.5 85s-38.834 38.167 -63.501 48.5s-51.334 15.5 -80.001 15.5zM350 724c44 0 84.5 -7.5 121.5 -22.5s69.167 -37.833 96.5 -68.5s48.666 -69.5 63.999 -116.5
s23 -102.5 23 -166.5s-7.66699 -119.5 -23 -166.5s-36.666 -85.833 -63.999 -116.5s-59.5 -53.5 -96.5 -68.5s-77.5 -22.5 -121.5 -22.5s-84.5 7.5 -121.5 22.5s-69.167 37.833 -96.5 68.5s-48.666 69.5 -63.999 116.5s-23 102.5 -23 166.5s7.66699 119.5 23 166.5
s36.666 85.833 63.999 116.5s59.5 53.5 96.5 68.5s77.5 22.5 121.5 22.5z" />
    <glyph glyph-name="afii10081" unicode="&#x43f;" horiz-adv-x="671" 
d="M491 0v601h-311v-601h-105v700h521v-700h-105z" />
    <glyph glyph-name="afii10082" unicode="&#x440;" horiz-adv-x="582" 
d="M75 0v700h255c30.667 0 60 -4.5 88 -13.5s52.5 -23 73.5 -42s37.667 -43 50 -72s18.5 -63.5 18.5 -103.5s-6 -74.5 -18 -103.5s-28.5 -52.667 -49.5 -71s-45.333 -32 -73 -41s-57.5 -13.5 -89.5 -13.5h-150v-240h-105zM330 339c16.667 0 32.5 2.16699 47.5 6.5
s28.333 11.5 40 21.5s20.834 23.333 27.501 40s10 37.334 10 62.001s-3.33301 45.5 -10 62.5s-15.834 30.667 -27.501 41s-25 17.666 -40 21.999s-30.833 6.5 -47.5 6.5h-150v-262h150z" />
    <glyph glyph-name="afii10083" unicode="&#x441;" horiz-adv-x="630" 
d="M591 56c-30 -23.333 -64.168 -42.502 -102.501 -57.502s-81.5 -22.5 -129.5 -22.5c-45.333 0 -87.166 7.5 -125.499 22.5s-71.5 38 -99.5 69s-49.833 70.333 -65.5 118s-23.5 104.167 -23.5 169.5c0 62.667 7.16699 117.167 21.5 163.5s34.333 84.666 60 114.999
s55.834 53 90.501 68s72.667 22.5 114 22.5c36 0 69.833 -6 101.5 -18s59.167 -30 82.5 -54s41.833 -54.5 55.5 -91.5s20.5 -80.5 20.5 -130.5h-105c0 34 -3.83301 63.333 -11.5 88s-18.5 44.834 -32.5 60.501s-30.5 27.334 -49.5 35.001s-39.5 11.5 -61.5 11.5
c-26.667 0 -51 -5.16699 -73 -15.5s-41 -26.333 -57 -48s-28.5 -49.5 -37.5 -83.5s-13.5 -74.667 -13.5 -122c0 -50.667 5 -93.834 15 -129.501s24.333 -64.667 43 -87s40.667 -38.666 66 -48.999s53.666 -15.5 84.999 -15.5c36 0 68.333 5.33301 97 16
s53.667 25.334 75 44.001z" />
    <glyph glyph-name="afii10084" unicode="&#x442;" horiz-adv-x="528" 
d="M211 0v601h-192v99h490v-99h-193v-601h-105z" />
    </font>
</defs>
</svg>
